<mxfile host="app.diagrams.net" agent="Mozilla/5.0 (Windows NT 10.0; Win64; x64) AppleWebKit/537.36 (KHTML, like Gecko) Chrome/139.0.0.0 Safari/537.36 Edg/139.0.0.0" version="28.1.1">
  <diagram name="Page-1" id="xl5fBrN8BRavcR0ROGF8">
    <mxGraphModel dx="1069" dy="588" grid="1" gridSize="10" guides="1" tooltips="1" connect="1" arrows="1" fold="1" page="1" pageScale="1" pageWidth="827" pageHeight="1169" math="0" shadow="0">
      <root>
        <mxCell id="0" />
        <mxCell id="1" parent="0" />
        <mxCell id="ngDsrpKMr5wIHU5ZXqHX-19" value="&lt;h1 style=&quot;margin-top: 0px;&quot;&gt;Heading&lt;/h1&gt;&lt;p&gt;Lorem ipsum dolor sit amet, consectetur adipisicing elit, sed do eiusmod tempor incididunt ut labore et dolore magna aliqua.&lt;/p&gt;" style="text;html=1;whiteSpace=wrap;overflow=hidden;rounded=0;" parent="1" vertex="1">
          <mxGeometry x="20" y="10" width="180" height="80" as="geometry" />
        </mxCell>
        <mxCell id="EqOxZtUAhBLloQvfr0Rn-1" value="&lt;b&gt;MPLS GVA&lt;/b&gt;&lt;div&gt;&lt;b&gt;(AS 65000)&lt;/b&gt;&lt;/div&gt;" style="ellipse;shape=cloud;whiteSpace=wrap;html=1;strokeWidth=2;" vertex="1" parent="1">
          <mxGeometry x="100" y="473" width="190" height="100" as="geometry" />
        </mxCell>
        <mxCell id="EqOxZtUAhBLloQvfr0Rn-2" value="&lt;b&gt;MPLS TdE&lt;/b&gt;&lt;div&gt;&lt;b&gt;(AS 3352)&lt;/b&gt;&lt;/div&gt;" style="ellipse;shape=cloud;whiteSpace=wrap;html=1;strokeWidth=2;" vertex="1" parent="1">
          <mxGeometry x="110" y="320" width="170" height="100" as="geometry" />
        </mxCell>
        <mxCell id="EqOxZtUAhBLloQvfr0Rn-3" value="&lt;b&gt;MPLS TIWS&lt;/b&gt;&lt;div&gt;&lt;b&gt;(AS 12956)&lt;/b&gt;&lt;/div&gt;" style="ellipse;shape=cloud;whiteSpace=wrap;html=1;strokeWidth=2;" vertex="1" parent="1">
          <mxGeometry x="110" y="170" width="170" height="100" as="geometry" />
        </mxCell>
        <mxCell id="EqOxZtUAhBLloQvfr0Rn-25" style="edgeStyle=orthogonalEdgeStyle;rounded=0;orthogonalLoop=1;jettySize=auto;html=1;exitX=0.5;exitY=1;exitDx=0;exitDy=0;exitPerimeter=0;endArrow=none;endFill=0;strokeColor=light-dark(#000000,#99CCFF);strokeWidth=3;" edge="1" parent="1">
          <mxGeometry relative="1" as="geometry">
            <mxPoint x="155" y="620" as="targetPoint" />
            <mxPoint x="155" y="580" as="sourcePoint" />
          </mxGeometry>
        </mxCell>
        <mxCell id="EqOxZtUAhBLloQvfr0Rn-11" value="" style="shape=mxgraph.cisco.routers.router;sketch=0;html=1;pointerEvents=1;dashed=0;fillColor=#1ba1e2;strokeColor=#006EAF;strokeWidth=2;verticalLabelPosition=bottom;verticalAlign=top;align=center;outlineConnect=0;fontColor=#ffffff;" vertex="1" parent="1">
          <mxGeometry x="210" y="555" width="30" height="25" as="geometry" />
        </mxCell>
        <mxCell id="EqOxZtUAhBLloQvfr0Rn-19" value="" style="image;html=1;image=img/lib/clip_art/networking/Firewall_02_128x128.png" vertex="1" parent="1">
          <mxGeometry x="160" y="650" width="50" height="50" as="geometry" />
        </mxCell>
        <mxCell id="EqOxZtUAhBLloQvfr0Rn-20" value="" style="endArrow=none;html=1;rounded=0;strokeWidth=3;strokeColor=light-dark(#000000,#99CCFF);" edge="1" parent="1">
          <mxGeometry width="50" height="50" relative="1" as="geometry">
            <mxPoint x="122.5" y="620" as="sourcePoint" />
            <mxPoint x="247.5" y="620" as="targetPoint" />
          </mxGeometry>
        </mxCell>
        <mxCell id="EqOxZtUAhBLloQvfr0Rn-27" style="edgeStyle=orthogonalEdgeStyle;rounded=0;orthogonalLoop=1;jettySize=auto;html=1;exitX=0.5;exitY=1;exitDx=0;exitDy=0;exitPerimeter=0;endArrow=none;endFill=0;strokeColor=light-dark(#000000,#99CCFF);strokeWidth=3;" edge="1" parent="1" source="EqOxZtUAhBLloQvfr0Rn-11">
          <mxGeometry relative="1" as="geometry">
            <mxPoint x="224.58" y="620" as="targetPoint" />
            <mxPoint x="224.58" y="585" as="sourcePoint" />
            <Array as="points">
              <mxPoint x="225" y="610" />
            </Array>
          </mxGeometry>
        </mxCell>
        <mxCell id="EqOxZtUAhBLloQvfr0Rn-30" style="edgeStyle=orthogonalEdgeStyle;rounded=0;orthogonalLoop=1;jettySize=auto;html=1;endArrow=none;endFill=0;strokeColor=light-dark(#000000,#99CCFF);strokeWidth=3;entryX=0.5;entryY=0;entryDx=0;entryDy=0;" edge="1" parent="1" target="EqOxZtUAhBLloQvfr0Rn-19">
          <mxGeometry relative="1" as="geometry">
            <mxPoint x="230" y="635" as="targetPoint" />
            <mxPoint x="185" y="620" as="sourcePoint" />
            <Array as="points">
              <mxPoint x="185" y="630" />
              <mxPoint x="185" y="630" />
            </Array>
          </mxGeometry>
        </mxCell>
        <mxCell id="EqOxZtUAhBLloQvfr0Rn-31" value="" style="shape=mxgraph.cisco.routers.router;sketch=0;html=1;pointerEvents=1;dashed=0;fillColor=#1ba1e2;strokeColor=#006EAF;strokeWidth=2;verticalLabelPosition=bottom;verticalAlign=top;align=center;outlineConnect=0;fontColor=#ffffff;" vertex="1" parent="1">
          <mxGeometry x="140" y="555" width="30" height="25" as="geometry" />
        </mxCell>
        <mxCell id="EqOxZtUAhBLloQvfr0Rn-32" value="" style="shape=mxgraph.cisco.routers.router;sketch=0;html=1;pointerEvents=1;dashed=0;fillColor=#60a917;strokeColor=#2D7600;strokeWidth=2;verticalLabelPosition=bottom;verticalAlign=top;align=center;outlineConnect=0;fontColor=#ffffff;" vertex="1" parent="1">
          <mxGeometry x="215" y="470" width="30" height="25" as="geometry" />
        </mxCell>
        <mxCell id="EqOxZtUAhBLloQvfr0Rn-33" value="" style="shape=mxgraph.cisco.routers.router;sketch=0;html=1;pointerEvents=1;dashed=0;fillColor=#60a917;strokeColor=#2D7600;strokeWidth=2;verticalLabelPosition=bottom;verticalAlign=top;align=center;outlineConnect=0;fontColor=#ffffff;" vertex="1" parent="1">
          <mxGeometry x="145" y="470" width="30" height="25" as="geometry" />
        </mxCell>
        <mxCell id="EqOxZtUAhBLloQvfr0Rn-35" value="" style="shape=mxgraph.cisco.routers.router;sketch=0;html=1;pointerEvents=1;dashed=0;fillColor=#60a917;strokeColor=#2D7600;strokeWidth=2;verticalLabelPosition=bottom;verticalAlign=top;align=center;outlineConnect=0;fontColor=#ffffff;" vertex="1" parent="1">
          <mxGeometry x="145" y="400" width="30" height="25" as="geometry" />
        </mxCell>
        <mxCell id="EqOxZtUAhBLloQvfr0Rn-36" value="" style="shape=mxgraph.cisco.routers.router;sketch=0;html=1;pointerEvents=1;dashed=0;fillColor=#60a917;strokeColor=#2D7600;strokeWidth=2;verticalLabelPosition=bottom;verticalAlign=top;align=center;outlineConnect=0;fontColor=#ffffff;" vertex="1" parent="1">
          <mxGeometry x="215" y="320" width="30" height="25" as="geometry" />
        </mxCell>
        <mxCell id="EqOxZtUAhBLloQvfr0Rn-37" value="" style="shape=mxgraph.cisco.routers.router;sketch=0;html=1;pointerEvents=1;dashed=0;fillColor=#60a917;strokeColor=#2D7600;strokeWidth=2;verticalLabelPosition=bottom;verticalAlign=top;align=center;outlineConnect=0;fontColor=#ffffff;" vertex="1" parent="1">
          <mxGeometry x="145" y="320" width="30" height="25" as="geometry" />
        </mxCell>
        <mxCell id="EqOxZtUAhBLloQvfr0Rn-38" value="" style="shape=mxgraph.cisco.routers.router;sketch=0;html=1;pointerEvents=1;dashed=0;fillColor=#60a917;strokeColor=#2D7600;strokeWidth=2;verticalLabelPosition=bottom;verticalAlign=top;align=center;outlineConnect=0;fontColor=#ffffff;" vertex="1" parent="1">
          <mxGeometry x="215" y="250" width="30" height="25" as="geometry" />
        </mxCell>
        <mxCell id="EqOxZtUAhBLloQvfr0Rn-39" value="" style="shape=mxgraph.cisco.routers.router;sketch=0;html=1;pointerEvents=1;dashed=0;fillColor=#60a917;strokeColor=#2D7600;strokeWidth=2;verticalLabelPosition=bottom;verticalAlign=top;align=center;outlineConnect=0;fontColor=#ffffff;" vertex="1" parent="1">
          <mxGeometry x="145" y="250" width="30" height="25" as="geometry" />
        </mxCell>
        <mxCell id="EqOxZtUAhBLloQvfr0Rn-42" style="edgeStyle=orthogonalEdgeStyle;rounded=0;orthogonalLoop=1;jettySize=auto;html=1;exitX=0.5;exitY=1;exitDx=0;exitDy=0;exitPerimeter=0;endArrow=none;endFill=0;strokeColor=light-dark(#000000,#99CCFF);strokeWidth=3;" edge="1" parent="1" source="EqOxZtUAhBLloQvfr0Rn-35">
          <mxGeometry relative="1" as="geometry">
            <mxPoint x="160" y="470" as="targetPoint" />
            <mxPoint x="160" y="430" as="sourcePoint" />
          </mxGeometry>
        </mxCell>
        <mxCell id="EqOxZtUAhBLloQvfr0Rn-43" style="edgeStyle=orthogonalEdgeStyle;rounded=0;orthogonalLoop=1;jettySize=auto;html=1;exitX=0.5;exitY=1;exitDx=0;exitDy=0;exitPerimeter=0;endArrow=none;endFill=0;strokeColor=light-dark(#000000,#99CCFF);strokeWidth=3;entryX=0.5;entryY=0;entryDx=0;entryDy=0;entryPerimeter=0;" edge="1" parent="1" target="EqOxZtUAhBLloQvfr0Rn-32">
          <mxGeometry relative="1" as="geometry">
            <mxPoint x="230" y="460" as="targetPoint" />
            <mxPoint x="230" y="420" as="sourcePoint" />
          </mxGeometry>
        </mxCell>
        <mxCell id="EqOxZtUAhBLloQvfr0Rn-34" value="" style="shape=mxgraph.cisco.routers.router;sketch=0;html=1;pointerEvents=1;dashed=0;fillColor=#60a917;strokeColor=#2D7600;strokeWidth=2;verticalLabelPosition=bottom;verticalAlign=top;align=center;outlineConnect=0;fontColor=#ffffff;" vertex="1" parent="1">
          <mxGeometry x="215" y="400" width="30" height="25" as="geometry" />
        </mxCell>
        <mxCell id="EqOxZtUAhBLloQvfr0Rn-47" style="edgeStyle=orthogonalEdgeStyle;rounded=0;orthogonalLoop=1;jettySize=auto;html=1;exitX=0.5;exitY=1;exitDx=0;exitDy=0;exitPerimeter=0;endArrow=none;endFill=0;strokeColor=light-dark(#000000,#99CCFF);strokeWidth=3;" edge="1" parent="1">
          <mxGeometry relative="1" as="geometry">
            <mxPoint x="160" y="320" as="targetPoint" />
            <mxPoint x="160" y="275" as="sourcePoint" />
          </mxGeometry>
        </mxCell>
        <mxCell id="EqOxZtUAhBLloQvfr0Rn-48" style="edgeStyle=orthogonalEdgeStyle;rounded=0;orthogonalLoop=1;jettySize=auto;html=1;exitX=0.5;exitY=1;exitDx=0;exitDy=0;exitPerimeter=0;endArrow=none;endFill=0;strokeColor=light-dark(#000000,#99CCFF);strokeWidth=3;" edge="1" parent="1">
          <mxGeometry relative="1" as="geometry">
            <mxPoint x="230" y="320" as="targetPoint" />
            <mxPoint x="230" y="275" as="sourcePoint" />
          </mxGeometry>
        </mxCell>
        <mxCell id="EqOxZtUAhBLloQvfr0Rn-52" value="" style="group" vertex="1" connectable="0" parent="1">
          <mxGeometry x="360" y="170" width="130" height="90" as="geometry" />
        </mxCell>
        <mxCell id="EqOxZtUAhBLloQvfr0Rn-51" value="" style="rounded=0;whiteSpace=wrap;html=1;" vertex="1" parent="EqOxZtUAhBLloQvfr0Rn-52">
          <mxGeometry width="130" height="90" as="geometry" />
        </mxCell>
        <mxCell id="EqOxZtUAhBLloQvfr0Rn-9" value="" style="shape=image;verticalLabelPosition=bottom;labelBackgroundColor=default;verticalAlign=top;aspect=fixed;imageAspect=0;editableCssRules=.*;image=data:image/svg+xml,PHN2ZyB4bWxuczp4bGluaz0iaHR0cDovL3d3dy53My5vcmcvMTk5OS94bGluayIgeG1sbnM9Imh0dHA6Ly93d3cudzMub3JnLzIwMDAvc3ZnIiBzdHlsZT0iY29sb3I6IHJnYigwLCAwLCAwKTsgZm9udC1zaXplOiBtZWRpdW07IGZvbnQtc3R5bGU6IG5vcm1hbDsgZm9udC12YXJpYW50LWxpZ2F0dXJlczogbm9ybWFsOyBmb250LXZhcmlhbnQtY2Fwczogbm9ybWFsOyBmb250LXdlaWdodDogNDAwOyBsZXR0ZXItc3BhY2luZzogbm9ybWFsOyBvcnBoYW5zOiAyOyB0ZXh0LWFsaWduOiBzdGFydDsgdGV4dC1pbmRlbnQ6IDBweDsgdGV4dC10cmFuc2Zvcm06IG5vbmU7IHdpZG93czogMjsgd29yZC1zcGFjaW5nOiAwcHg7IC13ZWJraXQtdGV4dC1zdHJva2Utd2lkdGg6IDBweDsgd2hpdGUtc3BhY2U6IG5vcm1hbDsgdGV4dC1kZWNvcmF0aW9uLXRoaWNrbmVzczogaW5pdGlhbDsgdGV4dC1kZWNvcmF0aW9uLXN0eWxlOiBpbml0aWFsOyB0ZXh0LWRlY29yYXRpb24tY29sb3I6IGluaXRpYWw7IiBvdmVyZmxvdz0iaGlkZGVuIiB4bWw6c3BhY2U9InByZXNlcnZlIiBoZWlnaHQ9IjcxOS45OTg0NzQxMjEwOTM4IiB3aWR0aD0iMTEwMC4wMDA5NzY1NjI1IiB2aWV3Qm94PSItMC4wMDAwMDc2MjkzOTQ1MzEyNSAwIDExMDAuMDAwOTc2NTYyNSA3MTkuOTk4NDc0MTIxMDkzOCI+PGRlZnM+PGNsaXBQYXRoIGlkPSJjbGlwMCI+PHJlY3QgaGVpZ2h0PSI3MjAiIHdpZHRoPSIxMTAwIiB5PSIwIiB4PSI5MCIvPjwvY2xpcFBhdGg+PGNsaXBQYXRoIGlkPSJjbGlwMSI+PHJlY3QgaGVpZ2h0PSI2ODU4MDAwIiB3aWR0aD0iMTA0Nzc1MDAiIHk9IjAiIHg9IjAiLz48L2NsaXBQYXRoPjxpbWFnZSBpZD0iaW1nMiIgcHJlc2VydmVBc3BlY3RSYXRpbz0ibm9uZSIgeGxpbms6aHJlZj0iZGF0YTppbWFnZS9wbmc7YmFzZTY0LGlWQk9SdzBLR2dvQUFBQU5TVWhFVWdBQUJnTUFBQVB2Q0FNQUFBRFpMVTZxQUFBQUFYTlNSMElBcnM0YzZRQUFBQVJuUVUxQkFBQ3hqd3Y4WVFVQUFBTDlVRXhVUlFBQUFPZ1hMdXNkSit3ZUorMGVKdXdlSnVzZkpld2VKK3dlSit3ZUord2VKK3djSmUwZktPd2RKdXdlSiswZUp2QWZKK3NiS093ZEorMGVKK3dlSit3ZEovRWNLL0FlTGV3Zkp1d2ZLT3dlSit3ZUorMGZLUDhySyt3Zkp1d2RLT3dlSit3ZUorb2dKZXdmSit3ZUord2VKK29nSytrZEpPd2VLT3dlSit3ZUorc2VLT3dmSiswZUord2VKdXdlSnU0aUl2SWFKdXdlSit3ZUord2VKOXNrSk93ZUord2VKK3dlSnV3ZkovOEFBT3NmSit3ZUp1d2VKK3dkSis4aEtlc2RKK3dlSitzZUorMGZKK29WSyt3ZktPd2VKK3NlSitzZUtQOHpNK3dlSnVzZkord2VKK3dlSiswZUp1b2RKZXdlSiswZUord2NKdXdkSiswZkp1d2VLTzBjSit3Zkorb2NLK3NmS093ZUord2VKK3NuSit3ZUord2VKK3NkSit3ZktPd2RKdTBkSitraEp1d2VKK3dkS093ZUord2ZKZXdmSit3ZUord2VKK3dlS093ZUp1c2ZKKzBlSjk4Z0lPZ2pJK3dkSnV3ZUord2VKKzRmSnY4QVFPc2VLT3dlSit3Zkorc2dLT3NmS093ZUp1d2VKK3NkSit3ZEp1c2VKK3dlSit3ZUp1c2ZLZXdmSit3ZUord2RKdThnSU8wZEord2VKK3NlSis4Z0tPMGZKKzBlS3Uwa0pPc2ZKK3dlSit3Zkord2RKdXdlSitzZUtPMGZLTzBhSSt3ZUorTWNIT3dlSis0Y0tPMGVKK3dmSnV3ZUorMGRKdXNkSit3ZUovOEFBT3dlSiswZUord2VKLzhBQU9zZEtPMGVLT3NjS093ZUtPd2VLT3dkSit3ZUord2VKK3NmS2V3ZUord2VKK29kSnUwZEtPd2VLTzBmSit3ZUp1NGVKdWNZSk9raExPd2VKK3NkSit3ZUorb2ZKdXdlSnVzaEord2VKK3dkS08wYkpPd2VLT29jS2VzZUorMGVKK3dlSiswZUtPd2VKK3dkSit3ZUorMGRKK3dkS08wZEtPMGZLTzBkSnUwZUpPa2VKdXNlSnV3ZUorc2ZLTzRpSyt3ZUord2VKK3NkSnVzZktPMGRKdXNkSitzZkorMGVKK3NlSiswZUorNGRLZTBlSitzZUord2VKK3NlS08wZUtlMGdLZXdlSnV3Zkord2VKdXdlSit3ZUp1d2VKK3dlS08wZkp1c2VLT1lhTSswZEp1d2VKKzBlSis0Y0orc2VLTzBlS093Zkorc2VKK3dnSnVzZktPNGVKK3dkSitvZkpPd2RKK3djSnBMN0JRSUFBQUQvZEZKT1V3QUxUcEIvUkV1azkvL3VOenFUMzM0aEpvUGR4bWtTRVd2SStyRlRCbEd1OFpjdzZ0WjJHQ1BWL0wxbWZNKzZYZzhVYnNuNEIxenpuMElCUWFEMDRSK0M0TU5qREd6MnFFMEZYYmY3N1prKzQ0bzJUNmFIU0o0a2plZlREZjN2bkZLdGl5L1hldVlwaE55NVgzalJWQWdXeC9LaVNRUm52cFpBV3JQa05GQ3A5ZHN5bGN4cUVOQ3IzaUI5S3c1YnJOazErWUU1SGJBSi9pMXZoYkpYR3FNRDdNTHBBbG0wUDIxNXBiaUlHZUtSUFVhaFlvWThGUmZMYUx4S2tpZk5sQnpPSmNTMXFwcmxlOXBoWUVlbmpDb2laWWx6SHNWM1dJNXh0blZ3NjFZc21JL1lNMFU0NksvVThFUFN1MlJNQ25MS1ZTNkF3Y0NiS0hRN25URy9HeWpTMERJQUFBQUpjRWhaY3dBQUN4TUFBQXNUQVFDYW5CZ0FBRkQ4U1VSQlZIaGU3ZDEzbUZYVjJZWngwQ0JzTkFKR3dJS0tEUnNnb0lJaWlBVklyR0NKSlNKcUxHQURWS0xZZTR3YVJhTUlJWWlDU21LSkZST2pSckViVzZKR29rbjBpOFlTWTYvcHViNExSc2p3TXVVOGE4NSt6OXByMzc4L2NXWk9tVG5uOWwxcjczMWF0UUxLcS9VeXkzNmxqZjFIQUVBSkxOZTJYWlpsV2Z0bGw3Zi9CUUNRdEJXKzJuNUJBT3FzMktHai9lOEFnRVIxV3Vsci93dEFuWlU3ZDdGZkJRQklUdGRWVnJVQldHaTExYnV0WWI4V0FKQ1NOZGV5Ny8zMWRGK2JyUUVBU05VNnk2NXIzL2F0OWRidlliOExBRkI0RzNUWTBMN2hOMmlqalRmcGFyOFhBRkJnRy9Uc1pkL3JtOUo3MHo3Mkp3QUFDcWx2djgzc20zeXpObCtyMnhiMjV3QUFDcVoxLzk3Mi9iMUNBN2JjeXY0d0FFQnhETng2MEdENzFxN1lacVVoOWtjQ0FBcGh5TGJiMlRkMTNmWTdETFUvRndBUXViN0RWclp2NTRHR2YvMGJPOXFmRGdDSVZ1dWRkdDdGdnBXM3hLNjdqUmhvYndNQUVLTnVYMTk0UWREcUdybjdIdloyQUFCeFdXUFB2UWJZdCs5cStkbzMxN0UzQndDSXh0Nzd0T2d3b09adHQ5Sys5allCQUJGWVo3OXYyYmZzUEd5MkNsZVpCb0M0OUZoL2YvdG1uUnV1TWcwQUVSbTF3OFlIMkRmcWZJMCtjR3NPRkFLQTJ0dmlvSU0zdDIvUkhrWisreEI3VndBQXJ0b2NtTnRoUU0wNzlEQXVKUUVBdGJMOHNvZmJ0MlZ2S3cvcmErOFZBQ0IzWThZZVlkK1FhMktqSTQ4YVplOGJBQ0JIUTQ0K3hyNFgxMUM3ZzhlTnQvY1FBSkNMQ2YyT3RlL0NOWGZjOFJPL1krOG5BS0RLdXA1d29uMy9qVVQ3U1NmWk93c0FxSjdXSjUreW1uM3JqY21wKzUxbTd6SUFvQnEyT1AyTU0rMmJibnpPV21tTXZlTUFnQlk2KzV6Mjl1MDJWdWVlMThmZWV3QkFzTy8yTzkrKzBVYXRYZHV0dUpRRUFGVEZ4Ty9aOTlnQ3VLRERoZlp4QUFBMDQwOC92akJyUUZhdmk3NXZIdzRBb0ZJWFh6SzVBTHZBVGJuMG01ZlpCd1VBYU42T3B4LzhBL3VXV2tRWFhON1JQalFBUUpPdW1MU3JmVE10cm1NN2Q3V1BEd0RRaUNrZFZyUnZvMFYzWlRmN0lBRUFTNXU2NlluVDdEdG9DdFpkOW9mMm9RSUFsakJpbnhwK0premVlazNuNCtnQm9ERmpmcFRjR3BDeDJveXJwdHBIRFFCb05YUDlZcDBMSEdyQTFYdGZZeDg3QUpUYWhIN2IyL2ZLaE0yYXRKVjlBZ0NnckhyMG0zMkFmWnRNM2JXVHRyN09QZzhBVURwZGhwVnBBcWh2MWprcjJDY0RBTXBrNnZWem92NU1tTHhkc0ZJbis1UUFRRW44ZUZEQnJ3WlVEZWYraEE4YkFGQStQVzQ0eTc0ZGxsUzdHL213QVFDbDBtV1RtK3c3WWFsdGQvTWU5aWtDZ0RUOXROK0o5ajBRMlMyMzNtYWZLQUJJemRSTGJ0ckl2djJoemdYYmNwVnBBQ203L1E1MmdadTA4akN1S0FRZ1RhZnR0NjU5eThQUzVwdzgzajV6QUZCd1F6b2NZZC9zMElqQlc3YXhUeDhBRk5pZFpUMFhPTlNwYysreXp5RUFGTlRQN0ZzY21yV3JmUklCb0tCK2J0L2cwS3oyOWtrRWdJS2lBVG9hQUNBVk5FQkhBd0NrZ2dib2FBQ0FWTkFBSFEwQWtBb2FvS01CQUZKQkEzUTBBRUFxT0Q5QXgva0JBRkxCSEtCakRnQ1FDaHFnb3dFQVVrRURkRFFBUUNwb2dJNEdBRWdGZThJNjlvUUJwSUk1UU1jY0FDQVZORUJIQXdDa2dnYm9hQUNBVk5BQUhRMEFrQW9hb0tNQkFGTEJjVUU2amdzQ2tBcm1BQjF6QUlCVTBBQWREUUNRQ2hxZ293RUFVa0VEZERRQVFDcG9nSTRHQUVnRkRkRFJBQUNwbUdEZjROQXNHZ0FnRmN3Qk9ob0FJQlUwUUVjREFLU0NCdWhvQUlCVTBBQWREUUNRQ2hxZ293RUFVa0VEZERRQVFDcG9nSTRHQUVnRjV3Zm9hQUNBbkkzZjZlN2I3TC9sb3E5OWcwT3padGtuTVJlL3VPZGUrMDhBeW1Hckc0ZG4yVjMyWDNQQlo4am9mRDVENWhkWjF2NitYOXAvQlpDNksvYmJadUU3RFEySWxWc0RzaXk3LzRZeDlqOEFTRmUzTTlvdmVxZnhhUUQ3QVRxZi9ZQzZCbVJadHMwRDY5ai9CaUJGOHc2cm13RHErRFNBT1VEbk9RZlVXWFhUb2ZZL0EwakxaU3M5V085RlR3TWk1dCtBTE10Njk1dGl2d0pBS2g0YWU5YVNyL2dzeTN5T0MrTDhBSjNQV2xCbmU3UFRIaDQyd1g0UmdPTHIwcStYZmJrdlFBTmlWYU1HWkZtMjBTUGRkclJmQjZEUTluelV2dEMveEZwUXJHcXlGclJJKy91V3QxOEpvS0FHbnZUWTRzT0Fsc0ljRUt2YXpRRjF6cnE4ay8xaUFJVXpjTVI5ajl0WGQzMDBJRmExYmtDV1plYy9zWUg5ZWdCRmNzV3Q2OXJYdGVHekZzVDVBVHFmQmpTeUZyVFkvaGR4b0JCUVVCMDcvTXErb3BmbTB3RDJBM1ExM1Erb2IvYVRvK3gzQVloZDMyR3o3V3U1UVRRZ1Z0RTBJTXV5Ujd2Wjd3TVFzVkZQM2JTTGZSazNndjJBV1Btc0JUVzVIMUJQOTBGUGY4ZCtMNEFZWFhmN00rM3NLN2h4TkNCV2NUVWd5N0pybi8yMS9XNEFzZm5OajBiYTEyNlRhRUNzb210QWxtVjNuL2RkK3dNQXhPUDdGOTF2WDdYTllUOGdWakh0QjlTejgzTmNTZ0tJMGg3UFgycGZyeFdnQWJHS3RBRlpsbTMvd20vdGp3RlFXNTNHSG1GZnFaVXBlUU5lbkg2RHVaQnFOT0p0UUpabER3L3JhMzhTZ0ZxWk56LzhmYXpNRFZqeG9wa0w3dHkrdTE5ci8wc01vbTdBZ3N0TUg4V25EUUFSV09OM054MWdYNTZDMHU0Sm43L1NaUU1YM2IxclRub3BjSXpLVVl4N3drc2FQR2lFL1hFQWZKMTJUdU9YZzZ0SU9SdndyZWYzdFhmeHN0MjYyNitxcmZnYmtHWFpFVDI1bEFSUU0yZXZ0UFJud3FoODFvTGl1bDdRNU5QdC9WdG82cDMzMksrc0paOEdoSzhGTGZMd3l3dFgxQUQ0MnVQbTdleXJNVVRwR3ZEN3BwYXhKMHhmMlg1OXpSU2xBVm1XYmZZSERoUUNYTzI3MGdYMmRSaW9YR3RCNTAvdll1K2E5WnR0dDdIZlZScytEV2poV3RCaXg2N1M3RE1Mb0RwKy9zZk43Q3N3bk04Y0VNVnhRYTk4ZFIxN3Z4cldacS9COW50cklQYmpncGF5ODZ0VDdVOEhVRzFEajlyWnZ2WmFwQ3dOV1BHYks5ZzcxWlRsSG12dWd4ZHlWN2dHWk5tWng5OXJmejZBYWxyekRQdXlhNmxTTkdEazJQK3o5Nmg1dDAycTdZRkNCV3pBZ2hXc3RYMVdGNEVTdXYzQUhONlVmQnBReXozaEFYLzZzYjA3bGJwcWRmdkRIUG5zQjFTN0FRdUsrL3paOWxZQXROREFFZWZrY3pLcnovKzExV3hQK0lBanI5L0MzaGxGMytubjJ4L3B4YWNCMWRvVFh0S3Z0bjNJM2hDQWNIdThkcXA5bFZXTHp4eFFvN1dnMTUrWVorK0o3cytUWnRtZjY2S1lhMEdMSFhQUmIreHRBUWd4WWYwTjdldXJpdEtkQTdiWnZWcExFdGM4UFNpSFZiam1GSGtPcURQN3ppWk94UUJRa2Y3VlBReG9LWW5PQWJlOGRJVzlEeTJ6NTZEajdHM2tyT0J6UUoycjM3QTNDS0J5ZXg4NHdMNm9xaTNGQmp3K3Qxb1R3QkltYmpuYzNsS2VrbWhBbG8zYy9VMTdtd0FxTWZGNGp3V0k5QnJ3ek43MjFxdG02SjBQMjF2TFR5SU5XRENVdlNhZG13R2dWYXZiOTNGYWVraXNBUS8rTWVjUHZQM2xzcS9ZMjh4Sk9nM0lzdXl0MTVhM3R3eWdNV2MvK3kzN0dzcE5VZzE0MitYU1phZXRhbTgzRjBrMUlNdXlTM3NPc1RjT1lHa3pqLzZMZmZYa0thbmpnczZ4dDV1UDM5dmJ6VVh4and1eXBtMi9TUjk3K3dEcUc3WERpZmFGa3pPZk9hQ3Z2ZGw4UEdCdk54OXo3TzNtWXBhOTJWejR6UUYxM2g1bjd3R0FMNjJ4NXVUTjdVc21kOHdCT3VhQWxuam53Sk1XZjRnbmdNVitYSnRMbFBuTUFVN1hDM0thQTFKcWdQY2NzTkRoeng5aTd3ZFFib2ZzZm90OW5UanhhWURUbnJCVEF4Nnh0NXVMMVBhRWw3VGhZZXdRQTErYWNvUHJMdkNTV0F2U3BUUUgrSzhGTFRMdDRjNTg5QmpRcXN0NUQwK3pydzVQTkVCSEE2cGtsMGN1YVczdkVGQW1yZnYvZmhmN3VuQkdBM1Ewb0hyT2ZPWWJPOXI3QkpURTZYdTFzNjhJZno3N0Fld0o2M3dhVUt2OWdIcEc3N2FWdlZkQThxNzc2NEdqN1d1aEpwZ0RkQ2sxb05aelFKM0hYenJOM2pFZ1pjdS9kTGg5RmRTS3p4ekFjVUc2dEk4TFdzb1JZenZaK3dha2FjellJK3pmZncweEIraVlBL0p4L3Z3cDl1NEJxUmx5dzd2Mkw3KzJhSUNPQnVSbDJvdkQrdHA3Q0tSand2Umo3Ujk5emZtc0JiRW5yUE5wUURSclFZdTk5eVFYbGtPUytyeS9zZjFyandFTjBOR0FuRjE1OGxSN1A0RmltM3I5Nmord2YraHhZQzFJbDFJRDRsb0xXbXhBMitVNGJRREpXR09aWndiYnYvRm8wQUFkRGZDdzYyTmJYMmZ2TFZBODE3V0o1RVNBUnRBQUhRMXdjdmhyZTlqN0N4VExDcmV1YS8rdUk4TitnQzZsQmtTNUgxRFBpbVBIMkxzTUZNVWgzMXpSL2tYSHg2Y0JuQ09tSzlrNVlvMDc1b2tMN2IwRzR0ZnhpUnBlRUZyQVdwQXVwVGtnNnJXZ3hWYWRQc0hlY1NCbVBmNjRtZjByamhVTjBORUFmd2Zjc3dPbkRhQWcrcnkvOFFIMkx6aGVORUJIQTJyaUI2dGZ4V2tEaU43NGsyZllQOTI0K2V3SHNDZXM4MmxBQWZZRDZqbXo3UWYyQVFBUnVXYmkxUVBzWDIzc21BTjBLVFdnUUhOQW5WbC9HakhRUGdnZ0NuZXRQY3YrdlJhQXp4ekFjVUU2amd0cXpNaHZuMjBmQmxCclkrWVc0RGpRaGpBSDZKZ0RhbTY5SjRiWVJ3TFV6c3oxajdGL280VkJBM1EwSUFZcnI4SmxwaEdGUGlmTXRuK2RSZUt6RnNTZXNNNm5BVVZjQzFwczU2TmEyOGNEK05xaTI5dVJYZyswVXN3QnVwUWFVTnc1WUtIQk4wNjh4ajRrd012QWt3NTh4LzVORmc0TjBOR0FtS3o3MWVYdGd3SThkUHJtTGZhdnNZaG9nSTRHUk9hc0R1d1F3OW1FbHgrMGY0Y0ZSUU4wTkNBK0wvNmlxMzFvUUY0dXZ2TkkreGRZWE93SjYxSnFRS0gzaEpkMDVTVWYya2NIVkYrZkp4OVp6Zjd4RlJsemdDNmxCcVF5Qnl3MC9PRGZjYUFRY2pYcXFkNzJ6NjdvZk9ZQXpoUFdjWjV3a0JuWGMyRTU1T1M2ZTgvWTNQN0JGUjl6Z0k0NUlHb0RCcDNFRllWUWZaMTJQOXorclNXQkJ1aG9RT3hXdkp3RGhWQlZQVDc2MlA2VnBZSzFJQjFyUVFXd2ZUOHVKWUVxNlhMZTdHbjJEeXdkekFFNjVvQkMyT2k5OS9ub01iUllueWZ2c1g5YWFXRU8wREVIRk1idit3KzFqeGlvM1BoUDNrNXdGM2hKekFFNjVvQUNHZjdvNld2WUJ3MVU1UGEyZyszZlU0S1lBM1RNQWNYU2ZjczI5bUVEemJuczFyZnNYMUthbUFOMHpBR0Y4L2l6NjloSERqUnV5RVd2MjcraFpORUFIUTBvb2cxdm1HSWZQTkNRQzlkUDlqalFodEFBSFEwb3Btbkh2dkJiKy9pQkpXM1E4M3o3aDVNNG4vMEFyaG1uODJsQUdmWUQ2cnYvc0F2dFV3QXM4dDFWenJWL01lbGpEdENsMUlBeXpRRmYydXdFVGh0QUE2NTcrdXZKSHdmYUVCcWdvd0VGTi96R3YzSkZJU3hwbmVkSDJyK1RrdkJaQytMWVVCM0hodVpwbXg5OWFwOEtsRmZIbnV2WnY1RHlZQTdRTVFjazRTK0hkYlRQQnNxb3kvVE43TjlHcVRBSDZKZ0RVckh5OUM3MkNVSEpqSnRqL3lyS2hnYm9hRUJDNW95elR3bks0NE5CQSt3ZlJQblFBQjBOU01xQUxaZXp6d3BLWUkxbGpuL0gvaTJVRXZzQk92WURVak42MEhJNzJtY0dLYnZtNlVIZDdWOUJXZEVBSFExSTBEdjd2SEdOZlhLUXFMdldubVYvL3lYR1dwQ090YUEwelZyYjU5V0FtdXE0N1FYMk4xOXV6QUU2NW9Ca2ZlMHpqaGROMm9SK3E5cmZlZW41L0o4UDF3dlMrVFNBT2NCYWVkZ0UreVFoRFQzNnpUN0EvcnJCSEJBZ3BRWXdCeXp0Z00vSlFIcTZidkpGd3A4TDN4STBRRWNEa25mQWlYd2VmVkplbldGL3hWaUV0U0JkU2cxZ0xhaFJWM2F6VHhhSzZZZTNjaGhRRTVnRGRDazFnRG1nQ2ErODlrUDdmS0ZvTHV6NUYvdDd4UkpvZ0k0R2xNZTdYRml1eUxwT0w5V25Rb2J4V1F2aS9BQWQ1d2RFWXJPZmZOYytheWlFYm52WjN5VWE0Tk1BOWdOMFBuTUFEYWpFTTZmYjV3MlI2M3I5MVdmYVh5TWFSQU4wTktCOEJnOTZsUU9GaW1PbjJmWVhpRWI1TklDMUlCMXJRYkg1NGxYNzdDRkM0NWM1NTFUN3EwTVRhSUNPQnBUVmR2ZmRhNTlBeE9YUHh3KzN2elUwalFib2FFQ0pEVDZ3azMwT0VaSDc3UzhNemFFQk9ocFFicC9aSnhIeGVOait0dEFjR3FDakFlVzJtMzBTRVE4YUlPTWNNVjFLeHdWeGpwanViL1pKUkR4b2dNeG5EdURZVUoxUEE1Z0RkSS9aSnhIeG9BRXk1Z0JkU2cxZ0R0QXhCMFNNQnNob2dJNEdsQnNOaUJnTmtORUFIUTBvTnhvUU1Sb2dvd0U2R2xCdU5DQmlORUJHQTNRMG9OeG9RTVJvZ016bnVDRE9EOUJ4ZmtDc09EOGdZalJBUmdOME5LRGNhRURFYUlDTXRTQWRhMEhseGxwUXhHaUFqRGxBeHh4UWJzd0JFYU1CTXVZQUhYTkF1VEVIUkl3R3lHaUFqZ2FVR3cySUdBMlEwUUFkRFNnM0doQXhHaUNqQVRvYVVHNDBJR0kwUU9heko4eDFRM1UrRFdCUFdNZDFReU5HQTJUTUFicVVHc0Fjb0dNT2lCZ05rTkVBSFEwb054b1FNUm9nODFrTDR2d0FIZWNIeElyekF5SkdBMlRNQVRybWdISmpEb2dZRFpENXpBSHNDZXQ4R3NBY29HTlBPR0kwUU9iVEFOYUNkS3dGeFlxMW9JalJBQmxyUWJxVTVnRFdnblNzQlVXTUJzaG9nSTRHbEJzTmlCZ05rTkVBSFEwb054b1FNUm9nb3dFNkdsQnVOQ0JpTkVER25yQ09QZUZ5WTA4NFlqUkF4aHlnWXc0b04rYUFpTkVBR1EzUTBZQnlvd0VSb3dFeUdxQ2pBZVZHQXlKR0EyUTBRRWNEeW8wR1JJd0d5R2lBamdhVUd3MklHQTJRK1J3WHhQV0NkRDRONExnZ0hkY0xDdkRUTnZaZjhrRURaRDRONE5oUUhjZUd4c3JwMk5BOVc5dC9LYXg5ZDM4M1c5YitZejRTYXNDM2V0dC95WWRQQS9yYW04MkhVd1BtMk52TnhTeDdzN2x3YXNEYjNlMi9GTmlmN0pPWWo1dXl1NC8rbWYzSEF1cDQyTGtMbmpVYUlGbDNyNnRhL2NUK1l6NThHc0Fjb0V0cURwZzQ2b1FaQSt3L0ZwWFRISERUZ3R2cS9WeFgrKytGMHVXRVJXL0tORUJ3eXQ0TEhzc3crOC81OEdrQWM0QXVxVGxnNFo5MC80WC9QMWg4Ym5OQW5SbmR4dHYvVkJBLzdYZmkvNTQxR2xDaEFYdjk3c3Z4anpsQTU5UUE1Z0RaeExwYisvc3FNK3gvS1NEUE9XQ2g0V3RkTmRYKzEraTEzdW05Slo0MUdsQ1JWZC8vMzYrYUJ1aG9nTXkzQVF0R3dxTXZzUCt4YU53YmtHWFptWGZjYnY5N3pENjhhdktaOWU4K0Rhaklkai9xVlAreFRMZi9QUitjSDZCTDZkaFFwL01EbHF0M2t3Ti9mT0E3OXI4WGl0UDVBVWVhbTMxcjBrblgyYStKMHdkbm1MdStBQTFveHJyMzJUZGo1Z0FkYzRETWZRNm9jOUNOdysyWEZFY3Q1b0E2cys0NzIzNVZkQTU1OWkxN3R4ZWlBVTNwUG1tRWZTVHNDWWR3YWdCN3dyS0ZlOEpMR0gvUXdmYUxpc0o1VDNoSjcvNmpoLzNDaUF3NTdDLzJEaTlDQXhxMXl5bmQxckNQWXdIV2duU3NCY2xxc0JhMFdOZWYzRysvcmhCcXRCYTB5RVpIYmpyVWZtMFVKcno4b3IydjlkQ0FSaHg3WGwvN0lMN0VXcERPYVE1Z0xVaG0xNElXR1ROM0cvdWw4YXZkV3RCaWozNFMyL0dpRTg2YmJlL2trbWhBUTNvOU1jUStnditoQVRvYUlLdHhBMXExYXZYUEIyYlpyNDVjQkEzSXN1RlhMMk8vb1habTlwdDlnTDJERmcxWXlvWmYyY0RlL1NXd0ZxUmpMVWhXeTdXZ1JhN2JlcmRYN0RmRXJNWnJRWXNOZUNhS3M4YzJtTCt5dldjTm9RRkxldWVyZjdiMzNXSU8wREVIeUdvL0I5UlpzMEFuajBVeEI5UVp2dFpPRjl2dmMvWDl5NCt4OTZrUk5LQytuVCt4ZDd3Qk5FQkhBMlN4TktCVnF4N3JWL3B1VW1zUk5XQ0JuWGVvMVNXRituNTB2cjB6amFNQml3eGZhNmMrOW00M3FKLzl6bno0TklEUEQ5RDVyQVU1TmVCZWU3c04ybUQreC9ZYlkrVDArUUdWTmlETHNqTk90OStjdi9IOWQ3WjNvMGswb002TWNSVXY0REVINkp3YXdCd2dxMkFPcURQdkg0ZmE3NDFPWkhQQVFxTWZXTjUrZjU0R2JyMlBlalZ3R3BCbDJjZkR1dGc3M0FUMmhIWHNDY3RpMkJNMkR0bXY0Uk5Ob3hITG5yRHgraE5UN0kvSXlVa3YzV0p2dkhrMFlPVFlYOXA3MnpUbUFCMXpnQ3kyT2FET3hMYjJCOFFreGptZ3p2WXZYMmgvU3RVdGMrTm9lN01WS1hrREJtelp3TVVnbWtFRGREUkFGbWNEV3JVYWVsUzlTODlISnQ0R0xEanA2UEwvc3orb2lxNVl1NzI5d1VxVnVRRzduUExxRnZhT1ZvQzFJQjFyUWJJSTE0SVdtWGxEcEZzRGthNEZMZGJyNWNZdVB0QXluMzVsUlh0VGd2STI0UFBweWlaQVBSd1hwSE9hQTFKcWdOTWNVTmx4UVV1NUxHVGhPWGZ4SFJlMGxOOC9WZG5SaDVWNzgvbXo3STFveXRtQTRhcy9HUmdBNW9BZ3pBR3lpT2VBT3V0VWZCS1NtOWpuZ0lWV08vS0VDZlluQnB2U29lV1hkU3BqQXo1L3Y3Vzlmd3JtQUIxemdDenVPYURPdm5Qak9sQ29BSE5Bblp1dXR6OHp4SWNuMzJOL2NJalNOZUJYbjdWMGc1NDlZWjFUQTlnVGxzbDd3c2J0WjBUMG1UTlI3d2t2cVlLTDBqUnQvQ2MzMnA4WnFGd05XTy95USt3OTB6RUg2Sndhd0J3Z2E5RWNzTkQ0ZzY0ZWJIOXFqUlJtRGxob3U1VSt0VCs1WXQrbzRzZTlsYWdCczI3K3U3MWJRWmdEZEU0TllBNlF0WFFPcU5QTnA3N05LZEFjVU9mUW5oM3RENi9BaU1lQ2p3TnRTR2thY0ZNM2U1OUMwUUFkRFpBVnFnR3RXczI3ZktUOTBmNEsxNEFzeTFidS9EUDc4NXV5eFo3N1ZQdHkzdVZvd0lQL21HbnZVVGlPQzlKeFhKQXMrdU9Dck91Mit0Yzc5cWM3SzhSeFFVdVpkdXo4Q2k5VjhPRWwzNnZlRXRCaUpXakEvdHQyc25lblJkZ1AwRG5OQVNrMXdHa09hUGwrUUgxWG5YR2N2UUZQeGRvUHFPK3N6NW8vaWZpRHlmYTdxaVAxQm16L1VjaUNXNU5ZQzlJNU5ZQzFJRm0xMW9JV2UvcFAxVjZycUZ3UjE0SVdXNjluRXg5ZzIrcWtXNnU2QjFCZjBnMW92L3UrOW81VUFYT0F6cWtCekFHeTZzNEJkZnAvWVcvRlNYSG5nRHF6T3pkODl0aGYvNWJuSnpzbjNJQTVyOXA3VVIzTUFUcW5CakFIeUtvK0J5ejAwTmlhN0JBWGVnNm84L0JTbHhUYTQ1dUgyeStxcmxRYkVIdzFvT1l4QitpY0dzQWNJTXRqRGxqb3BMWFh0YmVWdTZMUEFYVWVxZmRKeEZQRzVuOWRwaVFiY09MN3RxWFZ4QnlnYzJvQWM0QXNuem1nem9qODFyQWJsc0FjVU9mdHVzTzF6bk5aVkV1dkFYZmZVTVhqUUJ0Q0EzUTBRSlpBQXhaK3Jvbm5PY1RKTkNETDN0cjlqVmJ6N0QvbUk3RUdqT3o1VzN2VFZVY0RkRFJBbGtZRFdyVnF0YWIyQ2VjdGtWQURzaXlqQVFFbWJXVnZOdy9EN00zbXc2Y0JmZTNONXNPcEFYUHM3ZVppbHIzWlhEZzFZRzk3dXptWWQvU0Q5bWJ6OFNkN3kvbWdBU0ZjR25DcXZkVjhNQWZvbkJyQUhDRExmdzVZWUx5OTJYd3dCNFNnQVRJYW9LTUJNaHFnb3dFaFVtckE0L1pXODhIMWduUmNMMGhXdU9zRk5jV3BBY1c4WGxBak5xSUJPdVlBSFhPQWpqbEE1dFFBNW9BUU5FQkdBM1EwUUVZRGREUWdSRW9OWUMxSXgxcVFqclVnbVZNRFdBc0trVklEbUFOMHpBRTY1Z0NaVXdPWUEwS2sxQURtQUIxemdJNDVRT2JVQU9hQUVDazF3R2tPNEpweE9xYzVJS1VHT00wQnVWMHpiZ2xPRFVqam1uR0wwQUNkVXdOWUM5STVOWUMxSUJsclFUb2FFSUlHeUdpQWpnYklhSUNPQm9Sd2FRRDdBVHIyQTNRK2EwSHNCK2pZRHdoQkEyUTBRRWNEWkRSQVJ3TkMwQUFaRGREUkFCa04wTkdBRUNrMWdQMEFIZnNCT3ZZRFpFNE5ZRDhnQkEyUTBRQWREWkRSQUIwTkNKRlNBMWdMMHJFV3BHTXRTT2JVQU5hQ1FxVFVBT1lBSFhPQWpqbEE1dFFBNW9BUU5FQkdBM1EwUUVZRGREUWdCQTJRMFFBZERaRFJBQjBOQ0VFRFpEUkFSd05rTkVCSEEwTFFBQm5Yak5NNU5TQ2xQV0duQm5ETk9CME5DT0hTQUk0TDBuRmNrTTZuQVJ3WHBPTzRvQkEwUUVZRGREUkFSZ04wTkNCRVNnMXdXZ3RpUDBEbnRCYkVmb0NNL1FBZGEwRWhhSUNNQnVob2dJd0c2R2hBQ0pjR3NCYWtZeTFJeDFxUXpLa0JyQVdGU0trQlRuTUF4d1hwbk9hQWxCcmdOQWR3WEpDT09TQ0VTd09ZQTNUTUFUcWZCakFINkpnRFFxVFVBS2M1Z1AwQW5kTWN3SDZBalAwQUhYTkFDSmNHTUFmb21BTjB6QUV5cHdZd0I0UklxUUhNQVRybUFCMXpnTXlwQWN3QklXaUFqQWJvYUlDTUJ1aG9RSWlVR3NCYWtJNjFJQjFyUVRLbkJyQVdGQ0tsQmpqTkFSd2Jxbk9hQTFKcWdOTWN3TEdoT3VhQUVDNE5ZQTdRTVFmb2ZCckFIS0JqRGdoQkEyUTBRRWNEWkRSQVJ3TkNwTlFBMW9KMHJBWHBmQnJBV3BDT3RhQVFORURHY1VFNnB3WndYSkNNNDRKME5DQ0VTd05ZQzlLeEZxVHptUU5ZQzlLeEZoUWlwUVl3QitpWUEzVE1BVEtuQmpBSGhFaXBBY3dCT3VZQUhYT0F6S2tCekFFaFVtb0FjNENPT1VESEhDQnphZ0J6UUlpVUdzQWNvR01PMERFSHlKd2F3QndRZ2diSWFJQ09Cc2hvZ0k0R2hLQUJNaHFnb3dFeUdxQ2pBU0ZTYW9EVGZnRG5pT21jOWdOU2FvRFRmZ0RuaU9uWUR3amgwZ0RtQUIxemdNNm5BY3dCT3VhQUVEUkFSZ04wTkVCR0EzUTBJRVJLRFhCYUMrTFlVSjNUV2hESGhzbzRObFRIV2xBSWx3WXdCK2lZQTNUTUFUS25CakFIaEtBQk1ocWdvd0V5R3FDakFTRm9nSXdHNkdpQWpBYm9hRUFJR2lDakFUb2FJS01CT2hvUUlxVUdPTzBKYzM2QXptbFBPS1VHT08wSmMzNkFqajNoRUM0TllBN1FNUWZvZkJyQUhLQmpEZ2hCQTJRMFFFY0RaRFJBUndOQ3BOUUFwN1VnemcvUU9hMEZjWDZBalBNRGRLd0ZoVWlwQWV3SDZKd2FrTkljNE5RQTlnTjBOQ0NFU3dOWUM5S3hGcVR6YVFCclFUcldna0xRQUJrTjBORUFHUTNRMFlBUU5FQkdBM1EwUUVZRGREUWdCQTJRMFFBZERaRFJBQjBOQ0pGU0E1ejJoRGt1U09lMEo4eHhRVEtPQzlLeEp4ekNwUUhNQVRybUFCMXpnTXlwQWN3QklWSnFnTk1jd0xHaE9xYzVJS1VHT00wQkhCdXFZdzRJa1ZJRFdBdlNPVFdBdFNBWmEwRTZHaENDQnNob2dJNEd5R2lBamdhRW9BRXlHcUNqQVRJYW9LTUJJVkpxQVBzQk9xY0dzQjhnWXo5QVJ3TkN1RFNBNDRKMEhCZWs4MmtBeHdYcE9DNG9CQTJRMFFBZERaRFJBQjBOQ0pGU0ExZ0wwckVXcFBOcEFHdEJPdGFDUXRBQUdYdkNPcWNHc0Njc1kwOVlSd05DdURTQXRTQWRhMEU2bnptQXRTQWRhMEVoYUlDTUJ1aG9nSXdHNkdoQUNCb2dvd0U2R2lDakFUb2FFSUlHeUdpQWpnYklhSUNPQm9TZ0FUSWFvS01CTWhxZ293RWhVbW9BeHdYcE9DNUl4M0ZCTXFjR2NGeFFDQm9nNC93QW5WTURVcG9EbkJyQStRRTZHaERDcFFHc0JlbFlDOUw1TklDMUlCMXJRU0ZTYW9EVEhNQmFrTTVwRG1BdFNNWmFrSTQ1SUlSTEE1Z0RkTXdCT3VZQW1WTURtQU5DcE5RQTVnQWRjNENPT1VEbTFBRG1nQkEwUUVZRGREUkFSZ04wTkNCRVNnMWdMVWpIV3BDT3RTQ1pVd05ZQ3dwQkEyUTBRRWNEWkRSQVJ3TkMwQUFaRGREUkFCa04wTkdBRURSQVJnTjBORUJHQTNRMElBUU5rTkVBSFEyUTBRQWREUWlSVWdNNExrakhjVUU2amd1U09UV0E0NEpDMEFBWjF3dlNPVFVncFRuQXFRRmNMMGhIQTBMUUFCa04wTkVBR1EzUTBZQVFMZzFnUDBESGZvRE9wd0hzQitqWUR3aEJBMlEwUUVjRFpEUkFSd05DcE5RQTFvSjByQVhwZkJyQVdwQ090YUFRS1RXQU9VREhIS0R6YVFCemdJNDVJQVFOa05FQUhRMlEwUUFkRFFoQkEyUTBRRWNEWkRSQVJ3TkMwQUFaRGREUkFCa04wTkdBRUNrMWdEMWhIWHZDT3A4R3NDZXNZMDg0UkVvTllBN1FNUWZvZkJyQUhLQmpEZ2lSVWdPYzVnQ3VGNlJ6bWdPNFhwQ002d1hwbUFOQzBBQVpEZERSQUJrTjBOR0FFQzROWUMxSXgxcVFqclVnbVZNRFdBc0tRUU5rTkVCSEEyUTBRRWNEUXRBQUdRM1EwUUFaRGREUmdCQTBRRVlEZERSQVJnTjBOQ0FFRFpEUkFCME5rTkVBSFEwSWtWSURPQzVJeDNGQk9vNExramsxZ09PQ1FxVFVBT1lBSFhPQWpqbEE1dFFBNW9BUU5FQkdBM1EwUUVZRGREUWdCQTJRMFFBZERaRFJBQjBOQ0pGU0E5Z1AwTEVmb0dNL1FPYlVBUFlEUXRBQUdRM1EwUUFaRGREUmdCQXBOWUMxSUIxclFUcldnbVJPRFdBdEtFUktEV0FPMERFSDZKZ0RaRTROWUE0SVFRTmtmSWFNenFrQktjMEJUZzNnTTJSME5DQ0VTd05ZQzlLeEZxVHphUUJyUVRyV2drS2sxQURtQUIxemdNNm5BY3dCT3VhQUVDazFnRGxBeHh5Zzgya0FjNENPT1NBRURaRFJBQjBOa05FQUhRMElRUU5rTkVCSEEyUTBRRWNEUXFUVUFLZjlBSTROMVRudEIzQnNxSXhqUTNYc0I0UklxUUhzQ2V1Y0dwRFNIT0RVQVBhRWRUUWdSRW9OWUE3UU9UV0FPVURHSEtDakFTRmNHc0IrZ0k3OUFKM1BITUIrZ0k3OWdCQTBRRVlEZERSQVJnTjBOQ0FFRFpEUkFCME5rTkVBSFEwSWtWSUQyQS9Rc1IrZ1l6OUE1dFFBOWdOQzBBQVpEZERSQUJrTjBOR0FFQ2sxZ0xVZ0hXdEJPdGFDWkU0TllDMG9CQTJRMFFBZERaRFJBQjBOQ0pGU0ExZ0wwckVXcEdNdFNPYlVBTmFDUXRBQUdlY0o2NXdha05JYzROUUF6aFBXMFlBUUxnMWdMVWpIV3BET3B3R3NCZWxZQ3dxUlVnT2M1Z0RXZ25ST2N3QnJRVExXZ25UTUFTRm9nSXdHNkdpQWpBYm9hRUFJbHdhd0ZxUmpMVWpIV3BETXFRR3NCWVdnQVRJYW9LTUJNaHFnb3dFaFVtb0FhMEU2MW9KMHJBWEpuQnJBV2xDSWxCckFIS0JqRHRBeEI4aWNHc0FjRUlJR3lHaUFqZ2JJYUlDT0JvU2dBVElhb0tNQk1ocWdvd0VoVW1vQSt3RTY5Z04wN0FmSW5CckFma0NJbEJyQUhLQmpEdEF4QjhpY0dzQWNFSUlHeUdpQWpnYklhSUNPQm9TZ0FUSWFvS01CTWhxZ293RWhVbW9BK3dFNjlnTjA3QWZJbkJyQWZrQUlHaUNqQVRvYUlLTUJPaG9RZ2diSWFJQ09Cc2hvZ0k0R2hLQUJNaHFnb3dFeUdxQ2pBU0ZvZ0l3RzZHaUFqQWJvYUVDSWxCckFjVUU2amd2U2NWeVF6S2tCSEJjVUlxVUdNQWZvbUFOMHpBRXlwd1l3QjRSSXFRSE1BVHJtQUIxemdNeXBBY3dCSVdpQWpBYm9hSUNNQnVob1FBZ2FJS01CT2hvZ293RTZHaEFpcFFhd0g2QmpQMERIZm9ETXFRSHNCNFJJcVFITUFUcm1BQjF6Z015cEFjd0JJVkpxQUhPQWpqbEF4eHdnYzJvQWMwQUlHaURyWjI4M0h6NE5tR0J2Tmg5T0RVaHBEbkJxd0wzMmRuUGgxSURIN08zbWd3YUVjR2tBYTBFNjFvSjBQZzFnTFVqSFdsQUlHaUNqQVRvYUlLTUJPaG9RZ2diSWFJQ09Cc2hvZ0k0R2hFaXBBVTc3QWV3SjY1ejJBOWdUbHJFbnJHTS9JSVJMQTVnRGRNd0JPdVlBbVZNRG1BTkNwTlFBNWdBZGM0Q09PVURtMUFEbWdCQXBOWUE1UU1jY29HTU9rRGsxZ0RrZ0JBMlEwUUFkRFpEUkFCME5DRUVEWkRSQVJ3TmtORUJIQTBMUUFCa04wTkVBR1EzUTBZQVFLVFdBUFdFZGU4STY5b1JsVGcxZ1R6Z0VEWkRSQUIwTmtORUFIUTBJUVFOa05FQkhBMlEwUUVjRFF0QUFHUTNRMFFBWkRkRFJnQkFwTllBOVlSMTd3anIyaEdWT0RXQlBPQVFOa05FQUhRMlEwUUFkRFFoQkEyUTBRRWNEWkRSQVJ3TkMwQUFaRGREUkFCa04wTkdBRURSQVJnTjBORUJHQTNRMElBUU5rTkVBSFEyUTBRQWREUWhCQTJRMFFFY0RaRFJBUndOQ3BOUUFwL01EK3RuYnpZZlArUUVUN00zbXcrbjhnSlFhNEhSK3dMMzJkblBoMUlESDdPM21nL01EUXJnMGdEbEF4eHlnODJrQWM0Q09PU0FFRFpEUkFCME5rTkVBSFEwSWtWSURuTmFDdUZhRXpta3RpR3RGeUxoV2hJNjFvQkFwTllEOUFKMVRBMUthQTV3YXdINkFqZ2FFY0drQWEwRTYxb0owUGcxZ0xVakhXbEFJR2lDakFUb2FJS01CT2hvUWdnYklhSUNPQnNob2dJNEdoS0FCTWhxZ293RXlHcUNqQVNGU2FnQjd3anIyaEhVK0RXQlBXTWVlY0lpVUdzQWNvR01PMFBrMGdEbEF4eHdRSXFVR09NMEJuQitnYzVvRE9EOUF4dmtCT3VhQUVDNE5ZQTdRTVFmb21BTmtUZzFnRGdpUlVnT1lBM1RNQVRybUFKbFRBNWdEUXFUVUFPWUFIWE9BampsQTV0UUE1b0FRS1RYQWFRN2d1Q0NkMHh5UVVnT2M1Z0NPQzlJeEI0UklxUUdzQmVtY0dzQmFrSXkxSUIwTkNPSFNBTmFDZEt3RjZYem1BTmFDZEt3RmhhQUJNaHFnb3dFeUdxQ2pBU0ZTYW9EVFdoRDdBVHFudGFDVUd1QzBGc1IrZ0k2MW9CQTBRRVlEZERSQVJnTjBOQ0NFU3dOWUM5S3hGcVR6YVFCclFUcldna0trMUFDbk9ZRGpnblJPY3dESEJjazRMa2pISEJEQ3BRSE1BVHJtQUIxemdNeXBBY3dCSVZKcUFIT0FqamxBeHh3Z2Myb0FjMENJbEJyQUhLQmpEdEF4QjhpY0dzQWNFSUlHeUdpQWpnYklhSUNPQm9SSXFRR3NCZWxZQzlLeEZpUnphZ0JyUVNGU2FnQnpnSTQ1UU1jY0lITnFBSE5BaUpRYXdCeWdZdzdRTVFmSW5CckFIQkFpcFFZd0IraVlBM1RNQVRLbkJqQUhoS0FCTWhxZ293RXlHcUNqQVNGb2dJd0c2R2lBakFib2FFQUlHaUNqQVRvYUlLTUJPaG9RSXFVR3NDZXNZMDlZeDU2d3pLa0I3QW1IU0trQnpBRTY1Z0FkYzRETXFRSE1BU0ZvZ0l3RzZHaUFqQWJvYUVDSWxCcmd0QmJFWjhqb25OYUNVbXFBMDFvUW55R2pZeTBvaEVzRG1BTjB6QUU2bndZd0IraVlBMEtrMUFDbk9ZQTlZWjNUSE1DZXNJdzlZUjF6UUFpWEJqQUg2SmdEZE13Qk1xY0dNQWVFb0FFeUdxQ2pBVElhb0tNQklXaUFqQWJvYUlDTUJ1aG9RQWdhSUtNQk9ob2dvd0U2R2hDQ0JzaG9nSTRHeUdpQWpnYUVTS2tCSEJlazQ3Z2dIY2NGeVp3YXdIRkJJVkpxQUhPQWpqbEF4eHdnYzJvQWMwQUlHaUNqQVRvYUlLTUJPaG9RZ2diSWFJQ09Cc2hvZ0k0R2hFaXBBZXdINk5nUDBMRWZJSE5xQVBzQklWSnFBSE9BampsQXh4d2djMm9BYzBDSWxCckFIS0JqRHRBeEI4aWNHc0FjRUNLbEJqQUg2SmdEZE13Qk1xY0dNQWVFb0FFeUdxQ2pBVElhb0tNQklWSnFBR3RCT3RhQ2RLd0Z5Wndhd0ZwUUNCb2c0M1BFZEU0TlNHa09jR29BbnlPbW93RWhVbW9BYzRET3FRSE1BVExtQUIwTkNFRURaRFJBUndOa05FQkhBMEs0TklBOVlSMTd3anFmdFNEMmhIWHNDWWRJcVFITUFUcm1BQjF6Z015cEFjd0JJVkpxQUhPQWpqbEF4eHdnYzJvQWMwQUlHaUNqQVRvYUlLTUJPaG9RZ2diSWFJQ09Cc2hvZ0k0R2hFaXBBZXdINk5nUDBMRWZJSE5xQVBzQklWSnFBSE9BampsQXh4d2djMm9BYzBDSWxCckFIS0JqRHRBeEI4aWNHc0FjRUNLbEJqQUg2SmdEZE13Qk1xY0dNQWVFb0FFeUdxQ2pBVElhb0tNQklWSnFnTk5hRU5lTTB6bXRCYVhVQUtlMUlLNFpwMk10S0lSTEE1Z0RkTXdCT3A4R01BZm9tQU5DcE5RQTVnQWRjNERPcHdITUFUcm1nQkEwUU1aeFFUcW5CbkJja0l6amduUTBJSVJMQTFnTDByRVdwUE9aQTFnTDByRVdGSUlHeUdpQWpnYklhSUNPQm9TZ0FUSWFvS01CTWhxZ293RWhVbW9BK3dFNjlnTjA3QWZJbkJyQWZrQ0lsQnJBSEtCakR0QXhCOGljR3NBY0VJSUd5R2lBamdiSWFJQ09Cb1JJcVFGT2EwR2NINkJ6V2d0S3FRRk9hMEdjSDZCakxTaUVTd09ZQTNUTUFUcWZCakFINkpnRFFxVFVBS2M1Z0QxaG5kTWN3SjZ3akQxaEhYTkFDSmNHTUFmb21BTjB6QUV5cHdZd0I0U2dBVElhb0tNQk1ocWdvd0VoYUlDTUJ1aG9nSXdHNkdoQWlKUWF3SDZBanYwQUhmc0JNcWNHc0I4UWdnYklhSUNPQnNob2dJNEdoRWlwQWF3RjZWZ0wwckVXSkhOcUFHdEJJVkpxQUhPQWpqbEF4eHdnYzJvQWMwQUlHaUNqQVRvYUlLTUJPaG9RSXFVR3NCYWtZeTFJeDFxUXpLa0JyQVdGb0FFeUdxQ2pBVElhb0tNQklWSnFBR3RCT3RhQ2RLd0Z5Wndhd0ZwUWlKUWF3QnlnWXc3UU1RZkluQnJBSEJDQ0JzaG9nSTRHeUdpQWpnYUVvQUV5R3FDakFUSWFvS01CSVZKcWdOTitBSjhobzNQYUQwaXBBVTc3QVh5R2pJNzlnQkFwTllBOVlaMVRBOWdUbHJFbnJLTUJJVndhd0ZxUWpyVWduYzhjd0ZxUWpyV2dFQ2sxZ0RsQXh4eWdZdzZRT1RXQU9TQkVTZzFnRHRBeEIraVlBMlJPRFdBT0NFRURaRFJBUndOa05FQkhBMExRQUJrTjBORUFHUTNRMFlBUUtUWEFhVCtBWTBOMVR2c0JLVFhBYVQrQVkwTjE3QWVFY0drQWM0Q09PVURuMHdEbUFCMXpRQWdhSUtNQk9ob2dvd0U2R2hBaXBRWTRyUVZ4YktqT2FTMklZME5sSEJ1cVl5MG9oRXNEbUFOMHpBRTY1Z0NaVXdPWUEwTFFBQmtOME5FQUdRM1EwWUFRTkVCR0EzUTBRRVlEZERRZ0JBMlEwUUFkRFpEUkFCME5DSkZTQTlnVDFyRW5yR05QV09iVUFQYUVROUFBR1EzUTBRQVpEZERSZ0JBcE5ZQzFJQjFyUVRyV2dtUk9EV0F0S0VSS0RXQU8wREVINkpnRFpFNE5ZQTRJUVFOa1hDOUk1OVNBbE9ZQXB3Wnd2U0FkRFFoQkEyUTBRRWNEWkRSQVJ3TkN1RFNBL1FBZCt3RTZud2F3SDZCalB5QUVEWkRSQUIwTmtORUFIUTBJUVFOa05FQkhBMlEwUUVjRFF0QUFHUTNRMFFBWkRkRFJnQkEwUUVZRGREUkFSZ04wTkNCRVNnMXdPaTZJOHdOMFRzY0ZjWDZBalBNRGRCd1hGTUtsQWN3Qk91WUFIWE9BektrQnpBRWhVbW9BYzRDT09VREhIQ0J6YWdCelFBZ2FJS01CT2hvZ293RTZHaENDQnNob2dJNEd5R2lBamdhRVNLa0I3QWZvMkEvUXNSOGdjMm9BK3dFaFVtb0FjNENPT1VESEhDQnphZ0J6UUlpVUdzQWNvR01PMERFSHlKd2F3QndRZ2diSWFJQ09Cc2hvZ0k0R2hLQUJNaHFnb3dFeUdxQ2pBU0ZvZ0l3RzZHaUFqQWJvYUVDSWxCckFuckNPUFdFZGU4SXlwd2F3Snh5Q0JzajRIREdkVXdOU21nT2NHc0RuaU9sb1FBaVhCckFXcEdNdFNPZlRBTmFDZEt3RmhVaXBBVTV6QUd0Qk9xYzVnTFVnR1d0Qk91YUFFQzROWUE3UU1RZm9tQU5rVGcxZ0RnaEJBMlEwUUVjRFpEUkFSd05DcE5RQTFvSjByQVhwV0F1U09UV0F0YUFRTkVER2NVRTZwd2FrTkFjNE5ZRGpnblEwSUlSTEExZ0wwckVXcFBOcEFHdEJPdGFDUXFUVUFLYzVnTFVnbmRNY3dGcVFqTFVnSFhOQUNCb2dvd0U2R2lDakFUb2FFTUtsQWF3RjZWZ0wwckVXSkhOcUFHdEJJV2lBakFib2FJQ01CdWhvUUFnYUlLTUJPaG9nb3dFNkdoQWlwUVk0N1Fkd2JLak9hVDhncFFZNDdRZHdiS2lPL1lBUUxnMWdEdEF4QitoOEdzQWNvR01PQ0VFRFpEUkFSd05rTkVCSEEwS2sxQUNudFNDT0RkVTVyUVZ4YktpTVkwTjFyQVdGY0drQWM0Q09PVURISENCemFnQnpRSWlVR3VBMEI3QW5ySE9hQTFKcWdOTWN3SjZ3amprZ1JFb05ZQzFJNTlRQTFvSmtyQVhwYUVDSWxCckFIS0J6YWdCemdJdzVRRWNEUXFUVUFPWUFuVk1EbUFOa3pBRTZHaERDcFFIc0NldllFOWI1ekFIc0NldllFdzVCQTJRMFFFY0RaRFJBUndOQ3BOUUExb0owckFYcFdBdVNPVFdBdGFBUU5FREduckRPcVFFcHpRRk9EV0JQV0VjRFFyZzBnTFVnSFd0Qk9wOEdzQmFrWXkwb0JBMlEwUUFkRFpEUkFCME5DRUVEWkRSQVJ3TmtORUJIQTBMUUFCa04wTkVBR1EzUTBZQVFORUJHQTNRMFFFWURkRFFnQkEyUTBRQWREWkRSQUIwTkNKRlNBemcyVk1leG9UcWZCbkJzcUk1alEwT2sxQURtQUIxemdNNm5BY3dCT3VhQUVDazFnRGxBeHh5Zzgya0FjNENPT1NCRVNnMWdEdEF4QitoOEdzQWNvR01PQ0VFRFpEUkFSd05rTkVCSEEwTFFBQmtOME5FQUdRM1EwWUFRTkVCR0EzUTBRRVlEZERRZ1JFb05jTm9UNXRyUk9xYzlZYTRkTGVQYTBUcjJoRVBRQUJrTjBORUFHUTNRMFlBUUxnMWdMVWpIV3BDT3RTQ1pVd05ZQ3dwQkEyUTBRRWNEWkRSQVJ3TkMwQUFaRGREUkFCa04wTkdBRUNrMWdQMEFIZnNCT3ZZRFpFNE5ZRDhnUkVvTllBN1FNUWZvbUFOa1RnMWdEZ2lSVWdPWUEzVE1BVHJtQUpsVEE1Z0RRdEFBR1EzUTBRQVpEZERSZ0JBcE5ZQzFJQjFyUVRyV2dtUk9EV0F0S0FRTmtORUFIUTJRMFFBZERRaEJBMlEwUUVjRFpEUkFSd05DMEFBWkRkRFJBQmtOME5HQUVDazF3R2xQbU04UjB6bnRDYWZVQUtjOVlUNUhUTWVlY0lpVUdzQnhRVHFuQm5CY2tJempnblEwSUFRTmtORUFIUTJRMFFBZERRamgwZ0QyQTNUc0IraDgxb0xZRDlDeEh4Q0NCc2hvZ0k0R3lHaUFqZ2FFb0FFeUdxQ2pBVElhb0tNQklXaUFqQWJvYUlDTUJ1aG9RSWlVR3NDZXNJNDlZUjE3d2pLbkJyQW5ISUlHeURnL1FPZlVnSlRtQUtjR2NINkFqZ2FFU0trQnpBRTZwd1l3QjhpWUEzUTBJSVJMQTlnUDBMRWZvUE9aQTlnUDBMRWZFSUlHeUdpQWpnYklhSUNPQm9SSXFRRk9hMEhzQitpYzFvSlNhb0RUV2hEN0FUcldna0xRQUJrTjBORUFHUTNRMFlBUU5FQkdBM1EwUUVZRGREUWdCQTJRMFFBZERaRFJBQjBOQ09IU0FQYUVkZXdKNjN3YXdKNndqajNoRURSQVJnTjBORUJHQTNRMElFUktEWEJhQytJY01aM1RXaERuaU1rNFIwekhXbEFJR2lDakFUb2FJS01CT2hvUXdxVUJyQVhwV0F2U3NSWWtjMm9BYTBFaFVtb0FjNENPT1VESEhDQnphZ0J6UUFnYUlLTUJPaG9nb3dFNkdoQ0NCc2hvZ0k0R3lHaUFqZ2FFU0trQjdBZm8yQS9Rc1I4Z2Myb0Erd0VoYUlDTUJ1aG9nSXdHNkdoQUNCb2dvd0U2R2lDakFUb2FFSUlHeUdpQWpnYklhSUNPQm9SSXFRSHNDZXZZRTlheEp5eHphZ0I3d2lGU2FnQnpnSTQ1UU1jY0lITnFBSE5BaUpRYTREUUhETE8zbXcrZk9hQ3Z2ZGw4T00wQmMrenQ1bUtXdmRsY09NMEJlOXZiellWVEEvNWtiemNmekFFaFVtb0FhMEU2cHdhd0ZpUmpMVWhIQTBLNE5JQzFJQjFyUVRyV2dtUk9EV0F0S0FRTmtORUFIUTJRMFFBZERRaVJVZ09jMW9MNExFbWQwMXBRU2cxd1dndmlzeVIxckFXRlNLa0I3QWZvbkJyQWZvQ00vUUFkRFFqaDBnRFdnblNzQmVsODVnRFdnblNzQllWSXFRRk9jd0JyUVRxbk9TQ2xCampOQWF3RjZaZ0RRcmcwZ0RsQXh4eWc4MmtBYzRDT09TQkVTZzFnRHRBeEIraDhHc0Fjb0dNT0NKRlNBNWdEZE13Qk9wOEdNQWZvbUFOQ3BOUUFwem1BNDRKMFRuTUF4d1hKT0M1SXh4d1FJcVVHc0Jha2MycEFTbk9BVXdOWUM5SWwxb0JzMENVOTdFUE1RVW9OWUE3UU9UV0FPVURHSENEcTlMN1BVcEJqQTdJc20zelFlUHRBcTQwR3lHaUFqZ2JJYUlDaXkvdXo3VzNteDdNQldUWjhyNXkzaG1pQWpBYm9hSUNNQmxSczZQc2IyeHZNbFc4RHNpeDc2NEUyOWpGWEVRMlEwUUFkRFpEUmdNb012V1N5dmJXOHVUY2d5N0xSdStWMlBDSU5rTkVBSFEyUTBZQktuSHlLdlNrSHRXaEFsbVhiclBTcGZmaFZRUU5rTkVCSEEyUTBvRmx0ZGh0Z2I4aEZqUnFRWmRtaEs0MnhUMExMMFFBWkRkRFJBQmtOYU5vYi8ycHZiOFZMN1JxUVpkbTUwN3ZhcDZLRlVtb0E1d2ZvbkJyQStRRXl6Zzlvd3I1ejM3STM0YWltRGNpeTdPMnI3UFBSSWlrMWdEbEE1OVFBNWdBWmMwQmpKa3pmelA1OFg3VnVRSllOMlBLdjlsa0pSd05rTkVCSEEyUTBvRUZEaitwdGY3aTcyamRnNGZHaXR3MjBUMDRZbHdad3pUZ2QxNHpUK2F3RmNjMDRYWld1R2RmNjVOVTN0ei9hbjlzMTQ1cnorR3NqN0RNVXdxVUJ6QUU2NWdBZGM0RE1xUUhWbUFPRzdyUzYvYkUxRWtzRHNpeGI5MjliMmVkSlJnTmtORUJIQTJRMG9MNnVtL3I4Q1ZVa29nWmtXVFpybncvV3NFK1h4S1VCckFYcFdBdlNzUllrYzJwQXk5YUNlcHozM2k3Mko5WlFOR3RCaXcxdXU3ZDl6Z1F1RFdBTzBERUg2SmdEWkU0TmFNRWMwSFhZaS9hbjFWcDBEY2l5N1BCdkI1ODk1dElBNWdBZGM0Q09PVURtMUlEUU9XREgwOWY2Z2YxWk5SZmZIRkNuMThzVDdQTlhFUm9nb3dFNkdpQ2pBYTNlUEdlVy9VRXhpTFVCV1piMXZtcW9mUktiNTlJQTFvSjByQVhwV0F1U09UVWdZQzNvb2E4Y1lYOUtMT0p0UUpadC9zaHo2alRnMGdEbUFCMXpnSTQ1UU9iVUFIVU9XSDd1ZXZaSHhDUGlPYURPaThQNjJDZTBLUzROWUE3UU1RZm9tQU5rVGcyUTVvQS83L2U0L2Y2NHhONkFMTXUrdDZkOVZodEhBMlEwUUVjRFpDVnRRSS81RzlwdmprNEJHcEJsN2UvWWN3djc1RGJNcFFHc0JlbFlDOUt4RmlSemFrQ0ZhMEcvL2VqaEEreTN4aWY2dGFCRnpwemN6VDdERFhGcGdOTWN3TFdqZFU1elFFb05jSm9EU25mdDZDazl6N2ZmRnFtaU5HREJ0U1QyKzdWOW5wZVNVZ05ZQzlJNU5ZQzFJRm5KMW9MNjMyTy9KMTRGYWtDV1pYZC9OTk0rMlV1aUFUSWFvS01Cc2pJMW9NMWozZTEzeEt4WURWaHdvTkRMUGV4VFhnOE5rTkVBSFEyUWxhWUJXNTlUc3crRkRGUzRCbVJaZHMrVGpaNDlSZ05rTkVCSEEyVGxhTURaM3o3VmZtMzhpdGlBTE11dXZMN2gwd1pvZ0l3RzZHaUFyQVFOMk9OSGg5b3ZMSVNDTmlETHNoUDdOWEFTTVEyUTBRQWREWkNsM29BMkR4UndBcWhUM0Faa1diWjl2NStiM3dRTmtORUFIUTJRSmQyQXY2NWR0RDJBK2dyZGdDekxidW8vdnY0dkk2VUdjSDZBenFrQm5COGdTL2Y4Z0VPZWY4dis5MklwZWdPeWJQQ2p2L3ZmRnJGTEF6aFBXTWQ1d2pxZkJuQ2VzTzUvNXduL3VhQjdBUFVVNWp6aEpyVTdZN2xyNm40bE5FQkdBM1EwUUpaaUF6cCtGdTMxb0FWcE5HREI2MlhRd28rZ2RHbUEwMW9RK3dFNnA3VWc5Z05reWUwSC9PYUp1KzAvRjFRcURWand2K2RmNlVnRGREUkFSd05rYVRWZzZ2VUZ1aFpFY3hKcVFKWmx4N2ljbzAwRGREUkFSd05rVGcyNHRwMzlseUpMcXdFKzJBL1FzUitnWXo5QTV0U0FwQ1N6SCtDSkJ1aG9nSTRHeUdpQWpnWUVZQzFJeDFxUWpyVWdHUTBJUUFOMHpBRTY1Z0FkYzRDTUJ1aVlBd0l3QitpWUEzVE1BVElhRUlBRzZKZ0RkTXdCT3VZQUdRM1FNUWNFY0pvRHVGNlF6bWtPU0trQlRuTkFVdGNMU2dzTjBERUg2SmdEZEQ0TllBNG9PZWFBQURSQVJ3TjBORUJHQTNRMElBQU4wTkVBSFEyUTBRQWREUWpBZm9DTy9RQ2RUd1BZRHlnN0dxQmpEdEF4QitoOEdzQWNVSExNQVFHWUEzVE1BVHFmQmpBSGxCME4wREVINkpnRGRENE5ZQTRvT2VhQUFEUkFSd04wTkVCR0EzUTBJSURUV2hEWGl0QTVyUVZ4clFnWjE0cUlGZzNRMFFBZERkRFJBQmtOQ0VBRGRLd0Y2VmdMMHJFV0pLTUJPdGFDQWpBSDZKZ0RkTXdCTWhvUWdBYm9tQU4wekFFNjVnQVpEZEF4QndSd21nTTRQMERuTkFlazFBQ25PWUR6QTZKRkEzVE1BVHJtQUoxUEE1Z0RTbzQ1SUFBTjBORUFIUTJRMFFBZERRaEFBM1EwUUVjRFpEUkFSd01Dc0IrZ1l6OUE1OU1BOWdQS2pnYm9tQU4wekFFNm53WXdCNVFjYzBBQUdxQ2pBVG9hSUtNQk9ob1FnQWJvYUlDT0JzaG9nSTRHQkhEYUQrQThZWjNUZmdEbkNjczRUemhhTkVCSEEzUTBRRWNEWkRRZ0FBM1FPVFdBNDRKMFRnMUlhUzNJcVFFY0Z4UXRHcUJ6YWdCemdNNnBBY3dCTXVhQWFORUFIWHZDT3ZhRWRUNXpBSHZDSmNlZWNBQ25PWUMxSUozVEhKQlNBNXptQU5hQ29rVURkTXdCT3VZQW5VOERtQU5LamprZ2dOTWN3SDZBem1rT1lEOUF4bjVBdEZyOWJLVDlKelNEQnVob2dJNEd5R2lBN3ZWV3JWcGRmNlQ5VnpUSnFRSHNCK2ljR3BEU1dwQlRBOWdQaU5Md0c5K29lK1pHblg2SC9XOW9IQTNRMFFBZERaRFJBRVgzbDlyVWYvSjZmSGEvL1FvMHdxa0JyQVhwbkJyQVdwQ010YURZYk56NVEvdjB0ZnJaVTczdGw2RWhORUJIQTNRMFFFWURLak40cjJWYTIrZnVTMTNPTzlkK05aWkNBM1EwUUVjRFpEU2dFcWQwczgvYmtuNzlMQWNLTmNPcEFld0g2Sndhd0g2QWpQMkFTSno3UWhmN3JEWGdyclhiMjI5RVBVNE5ZQTdRT1RXQU9VREdIQkNEdnp6UjBUNWxqZG14MjV5TjdMZGpFYzRUMW5HZXNNNW5EdUE4NGJKb2Y4NXA5dmxxMmsvLzBjditETlJoRHRBeEIraVlBMlEwb0ZGdmo3TlBWaVgrUHZZSSs0TkFBNExRQUIwTmtOR0FocjMzWkIvN1ZGWHMzM1BQc2o4T3JBWHBXQXZTc1JZa293RkwyNlgzYzVYc0FqZmw3RzMzdHorMTVKZ0RkTXdCT3VZQUdRMHcyczE0c3F0OWtvSmMrTkhLOW1lWEdRM1EwUUFkRFpEUmdQb0dEMXB6cW4yR1d1Q1hyKzFxYjZHMFdBdlNzUmFrWXkxSVJnUCs1OWc3bDc0V1JFdGQvNFc5bFpKaUR0QXhCK2lZQTJRMDRFdnRKLzNhUGpmVk1lRzgveHhnYjZ5RW1BTjB6QUU2NWdBWkRWamdyVWxiWFdPZm1TcnFPK3hGZTR1bDR6UUhjSzBJbmRNY2tGSURuT1lBcmhYaFpQUlhUN0xQU3ZVTjZmQXJlN3Zsd2h5Z1l3N1ErVFNBT1NBaDdSNWRaa2Y3bk9Ua2lxL09zcmRlSXN3Qk91WUFuVThEbUFPUzhaOFRSdGtuSkZlMzN6SFkzb1d5Y0dvQWU4STZwd2F3Snl4alR6aG5IMy8wVS90czVHLzhWV3ZaKzFFT1RnMWdEdEE1TllBNVFNWWNrS2QzSzc4ZWFMVzF2bVQxemUzZFNSLzdBVHIyQTNRK0RXQS9vT2orMG1FRCt6ejR1dmhPbjhFNElzd0JPdVlBblU4RG1BTUtiY050SDdKUFFpMWMzUC9LZHZhdXBZdzVRTWNjb1BOcEFITkFjZlY2SW9vQTFHbDl5ZXIyL3FXTE9VREhIS0R6YVFCelFFRzllL1NGOXVIWFd0ZGZQR3p2WmFLWUEzVE1BVHFmQmpBSEZORXRONCt4anowT0hUdThidTlyaXB6bUFJNE4xVG5OQVQ1YllCd2JLaXRIQTBZZk9NSSs4SmljOXV6aDloNG5od2JvYUlDT0JzaEswSUIyZTMxZ0gzVjh0dHB0dEwzZmFhRUJPaHFnb3dHeTVCc3c1K1RXOWpISGFjY1AyZzZ3ZHo0aDdBZm8yQS9Rc1I4Z1M3b0JHL1hlSWZ4VGdXdGcvTGpKOWlFa2d6bEF4eHlnWXc2UUpkeUEyUzMrVk9BYUdOci9GUHM0MGtBRGREUkFSd05rcVRiZ3haZG4yb2RhRkJkditzaHE5dUVVSDJ0Qk90YUNkS3dGeVZKc3dMUVgvOWpEUHM1aTZmUCtpZlpCRlozVEhNQTVZanFuT1NDbEJqak5BWndqRnViQkZ3bzdBZFEzNWJBajdDTXJOS2NHc0Jha2Myb0FhMEV5MW9JQ3ZEVTMwalBCUXV6eFFFSWZPc05ha0k2MUlKM1BITUJhVUtRRzM5SG1PdnY0aW0zSFBTZW5jcGxwR3FDakFUb2FJRXVtQVJ2ZDFIK3FmWEFwNlBQYzdHbjJzUllSRGREUkFCME5rQ1hTZ0FjL21tQWZXVHFtUE5ITFB0N2lZVDlBeDM2QWp2MEFXUW9OZVAxSG5lekRTazNIUDZ4cUgzWEIwQUFkRGREUkFGbmhHOUNyNS9mdFkwclRmMy95SC92WWk0UUc2R2lBamdiSWl0MkFGMStJN2hNQjhqVHpEK2ZiWjZBdzJBL1FzUitnWXo5QVZ1QUcvT1d3SWZiUnBHL00zRzNzODFBTVRuTUE1NGpwbk9hQWxCcmdOQWR3amxoVERyOTVIZnRReXVLdUI5cmJaNk1BbkJyQVdwRE9xUUdzQmNsWUMycFUrMGxSZnlSTTdyNHpzWGlYbVdZdFNNZGFrTTVuRG1BdHFLWUd0RjN1Ty9aUmxNL1VWK2ZZSnladXpBRTY1Z0FkYzRDc2FBMlk4V3FTWjRLRjZQcmNGL2JaaVJnTjBORUFIUTJRRmFvQkd4ZnJJMkh5Ti9PamMrMXpGQ3ZXZ25Tc0JlbFlDNUlWcHdISDlrdjRWT0J3RDNVb3h2VkZtUU4wekFFNjVnQlpRUnF3LzJHbE9oRkE4Kzl2ajdUUFYzeVlBM1RNQVRybUFGa1JHbkRFMklRdUNKMlBFWS9GZnJ3b2M0Q09PVURISENDTHZnR1BMN3U4dmM5b3dIY21IbitjZmU1aXdoeWdZdzdRTVFmSTRtN0FyTjFPU3V3VEFmSTBmdHpiOWdtTUIzT0FqamxBeHh3Z2k3Z0JnOXY2UEFVcEdYWFVrZlpwakFRTjBORUFIUTJRUmR1QXRUNFpiKzhyS3RIM3ZPMWovTkFaMW9KMHJBWHBXQXVTUmRtQVhYYmVkSlM5bzZqY2xQVWZ0RTlwelRFSDZKZ0RkTXdCc2dnYk1IdVRMdlplUXRYcDhsL1o1N1cybUFOMHpBRTY1Z0JaYkEyNCs0V1o5aTRpekduUEhtNmYzUnB5bWdPNGRyVE9hUTVJcVFGT2MwQUpyeDE5YUlkOTdmMURTNHpZYmJSOWptdkZxUUdzQmVtY0dzQmFrS3hzYTBIYnpEM0Uzam0wMkk3TDNUallQdE0xd1ZxUWpyVWduYzhjd0ZwUTliMzExUlhzUFVPVlRMMCtoc3RNTXdmb21BTjB6QUd5R0Jvd1lNczI5bTZocXJxZU45cys2ZDZjR3NCK2dNNnBBU25OQVU0TktNdCt3QmtIMmZ1RUhFeVpmNHg5NWwwNU5ZQTVRT2ZVQU9ZQVdTbm1nSnQyR21ydkVmSXladTUyOXZuM1F3TjBORUJIQTJTMWJNREtuZnZhdTROOHJYRE9LL2EzNElROVlSMTd3anFmdFNEMmhLdGh3eWVHMlBzQ0R4L2MyTTcrTGp3d0IraVlBM1RNQWJMYU5HRGs4K3ZZT3dJM3JYYzZjaVA3RzhrZGM0Q09PVURISENDclFRTkcvKzJrZ2ZadXdOZUVQM3AvRURFTjBORUFIUTJRZVRkZzg4bHJybUh2QTJyaGx4MzJ0NytjUExFV3BHTXRTTWRha015M0FYT2U0bnFnRWRuM3NJL3RieWczTkVCSEEzUTBRT2JZZ0xXdTRqalE2UHgyZmFmVEJwd2E0SFNPMkswZjJodk9BK2VJNlZ6V2d2bzZmV0JmV3VlSTdUWE81VlVEM2FmUHJtdC9Xemx3YW9EVEhKQmxtNzN3WFh2YlZjY2NvTXQvRHBneTlueDdvM2xKYUE1NGNaTSs5bllSazRtUDJsOVoxYVhXZ0N6TGRuNHE1ejlyR3FETHVRSHpYbmpSM21LT1VtbkExeTcvamIxUlJLZjF5VFBzTDY2NkVteEFsbVZ2NzJudlFEWFJBRjJlRGJoNHAzdnN6ZVVyaVFac3M5L3k5aFlScVl2NzUva3FUYk1CV1RiNGpIRzVmZkExRGREbDFvQStUL2s4Z1BxSzM0QmJYaUlBeGRMbnp2ZnNMN0ZhVW0zQWdnenNzNVc5RzlWQkEzUTVOZUQwNzlrYjhsRHdCcXo3RXA4SVVFUjlPMzgremY0dXF5R3RjOFNzeDIrOUs0ZnpIamxIVEpmRGNVSFgzSDdncnZabWZCVDVITEZySi8wNGg1Y0VmUHozb3h4T0lrNTREcWp6K1BPZDdKMXBLZVlBWGRYbmdEMG0xZTd6V0FzN0IzVC9GeDhKVTNUN2ZuYXAvYlcyVVBJTnlMTHMzTTVkN1AxcEVScWdxMjREZnZxSERlME5lQ3BtQTlvOXVveTlDUlRTYVM4OWJuKzVMVkdHQml3NFh2VDZxZll1aGFNQnVpbzJZT2hSem9jQkxhV0lEWmh6Zld0N0F5aXVObTJyOTNuMEpXbEFscDE1UnRYK0w0Z0c2S3JXZ0QwbjJ4L3RyM0FOV0xuS2t6QnFiM3ovbmUydk9WQnBHckR3UUtIcWJPYlJBRjExR3JEY29EUHRENjZGWWpYZzBnNThKRXlhdXU2dzgycjJ0eDBnN2VPQ2x2TE84Y3RzWWUrYmpPT0NkQzAvTG1pTlpZNS94LzdVR3FuTy8wbzBweW9OT0hTbFErelBSVUw2SERYSC9zcGxaWm9ENnB6NXpLc3RYQmxsRHRDMWNBNzRjRndWMXo5YnJDaHp3THNkdm05L0tKTFQ1NFFXWG1hNmZBMVlZTWFtTGJsWU9nM1F0YVFCcmE5ZjNmNjQyaXBFQTk3YTc5ZjJKeUpSMzMrdEpkY1hMV2NEc2l5YkhQNUNwZ0c2OEFhMGVhWW1IN1RkbFBBL0hVV0xHbkRsTit5UFE5S1dPY1ArQ1ZTc3RBMVk4RDlLWjl1N1dSa2FvQXRzUUtlNUkrMVBpa0RzRFRoMitzL3NEMFB5aHU2MDh5NzJMNkVpSmRzVE52WmZ2NGU5cHhWZ1QxZ1hzaWZjNVNkMzJ4OFRoNmozaEk4NW1zT0F5cXJ2SmtmYVA0Y0tsSGdPcUxOeHYzbjJ6amFIT1VBbnp3Rjkzei9GL294b3hEc0g5T293eHY0WWxNckZKNjgxM1A1Vk5LUDBEY2l5N082ZXY3VDN0MGswUUtjMVlONUhuOXNmRUpOSUcvRDV5MHdBYU5YcXc2TytrSzR2V3U2MW9NVStIdGJWM3VYR3NSYWtFOWFDcG01Nnp3SDIyK01TNDFyUWVrSExta2pUa0cyM3NYOGdqV01PV0dUMTY0ZmFlOTBJNWdCZHhYUEF4SDlGY1Nwd2s2S2JBN3F2L2FiOWJwVGNpRW50N1o5SkkyaEFQWSs4WDlGbFZXaUFycUlHak85MjlYSDJHMk1VVndQYW5iR20vVlpnd2Y5UFhkM2QvckUwaEFZczZaVFQ3VjFmR2czUVZkQ0F1L2FKNkZUZ0pzWFVnRk80SGlnYWQvdmF6VjltbWdaWTErNzNiM3Z2RFJxZ2E2NEJNK2NmYXI4bFhyRTA0TGhudW4xb3Z3dFkwcHZuRExCL09FdWlBUTA0dE1NRzlnSFVSd04wVFRhZ3l5cXo3ZGRITFk0R3RIM2FmZ2ZRa0tsSE5mbjZjbXJBTUh1N3NldDEyQlQ3R0JicmE3ODRIMDROYVBsMUJ5c3h5OTdzWWtNM0RUbXZwYWIydG84aEYwMDI0UDd6K3RpdkJ4cjFtNHNhbjdPZEdsQ3NPYURPN0UwYTJTRm1EdEExTmdkODQxSDdsUVZRNnpsZ3UyOXlQVkNvenQ1OU8vdUhWTWVwQWYzczdSYkR3K3MzZE5iTkJQdGwrWEJxUU8zT0Q3ajRrdThWWlJkNFNmZmFSNUtMUmhwdzZxMy90RjhKVk9UVERzZllQeWUvQmhSeERxanpiczlPOXNFd0IraVdtZ011M3RUbmh2TlF1em5nOWJHWDJTOERCR08yUGNMK1VkR0E1dldhditRcG1EUkFaeHB3VldTZkNLQ3BVUU51bWR2Y0VXdEE4OTc4MDVLbkRUZzFvS0JyUVl2ZFUvL3NNZGFDZFBYWGd0cE1xdWpVbFhqVllpMW84Q1NXZ0ZBdFZ4MWM3ME01bkJwUTZEbWd6b25ERmgySndSeWdXendIdE5tbjBsUFk0K1UrQjdRNytLcng5ajhETGRDNi8zOFcvWFhSQU1Ia1Z4ZWVra01EZEhVTk9DM0tqNFNST1RmZ25rczRFd3pWTitTd1hndi92bWlBNW93Mk5DREVycTFhOWRpMmtXUFRDc2V6QVIvUGIveEVGYUJsWmo2MXVsc0RDbmVPV09PMm16dk8vbE0rbkJyZ2M0NVk5eDE2MjM4cUxxOXp4TTdjNitRSjlsK0JxdXJTODN2Mm4vS1JVQVBjSk5XQXBQZzBvRlUvbG9DUWptVFdnaHc1TmNCbkxTZ3BQbXRCUUVwaS94eXhHQ1gxT1dKSjhma2NNU0FsTkVCSEEySkZBd0FWRGREUmdGalJBRUJGQTNRMElGWTBBRkN4SjZ4alR6aFc3QWtES3VZQUhYTkFySmdEQUZYUnJ4bFhDMDV6QUEyUStWd3pEa2dKYzRDT09TQld6QUdBaWdib2FFQ3NhQUNnb2dFNkdoQXJHZ0NvYUlDT0JzU0tCZ0FxR3FDakFiR2lBWUNLQnVob1FLeG9BS0NpQVRvYUVDc2FBS2hvZ0k0R3hJb0dBQ29hb0tNQnNhSUJnSW9HNkdoQXJHZ0FvS0lCT2hvUUt4b0FxTGh1cU03cGVrRmNOMVRHZFVNQkZYT0FqamtnVnN3QmdJb0c2R2hBckdnQW9LSUJPaG9RS3hvQXFHaUFqZ2JFaWdZQUtqNURSdWUwSjB3RFpIeUdES0JpRHRBeEI4U0tPUUJRMFFBZERZZ1ZEUUJVTkVCSEEySkZBd0FWNTRqcG5QWURPRWRNeGpsaWdJbzVRTWNjRUN2bUFFQkZBM1EwSUZZMEFGQ3hGcVJqTFNoV3JBVUJLdVlBSFhOQXJKZ0RBQlVOME5HQVdORUFRTVZha0k2MW9GaXhGZ1NvYUlDT0JzU0tCZ0NxZVhPUHN5OGtOSU1HeE9ud283dlk1eEJBczhaL3NzOWI5dFdFcGpnMWdQMEF4YVgzdldHZlFBQ1ZldVAzMCt4ckNvMWlUemcyUDlqeWgvYlpBeUQ1NlpNSEQ3ZXZMRFRNYVE1Z0xhZ3lzN2JzZHJGOTdnRG94aDgwMmI2ODBCQWFFSS9SZjl2S1BtOEFndlU1WVZYN0lzTlNXQXVLeEM0enV1MW9uelVBTGJQdlJSdmFseHFXUkFOaWNNRG5uVGtNQ01qRklmdXRhMTl3cUllMW9OcTdkUDJaOXZrQ1VEM2Z1TksrNkxBWURhaXg3Z2UrYVo4c0FGWFc5Ymt2T0Y2MFlhd0YxVks3NzYyNWhuMnFBT1JoM2tmSDJoY2dtQU5xNnBSTmg5cm5DVUIrNXYxeGUvc3FCQTJva1JrbkV3REEzWVFkNW14dVg0emx4bHBRRGV4NngwRlQ3VE1Fd0VmclM3NndMOGt5WXc1dzE1YUxBUUcxOVp2ZHI3V3Z5OUppRHZCMTZBdWNDQUJFWU0rcno3U3Z6bkppRG5EMDFuMTMyU2NHUUkxc3NjelYzZTFydElTWUE3eU1YUGF1Z2ZacEFWQkxXNHhiZlRYN1NpMGJHdURpblFOL1RBQ0FDSFU5citTbkRkQ0EvSzAyNDlVdDdCTUNJQllkZTViNXduSTBJR2ZUUHY4RnU4QkE1RDY5ZVR2NzBpMExHcENyQi8vQjVlQ0FRbmp6dFZQdDY3Y1VhRUIrOXI5b0EvczhBSWpXd0x2dSs1WjlGYWVQQnVSa3ZjOGVzazhDZ01nTnZPM1dzazBETkNBUCszLzJmL1laQUZBTVYreFhxcjBCR2xCMXZaNWdBZ0FLN1lwelhyR3Y2MlRSZ09yNjJyYjcyc2NPb0hDKzg4SFhoOXRYZDVwb1FCWE5tclNDZmVBQUNtcm9VVWZhbDNpS3VGNVF0YlJyKzRGOTFBQUtyZThxTHliL0VaVE1BVld4MnB5VFc5dkhES0Q0aHR4d3ZuMjVwOFZwRGtpN0FWOTA3bW9mTUlCVWJQQ1Y5ZXhyUGlITUFTMTE3UFFKOXRFQ1NNdS81eDVoWC9tcGNKb0RVdDBQdUgvK0VQdFFBYVRvN0p1L1psLy9TV0FPQ0hmK1lSZmF4d2tnWFgvZWZVWDdMbEI4TkNBUUZ3TUNTbWlGM1ViYjk0S0Nvd0VoSHYvMkdQc0lBWlRDRnVOTzJjVytJeFFaRFpDZDJmYnA2K3pqQTFBZVhUNDYxNzR0RkpmVG5uQTZEVGp4ZlU0RUFFcXYwOWhVTGl6SEhLRFlmejRmQ1FOZ2dZRzNQZmFPZlljb0locFFzY1AzVzhjK0xBQWx0c1p5L3lyKzlVVnBRR1Z1dVhVRW13QUFqR3UyZnVCeCsyNVJMRFNnQXIrNmVRLzdnQUNnemo5dm5XWGZNd3JFYVUrNHdPY0pielAzVS90b0FLQ2VhNTQrZm9COTV5Z0s1b0FtdlRMcG4vYWhBTUJTcHI0Nng3NTlGQU56UU9QYVBUUFJQZzRBYUVUWDUvNXpnSDBYaVI5elFDUDRSQUFBcXBrdjNHL2ZTbUpIQXhveWJmWXZ1dGlIQUFETisrVzJ4YnJNTkd0QlN6dC8vaFI3L3dHZ1VtYy9POUsrcThTTE9jQTRhOXRPOXM0RGdHYkVZKzN0ZTB1a21BUHFlL3kxNWUwOUI0QVF5OTB4Mkw3RHhNaXBBVVdZQTBidnRyVzkyd0FRYlB3bmEyMXUzMmVpdzFwUW5RRnRsOXZSM21rQWFKbFJUL1cyYnphUmNab0RJbDhMV3YycXFmWWVBMEExOUQxdisybjJMU2NpekFFYjlYNnlqNzI3QUZBOVU5YVA5N1NCc3M4QkQzZnVhKzhyQUZSYnA4OWV0KzgrY1NqMUhOQ0xFd0VBZVBuMzdyZlk5NkFJbExjQmwxN09pUUFBWE4zMVFIU1htUzdwV3REaHo1NW03eUlBNU82YXB3ZDF0KzlITlZYR09lQ1ZTYmNOdEhjUUFKeXNPZG0rS2RWUTZlYUF3VzI1SURTQTJocmFmMmY3MWxRckpXdkEyK1BHMjdzR0FQNzZkbzdqdElFU3JRVnQxUHZKVWZaK0FVQ3RUSmwvdm4yYjhsZWFPV0RWNlQrM2R3b0FhcXZUU3JYK3RJRnl6QUViUHRIUjNpTUFpTUh5dDM3THZtTjVLc0VjY012dVo5dTdBd0RSdUs3Tm9PUHMrNWFiMU9lQVhYY2J3WEdnQUNJM2Z0emJQN0R2WGo2U2JzRHdNNWJoZ3RBQUNxSFBjN1B0VzVpSGhOZUMzdHQwcUwwYkFCQ3ZLVWZ2YjkvSGNwZnFISEQveXhQc2ZRQ0EySjM5N1czc3UxbStrcHdEanZqUjMrMGRBSUJpV1A3NTdleDdXbzdTYThCWll6a01DRUNoSGJMU2V2YWRMUytKclFVZDArSDc5cVlCb0hnTzJjL250SUdVR2pEeVpqNFJBRUFxcnBuNHpIRDdMbGQ5eVRSZzhCMXRyck8zQ2dCRk52U0VlK3hiWGJVNTdRZmszWUNkbjV4cWJ4SUFpcS9MQ1J0dlpOL3dxaW1CT1dDWEkzZm9ZMjhQQUZMUjk3a1Q3ZHRlOVRqTkFma2RGM1RQVTEzdGpRRkFXaWIwZXpHblR4c285Qnd3YmZZcVhld3RBVUNLZnJ2K3gvWXRzQm9LUEFlcytzSi83YzBBUUxyMjdYQ29mUjlzc2FMT0FSdjI1Qk1CQUpUT3YzZS94YjRidGt3aEc3RE44NGZZR3dDQWNoZ3hxYnQ5VDJ5QjRxMEZqWjUwbC8zcEFGQWlhNXcrZVhQN3poaXFZSFBBNXBOUDV4TUJBSlRlcUJQZXMyK1BZWnptZ09vMDRMMFRSdGtmREFEbDFQWEpSNnJ3MldPRm1RTis4TWlkbkFnQUFQVmMvTlNSOXExU1ZaQTVvUGRURjlzZkNRQ1kxL01DKzM0cGNXcEFpL2FFTCtnNXovNDhBRUNkRWNjUHR1K2FsWXUrQVlPUEgyRi9HQUNnbnZIakRnNDlVQ2p1L1lETjEvcGt2UDFSQUFCcjFGRmhXd014endIdlBjbGhRQUJRb1Q3OUR6N1R2bzAySzlZNVlQamJtM0lZRUFCSXhxLzVqSDB6YlliVEhDQTI0Sm1EUHJRL0FRRFF2RDRuU05jWGRXcUFzaGIwOFhuZnRkOE9BS2pVcjU4ZmFkOVhHK1hVZ0lybmdNT2YvYlg5WGdDQVpPQS9IN2pXdnJzMkxLcjlnSFVuM1RiUWZpY0FJTUFiNXh4dTMyTWI0RFFIVkxBVzlNb0RiZXgzQVFEQ1hUYjNWL2FkMW9xa0FVZmNmSVg5RmdCQVM5MDJxT25qUldOWUN4cCsvSS90MXdNQXFtTFVKdHZiTjkxNmFqOEh2TWdGb1FFZ1QxUG12MnZmZVJlcDhSeXcvdzFUN0pjQ0FLcnRvYU0zbTJiZmdCZW9aUVB1UG15TS9Ub0FRRDcrTzMxVit5NWN3N1dnelQ3aWd0QUE0R3JJL0V2Tlc3RlRBOHdjY01RVEJBQUFhdUROM1ViWGZ6ZDJha0Q5T1dEMGdTdlkvd3dBOERMeCtBRTFhOENBNHlmYS93WUFjRFYxMDN0cTBvRGUvYWZhL3dJQThOZTM4K3JkL1Jydyt5eDc1OHJPWGV3L0F3QnFadUtqWGcyWTBmWU4rMDhBZ0JxYjk1RDlsM3h3S2pEUzhmOW1kWldqY2VqOVlBQUFBQUJKUlU1RXJrSmdnZz09IiBoZWlnaHQ9IjEwMDciIHdpZHRoPSIxNTM5Ii8+PGNsaXBQYXRoIGlkPSJjbGlwMyI+PHJlY3QgaGVpZ2h0PSI2ODU1NjQ4IiB3aWR0aD0iMTA0Nzc1MDAiIHk9IjAiIHg9IjAiLz48L2NsaXBQYXRoPjwvZGVmcz48ZyB0cmFuc2Zvcm09InRyYW5zbGF0ZSgtOTAgMCkiIGNsaXAtcGF0aD0idXJsKCNjbGlwMCkiPjxnIHRyYW5zZm9ybT0ibWF0cml4KDAuMDAwMTA0OTg3IDAgMCAwLjAwMDEwNDk4NyA5MCAwKSIgY2xpcC1wYXRoPSJ1cmwoI2NsaXAxKSI+PGcgdHJhbnNmb3JtPSJtYXRyaXgoMSAwIDAgMS4wMDAzNCAtMC4wNjI1IDApIiBjbGlwLXBhdGg9InVybCgjY2xpcDMpIj48dXNlIHRyYW5zZm9ybT0ic2NhbGUoNjgwNy45OSA2ODA3Ljk5KSIgeGxpbms6aHJlZj0iI2ltZzIiIGhlaWdodD0iMTAwJSIgd2lkdGg9IjEwMCUiLz48L2c+PC9nPjwvZz48L3N2Zz4=;" vertex="1" parent="EqOxZtUAhBLloQvfr0Rn-52">
          <mxGeometry x="11.519999999999982" y="10" width="106.95" height="70" as="geometry" />
        </mxCell>
        <mxCell id="EqOxZtUAhBLloQvfr0Rn-58" style="edgeStyle=orthogonalEdgeStyle;rounded=0;orthogonalLoop=1;jettySize=auto;html=1;exitX=1;exitY=0.5;exitDx=0;exitDy=0;exitPerimeter=0;entryX=0;entryY=0.75;entryDx=0;entryDy=0;strokeWidth=2;strokeColor=light-dark(#000000,#99FF99);endArrow=none;endFill=0;" edge="1" parent="1" source="EqOxZtUAhBLloQvfr0Rn-55" target="EqOxZtUAhBLloQvfr0Rn-51">
          <mxGeometry relative="1" as="geometry" />
        </mxCell>
        <mxCell id="EqOxZtUAhBLloQvfr0Rn-55" value="" style="shape=mxgraph.cisco.routers.router;sketch=0;html=1;pointerEvents=1;dashed=0;fillColor=#60a917;strokeColor=#2D7600;strokeWidth=2;verticalLabelPosition=bottom;verticalAlign=top;align=center;outlineConnect=0;fontColor=#ffffff;" vertex="1" parent="1">
          <mxGeometry x="250" y="225" width="30" height="25" as="geometry" />
        </mxCell>
        <mxCell id="EqOxZtUAhBLloQvfr0Rn-57" style="edgeStyle=orthogonalEdgeStyle;rounded=0;orthogonalLoop=1;jettySize=auto;html=1;exitX=1;exitY=0.5;exitDx=0;exitDy=0;exitPerimeter=0;entryX=0;entryY=0.25;entryDx=0;entryDy=0;strokeWidth=2;strokeColor=light-dark(#000000,#99FF99);endArrow=none;endFill=0;" edge="1" parent="1" source="EqOxZtUAhBLloQvfr0Rn-56" target="EqOxZtUAhBLloQvfr0Rn-51">
          <mxGeometry relative="1" as="geometry" />
        </mxCell>
        <mxCell id="EqOxZtUAhBLloQvfr0Rn-56" value="" style="shape=mxgraph.cisco.routers.router;sketch=0;html=1;pointerEvents=1;dashed=0;fillColor=#60a917;strokeColor=#2D7600;strokeWidth=2;verticalLabelPosition=bottom;verticalAlign=top;align=center;outlineConnect=0;fontColor=#ffffff;" vertex="1" parent="1">
          <mxGeometry x="250" y="180" width="30" height="25" as="geometry" />
        </mxCell>
        <mxCell id="EqOxZtUAhBLloQvfr0Rn-64" value="" style="shape=image;verticalLabelPosition=bottom;labelBackgroundColor=default;verticalAlign=top;aspect=fixed;imageAspect=0;image=data:image/png,iVBORw0KGgoAAAANSUhEUgAABBIAAAQSCAYAAAASWNnGAAAAAXNSR0IArs4c6QAAAARnQU1BAACxjwv8YQUAAAAJcEhZcwAADsMAAA7DAcdvqGQAAP+lSURBVHhe7N19d9z1fef/3IMf5+w2NAGCGwIGk8QOxpavQAoEaCBpfBN0E3wT9P92F7VJmyZpinqZNGlqESCEtrtMEoi5jAYsW5YlMSP5QpKNozEkpWl3z/zOd+SRZ97v11ua+X40mhnp+TjndXY3m8BI5sJ++vv9fD72MQAAAAAAAAAAAAAAAAAAAAAAAAAAAAAAAAAAAAAAAAAAAAAAAAAAAAAAAAAAAAAAAAAAAAAAAAAAAAAAAAAAAAAAAAAAAAAAAAAAAAAAAAAAAAAAAAAAAAAAAAAAAAAAAAAAAAAAAAAAAAAAAAAAAAAAAAAAAAAAAAAAAAAAAAAAAAAAAAAAAAAAAAAAAAAAAAAAAAAAAAAAAAAAAAAAAAAAAAAAAAAAAAAAAAAAAAAAAAAAAAAAAAAAAAAAAAAAAAAAAAAAAAAAAAAAAAAAAAAAAAAAAAAAAAAAAAAAAAAAAAAAAAAAAAAAAAAAAAAAAAAAAAAAAAAAAAAAAAAAAAAAAAAAAAAAAAAAAAAAAAAAAAAAAAAAAAAAAAAAAAAAAAAAAAAAAAAAAAAAAAAAAAAAAAAAAAAAAAAAAAAAAAAAAAAAAAAAAAAAAAAAAAAAAAAAAAAAAAAAAAAAAAAAAAAAAAAAAAAAAAAAAAAAAAAAAAAAAAAAAAAAAAAAAAAAAAAAAAAAAAAAAAAAAAAAAAAAAAAAAAAAAAAAAAAAAAAAAAAAAAAAAAAAAAAAAAAAAAAAAAAAAAAAAAAAAAAAAAAAAAAAAAAAAAAAAAAAAAAAAAAAAAAAAAAAAADYMk99dHroxkae+u3pE/X/t/3vAQAAAACAHejJ30zu+8q/T45+5d8ni1/598lq0z4yW/3vjGb/G/vHAQAAAAAA21j2lMGTv50suHigZoPCR5PVpz6aLPCkAgAAAAAA29wTH03tygLCU/9+pto4Fw+iiaDwtY+mdtk/DwAAAAAA6HNPfjQ5/NS/T1ZsREgOCv8+WfnqR5PD9s8HAAAAAAD61JO/PTP21G/PVGsTAcHOhYNoTU8nnB6xf14AAAAAANBnmiJC40RAUHPxQI2YAAAAAABA/3vyN5OjLiDYiXig5uJBMF5zAAAAAACgD33lt2eOu2iw3kQ8ULPhQKzCFZEAAAAAAPSRr61M3PLUbycrLha0OhEQ7ERAaFzRfiYAAAAAANCjwnMR2p0ICGoiJPCKAwAAAAAA/SB7reDJ34gokDIRD9SaYsJvT5ftZwMAAAAAAD3myx+eGctCQn0uCqRMxAO1mzHhzHH7+QAAAAAAQI/IzkZojAgdCwrZRECw+8pvT4/ZzwgAAAAAAHrEk7+ZHLYBwc4FgdSJgHBzkxX7GQEAAAAAQI/48oeT409+6OOBmgsCqXMRYXVcBQkAAAAAQI968sPJSi0k1CcCgpqLAimzIYHbGwAAAAAA6D218xEaI0KvBIXfnhmxnxUAAAAAAHTZUx+eHnIBwU7EAzUXBdJGSAAAAAAAoNc89eHU0JMfnvXxIJoICHYiCuQZIQEAAAAAgF5zMyTUJ+KBmggIaiIQtDpCAgAAAAAAvcaHhJ4JCoQEAAAAAAB6TRwS2owKIh6oiWAQjZAAAAAAAECveaKlkNBGUGgxKohwYEdIAAAAAACg12Qh4csfnK1m8+EgmogHaiIgqImIQEgAAAAAAKAXNYaExvl4oCbigZqIB2qEBAAAAAAAelwUEtoLCi1GBREP1AgJAAAAAAD0qI1CQkeCQgtR4csfEhIAAAAAAOg5rYaErQ4KhAQAAAAAAHpQuyFhq4ICIQEAAAAAgB6UNyS0HxVEPFAjJAAAAAAA0Ls2IyTU5+NBNBEQzAgJAAAAAAD0oCdWpoa+fN1HgZT5cBDNBwRCAgAAAAAAPWwtJNQnwkDe+XAQjZAAAAAAAEBfcCGhA0Ehm48HaoQEAAAAAAB6WhgSuhoUzhISAAAAAADoRRuGhA5FBRsO7AgJAAAAAAD0oCwk/GHlbDWbCwfRRBjIOxsQCAkAAAAAAPSwxpDQzaCQjZAAAAAAAECPUyGh7aggokDKCAkAAAAAAPSojUJCW0FhM6PCdUICAAAAAAA9p9WQsOVBgZAAAAAAAEDvaTckbFlQICQAAAAAANB78oaEjgcFQgIAAAAAAL0nNSQ0zsUDNRsMohESAAAAAADoPZsZEupz8SCajQeEBAAAAAAAelstJKxMVdcmwkDeuXAQzUYEQgIAAAAAAL3JhYReCQqEBAAAAAAAek8YEjoQFLK5eKBGSAAAAAAAoDdtGBK6FhQICQAAAAAA9JyWQ0KHooIPCIQEAAAAAAB6Vq6QsCVBgZAAAAAAAEDPSQoJHQgK2QgJAAAAAAD0qE0JCfWJKJB3T6wQEgAAAAAA6DlZSHji1yIKpEyEgXZHSAAAAAAAoAfVQ0J9LgqkTkSCVkZIAAAAAACgB9mQ0CtBgZAAAAAAAEAPikJCx6KCiAZqhAQAAAAAAHrQE1c3DgndCAqEBAAAAAAAelAtJFybqtYm4oGaiwKpIyQAAAAAANAfmkJC40RAsHNBIHWEBAAAAAAAelsYEtoICpseFQgJAAAAAAD0pg1DQpeCwhMrU4QEAAAAAAB6TcshYYuDAiEBAAAAAIAe1HZIaDMq2EDQ6ggJAAAAAAD0oKSQ0EZQaDcqEBIAAAAAAOhBmxIS6hPxQM1GAzVCAgAAAAAAPSgLCY+/L6JAykQ8ULPxgJAAAAAAAECPq4eE+lwUSJmIB2o2IhASAAAAAADoUTYkdCQoZBMBwY6QAAAAAABAj4tCQjeDQm2EBKDvfK06ccvX/uv0UNOq2SZusf9dAACwQxybmTn+8MzM2MMzM8WH52arcrOzhYfmZkaz/6793wPoPRuFhI5FBRsO7K4REoBeVwsH//ed4a/9v9Pjf/R/T1e+9v9OV6Ot/v+/O/616jvDhAUAALa5wVJpVxYPHpqZqTw8WwsFzbMhoWEPzc1UHpqbGRkslfgJA9CjVkPCuerqfDxQc1EgZTYgEBKAnve16sSur/2/d8c2igfR/uj/vZtFhbHsj2P/2AAAoI9lv/h/aGZmxIWD9SZiwlpQmJ09Yf8cALqvOSR0MShkIyQAPe9r/+/0SN6AYFcLCtV3hu2fAwAA9KHB6el9tdcXbChodSIm1DY7W+DpBKC36JDQXlRwQSB1hASg52RPD/zR/323+Ef/t/aagosCacteeeB1BwAA+lZ2tkH4GkO7syHhxtMJg6XpffbPC6A7Ng4JrQeFTY4KhASgR3ztd5P7vvpfpyv1iNA4HwXyLYsUxAQAAPrQQ9Ozww/NzFazuSiQMmIC0LNqIeGqjQbrzccDNREG2h0hAegB60WEzQ4KxAQAAPrMkenpfcfOz1TqIaEjQSFbU0zgNQeg29ZCQuNcPFDz8UBNBIJWR0gAuuxrH03s+up/nq780X+drtYmAoKdjQPt7o/+7+mC/RwAAKAH1Q5WPD9TthGh40FhdpafLABdJkNCW0GhtaggQsFGIyQAXfZH//VucS0iNE4EBDUbCdoYf/8DANDrjp2fG3toZs7Fg2guCiQsux7Sfh4AW2fdkNDdoMA/G4Au+up/nR5xAcFOxAM1EQo2HldDAgDQu47OzAytRoTG+XigZqNA3mW3RNjPBWBrPNpKSOhAUGghKhASgC7JXmlw0WC9iXig5mLBOuMVBwAAethDM7MFHxK2PCjwkwWgS7KQ8NiVc9X6XDxQc+Egmo8HaiIiEBKALvqj/zw97mJBqxMBwc5Gg3DVSX6jAQCAXnNkurTPxwM1Hw/URCBoeQ/Nzg7bzweg82xIaCsotBwVfDxQIyQA3fe1/zo95OJAnomAoObiQdPeHbOfDwAAdNmx6bnRh87PVWtz8SCaDwh2NhK0sodmZsrc4gBsvSgkdCYotBYVCAlA93z1P4MDFvNOxAM1HxFq/3nFfj4AANBlD03PltdCQgeCQrtR4aEZDl4EttpGIaFbQeGxq4QEYKt99XfvDH/1P09X63NRIGUiHqjZmPC1/3r3uP2cAACgS2qvNdiI0OWg8NDMTGWwVOKUZmALtRoS2o4KLhxE8xGBkABsva9VJ275yu9OVxpDQkeCQjYREOwaYgL/LAAAoFc8ND077OJBNBcP1Hw8ULPxwG1mhvchgS2UJyS0FRRajgqEBKCbvvq70yM2INi5IJA6ERDEOJAZAIBe8dD03MhD03PV2mw4iObiQTQfEOxcQGjY4MzMkP28ADojJSR0JiisRgVCArB1vvbR1K6v/udkdXU+IKi5KJAyHw9u7r/eLdvPCwAAuuTYubmxtZDQxaAQRAV+9wHYIpsREupz4SCaCwd+hARg63zlP0+P3QwJvRcU7OcFAABd8tC52YILCe1GBRcOovl4oNYYE7gOEtgajy5ODT227KNA6lw8UBMBgZAAbK2n/uv0kI8IXQ4K2QgJAAD0ng1DQjtBoeWo4OOBWi0kcB0ksCXWQkJ9IgqkzMWDaIQEoCu++h+TBR8P1Hw8UHNBIHWEBAAAesfRc7OFYzYarDcbDqK5eBDNBwQ/roMEOs2FhA5FBRcOohESgC3z1d9NDn/1d5PVtbl4EM0HBDsXBBJmPzcAAOiSo9NzI1lIaJyLB2o2HERz4SCajQc3d+z8TGVwiusggU5aNyR0MSgQEoDOyq57/OrvTpebQkIHgkJ6VHi3aD87AADoEhUS2goKrUYFFw6i+ZBwIyZwHSTQQS2FhC4EBUIC0Fm16x5tQLBz4SCajwdqPhK0sP88PW4/OwAA6JKjUzNDNiDYuXAQzcaDaC4eqPmYcJTrIIGOyULCl5anq9lcOIgmwkDKbEQgJACdlV33+JWPJitf/Q8RD6K5eKDm44GaiwXr7Kv/dZp/FgAA0EtsOIjmwkE0Gw6iuXig1hQTuA4S6JDGkNA4Fw/URBRIGSEB2Bpf+Y/TY7WI0DgbDqK5eBDNBwQ7Gw3Uvva7yX328wMAgC46OjU3fuzcXLU2ERDsXDiIZsNBNBcPos1WH5rmOkigE6KQ0FZQ2OSoQEgAOuepj04PuYjQ5aAQRoX/fLdsPz8AAOiyh6Zmh9dCQhtBoeWoYMNBNBcOxM7Pch0k0AEbhYSuBYVlQgLQCU9l1z3aeBDNxgM1Fw6i+Xig1hgSvvpf747azw8AAHrA0am5iosJmx0UWo0KNh748QsLYJPVQsLSdLU2ERDsXDiIZsNAuyMkAJvuqx9NDn/lPyar9blwEM3Gg2guHqj5eKBWe63howlubgIAoBcdnZobcRGh20FhnajAdZDA5moKCW0EhZajgg0ErY6QAGyq7LrHr/zH6XJjSOhuUFg/KnzlP9/l1iYAAHrV4ETplmPnZssuIKiJgGDnwkE0Gw6imZBw7Pwc10ABm0iGhE4EhXajAiEB2FRPfXR6xAYENRcP1Gw4iObCQTQTEX53upKFD/s1AACAHlI7K2FKhINoIiCouXigZsNBtIaYwHWQwOZZNyR0MygQEoBNU7vu8d8nK1/5yIeDaC4eRLPxQM2Fg2g3YsLvuPIRAIC+cHRqtlCLCd0KCq1GhVpMmC3azw8gn1pIWBTxIJoICHYuHESz8YCQAHTEVz46PVaLCI0T8UDNhYNoNh5Ec/HA7jQ3NQAA0C+OTs0MrYWExtl4oCbigZoLB9FsPFDjOkhgU6yFhPpsOIgmAoKaiwdqNiIQEoBNk1336CJCDweFr/zHmeP2awAAAD3s2NTcmAsJ7QSFFqOCCwfRbDxo2LHpuQrXQQLpXEjoZlBojAqEBGBTPPXbyYKLB9FEQLBz4SCaDQfRGkPC7yYL9vMDAIAel92IcPTsXMVFhA4FhZajgggJq08lcB0kkCoMCe1GBREP1Fw4CEdIAFLVrnv898nq2mw4iCYCgpqLB2o2HET7z8nqk7+b3Ge/BgAA0Adq10HaeKBmw0E0EQ/UXDyIZmIC10ECaVoKCV0JCoQEIMXXViZu+cpvT5ebQkI3g8IGUeEr/3Ga6x4BAOhX2XWQR6fmyken3vPxIJqNB2oiHqi5cBDt5isOXAcJJMhCwqOL09VsLhxEs/EgmggIdj4gEBKAzfDUb0+PuICgZuOBmogHai4cRHMRYZLrHgEA6HdHpkrDWUioz4WDaDYeqIl4oObCQbTzXAcJpGgMCd0MCj4qEBKAvJ74aGrXU/8+WXnq38/4cBDNxoNoIiDYuXAQbS0mcN0jAADbwpGpuUJjTNj0oNBiVHDhQO0c10ECeamQ0HZUsOEgmogHaoQEIM2Tvz0zlkWExrlwEM2Gg2giIKi5eODGdY8AAGwbR6dKQzYkdDMobBwVuA4SyGOjkNBWUGg1Koh4YPfo8jQhAcghu+7RRgQ7Fw/UbDiIJuKBmg8Iq+O6RwAAtpkjU3NjNiLYuXigZsNBNBEP1HxEqP3vuQ4SyKEWEi77cBDNhYNoNh5EExGBkADk9+RvJgs2HERz8SCajQdqIh6omZDAdY8AAGw3A7XrIN+r2Hig5uJBNBsP1EQ8ULMxgesggfathYTGiYBg58JBNBsOohESgGRP/mZy+KnfnqmuTcQDNRcOotl4EE0EBLssJHDdIwAA29TRM3MjR8/6cBDNhYNoNh5EEwHBrjEmcB0k0B4ZEtoICi1HBRsOohESgFyy6x6f+s1kuSkktBkVXDiIZsNBNBEQbo7rHgEA2LZq10GenSvXYkJ9IiDYuXAQzYaDaCIgBOM6SKAN64aETgSFFqMCIQFoz1O/PTPi4oGaCAhqLh6o2XAQzUaEj7juEQCAba92HWRjSGgjKLQcFWw4iObDgdvRKa6DBFr16IWpoUcviXigJuKBmgsH0URAWAsJi4QEoFW16x5/O1lx0WC9iXig5uJBNBsP1G6EhKc+4rpHAAB2hCNn5gouJHQiKLQaFURAWBvXQQItWwsJ9dl4EE0EBDsXDqIREoAktesebShodSIeqLlwEM3GAzeuewQAYMeoXQdpA4KdiAdqLhxEs/Egmg0JXAcJtMyFhA4EhZajAiEBaNuTv5nc5+JAnol4oObCQTQXEG7st1z3CADAjnL07Ny4iwfRRECwc+Egmg0H0Rpfb+A6SKAlYUjoclAgJACtqV33aKNA6kRAsHPhIFpDRHjqI657BABgx7lxHaSPButNBAQ1Fw/UbDiIVo8JXAcJbOjRCzPrh4QuBQVCArCxL//2zPEnf3OmWp8LAqkTAUHNxQO1jyar2dMT9msAAAA7wNp1kO1OxAM1Fw/UbDiIxnWQwIZWQ8L56upEQFCz8UBNxAM1GxAICUDrvvzhZLkxJHQsKoh4oObiQeN+y3WPAADsWLXrIM+8V3GhoNWJeKDm4kE0Gw/Mjk5xHSSwnuaQ0IGg0GJUICQA7fnyh2dGbDxQc1EgZSIeqLmI8O+Tla+tcN0jAAA7WngdZDsT8UDNhYNoIiLcjAlcBwlEdEjoXlCoRwVCAhDLflH+5IeTlSc/9OEgmosCqRMBwa4eEp76Ldc9AgCALCacnSu6OJB3IiDYuXAQTYSEY1NcBwlE1g8JbUYFGw6iiXggxi88gMCXPzgzVosIdiIg2LkgkDoREJr220muewQAAKuOnm7hOsh2JwKCmosHaiYmPDTFdZCAkoWERy7aaLDeREBQs/FAzccDQgKwgezAQhcQ7ERAUHNRIGU2INSfSuC6RwAA0Ojw5Nz4kTPvVbO5KJAyEQ/UXDyItnpWAtdBAkL290UWEurz4SCaiAdqNh5EIyQALXnywzMFFw6iiXig5qJAyhoiwpO/5bpHAABgZNdB1kNCPwSFo1NcBwkoX7w4XWmMCe1FBREP1Gw4iHYjJDyyOM1TRIDx5Q/OHH/yw7PV5omAYCfigZqLAqn76DRnFAEAAO/wmbkRGxM2PShkEwHBzoYDNa6DBLxHLkyP24jQflBoMSrYcBBtcYpfgADGlz84W/YhoY2g0GJUcEEgx5787RmuewQAAFp2HeSRyfcqNiR0MyisFxWOnuU6SMB65ML5EzYeqPlwEE0EBDUbD27skUvnKvYzAjtd7bpHFw/URDxQEwFBzQaC1jZZeeKjKcI9AACIHZksDduAoOaiQMpEPFCzIaEWE7gOEmgyuDi1y0aD9ebDQTQRD9RsSLg8TfADGmTXPX75gzOVL39wtprNxwM1EQ/URDxQ87Fg3fEqIQAA2NjhybmiDQfRXBRImYgHak0x4SzXQQLWRq83RPPxQE3EA7WbTyRwyjvQILvusR4RGufjgZqIB2oiHqiJaNC830yWs/BhvwYAAAAnuw7yyOR71dpEPFBzUSB1IiDY1WMC10ECzerXQOadjwdqIh7YXZzmznmgQXbdow0Idj4eRBMBwU7EAzUXEG7syd9M8u9XAADQusOn58bXYkIbUcEFgdSJgOB29r1Kdr6D/RqAneyRi9MFGwjanY8H0UREuDRdfeQitzUAjb58/UzBhoNoPhxEEwFBTQQEOxMRuO4RAAC0p3YdpA0JbQSFTY8KNh6YHTk7N2q/BmAnG7w4vc+Ggbzz4SBaY0g4x2tHQIPsukcbC1qZDwfRRDxQEwFB7akPue4RAADkcPj03IiLCD0cFLL4Yb8GYCdr9QaHVufDQbTp6mMXp/fZzwPsZH/4wdmyjQTtzscDNREP1EQ8qO/LH3LdIwAAyGntOkgbEOxEPFBzUSBlIiQcmZrjMUzA+OLC+bFHLvgokDofD26OVxqAZl++fmbERoGU+XgQTQQEOxcSuO4RAAAkOnS6dOLIZMnHAzURD9RcFEhdU1Ao8Sgm0GCwVLrlkYXzxVpM2IKg8Mil8/xOJtCgdt3j9TOVL18/W61NhIG88+EgmggIaqtPI3DdIwAASHfkdKm8GhNaDAotRgUXBFJXCwlznBIPGLWYcGG6sBYTOhAViAiA9uXKmbG1iNA4EQbyzoeDaCIeNOzLH3DdIwAA2CSr10HWQ8LmB4XNjwqlE/ZrAJC95jA96mLCZgWFC+f5+w4wnlyZ3OcCgp0IAynz8UDNR4TarnPdIwAA2ERHJksFHxN6NCic4TpIIPLohZmhRxamyy4m5A8KxeyGCPvnAfCxjz1ROVP4w4qIB2oiCqTMx4No9ZDAdY8AAGCTrV4HaSOCnQgIdiIeqLk40Oa4DhJY3xcvTI988cJ0xcWEVoPChekyhyoCsS+vnDmeRYTGuXgQTYSBvPPhQI/rHgEAQEccmSyN+nigJgKCmggIdjYQtDOugwQ29sj89PAjF6bHW4kKX7w4XfnihfNjj1w6d9z+cQA0e6JytmxDQq8GhS9/wHWPAACgQ7LXBQ6fLlV8OIgm4oGaCAhqNhRstCNnuA4SaEf2ikIWFm48rbC2RxbOHef1BaB1T6ycGbHxQM2Fg2giDOSdjQhPfnim8sQK1z0CAIAOyq6DPHy6VK3PxwM1EQ/URDxQs8Fg3XEdJABgC2W3Hvxh5UzFRoP15sJBNBEGUlZ7GoHrHgEAwFY49G6p3BgTWg8KLUYFEQ/UXDSQ4zpIAMDWeaJyZsyGgnbm4oGaiAJ59ocfnOW6RwAAsDUGTpeGbEjoSFBoMSr4eGDHdZAAgM7LXhGwYSDvXDyIJgJBq3vi+hQHpgIAgK1z+HSpYCNCzwYFroMEAGyBJ1amCn+4MuWiQMpcOIgmQsG6u36Gc4QAAMDWGpgo7bLxQM2Hg2giHqiJgKBmYwLXQQIAOumJlamhWkRonAgDeefCQTQbDII98eEUZwgBAICtd+jd0qgNB+vNxwM1EQ/URDxQa4wJXAcJAOiUJ1amyi4kdCAoZHPxQE3Eg5vjukcAANAl9esgbTDYaD4eRBMBwU7EA7XaUwlcBwkA6IA/XDl7wsUDNREFUubiQbTmiMB1jwAAoLvsdZDtzIeDaCIgqImAYMd1kACAzVS77nHlbMVFg40mwkDeuXAQLQsJ17nuEQAA9AB1HWQ78+EgmogHaiIgrG2S6yABAJvnD1fOjrpI0M5EGMg7Fw7M/vA61z0CAIAesd51kO3OxwM1EQ/UbES4sUNcBwkA2AS16x5tGMg7EQZSZiNCNq57BAAAPWWj6yDbnY8H0URAsLMxYZLrIAEA6R6/NlV44tciCqRMRIGUrYWECtc9AgCAHlO7DvLdUrU2EQbyzoeDaCIgqN18xYHrIAEAuWXXPWYRoXEuCqROhIG8yz6v/RoAAAC67vC7pbG1mNAHQYHrIAEAeT1+bapsQ0KvBoUnKlz3CAAAelTtOsh3S5WmmLDJQSGbjwdqIh64cR0kAKB9j79/9oSNB2ouCKRORIKNx3WPAACgxx1+pzTiQkJXg8L6UeHoaa6DBAC0bnBl4pYn3j9beeLaVLU2ERDUXBRImYsF8Z5Y4bpHAADQBw69Uyq7iGAnwkDe+XAQzYeEI6e5DhIA0LrHr50dXYsIjRPxQM1FgZSJcNAUESpc9wgAAPrE4XdLx104iCbCQN75cBCtOSYcOs11kACAjWWvCLiAYCfigZqLAqlTIWGF6x4BAEAfGSiWCofeEeEgmggDeefDQbS1mMB1kACADT3+/lTBhYP1JgKCnQsCqVt7GoHrHgEAQJ85MlHal4WE+lw4iCbCQMp8PFCrHbzIdZAAgNATV6eGXChodSIgqLkokDCuewQAAH1poFgaa4wJbUUFEQVS5uOBH9dBAgAij78/VXaBoN2JeKBmo0C7e2JliuseAQBAf8peFzj0TqliQ0JbQWGTo4KNB2Y8BgoAcGrXPdookDIRD9RsIGhtZ7nuEQAA9LeBd0ojNiDYuXAQTYSBvBMRoTaugwQANMque3z86tnK4+9PVbO5KJA6ERDsfCyI98TKFNc9AgCA/jfwTqls44GaCwfRRBhIWVNMOF3iOkgAwJrHr54drUeExrkgkDoRENRsODARgeseAQDA9pBdB2mjwUZz8UBNRIGU1WPC4dMlfjcHAFC77tEGBDUXBVIm4oGajQg3QgLXPQIAgO2jfh1ku3PxIJoIA3l3ZLLEdZAAgI89/v65wuPvn3PhIJqLAikT8UCtISJwzg8AANhe7HWQ7c6Fg2giDOTauyVOvAaAHSy77nE1IjTOxwM1FwVSJuKBHNc9AgCA7Si6DrKduXAQzYaBHDsyWdpnvwYAwM7w2NVzZR8SuhgUstl4cGOPXzs7bj8/AADAtrDRdZDtzsUDNREI2hiPiQLADvTY8tSwjwfRfECwc0EgdTYmcN0jAADYzgYmNr4Ost25eBDNh4INx1MJALDzPHblXPnxq+eqtblwEM0HBDUXBVKWRYRrXPcIAAB2gIFiuXyoWHZBIHUuHEQTwSAcZyUAwI5SexqhHhEa58JBNB8P1FwUyLP3z1YGue4RAADsBAMTpeFaSGicCAN558JBNBsN9Cr28wMAtq/HrkyNu4hg5+KBmo8Hai4OtLP3ue4RAADsIAPFcsHFhB4NCgOnS5yEDQA7xGNXRDiI5uJBNB8Q7Fwk2Gjvny3azw4AALCtDUyUhlxE6FBQyObigZqICDfG+6cAsAM8enVqKAsJ9blwEM2Fg2g+IKi5aKB2leseAQDADjRQLI+5gGAnokDKXDyI1hwSuL0BAHaAx5anRhpDQttRwYWDaD4eqLl4cGNc9wgAAHasgYnSrkPFcsXFg2giDOSdCwfRCAkAsGM8tnxu1AYEOxcPorl4oObjgZoNCVz3CAAAdrTadZA2GGw0EQbyzoWDYPZzAwC2n8eWzxVsOIjmwkE0Fw+i+YBgdyMk8LodAADY2QYnSresXQfZ7kQYSJmNB4QEANhZ2gkJXQkKV7nuEQAAoEZeB9nORBRImY0IhAQA2BnyhIS2o4ILB9F8SHiM6x4BAABuCq+DbHciDORdPSIceqdUtp8XALD9pIaE+lw8UHPhIFo9InDdIwAAQJMNr4NsdyIM5N3hdzhsEQB2gvVubcgzFw+iuXjgx3WPAAAAwsBEeWxgQkSBlIkw0O4GiqUx+1kBANvPl5bOnXhs+Vy1NhEG8s6Fg2giIGR77P0prnsEAABQsusgBybKlSwm9FJQGHinxDupALADPLo4NbQWEnooKHDdIwAAwDqy6yDrIaFXgkIWOOznBABsT48tTVVcTNjkoJDNxQO17GmEq1z3CAAAsK69E6VbDk6UyzYmbHpQyCaigVuxxOFWALCDfGnp3JiLCN0KClemKoMrJa57BAAA2Eh2HaSNCN0KCrzWAAA7i3y9IZoIA3nnIsLV7M/BdY8AAAAtOzhRLtiAoOaiQMp8SKgMTvA7QQCw03xpebr8peVpHw6iiTCQd2sR4eoUT8QBAAC0I7sOcuBXPhxEc1EgZTdDwgn7uQAA299jy9PDWUioz4WDaCIM5N2jXPcIAADQvoG3y2O1mNCdoMDvBAHADvbo0rlCY0xoKyqIMNDeuO4RAAAgl9rBi78ql9diQhtRQYSBdlY5MlHaZz8PAGDneGJxateXls5VbEhoKyjkiwplDlgEAABIcGCitG/gV+WKiwktBoU8USE77NF+DgDAzmNfcVBz4SCaDwZ+y9nVk9OEbAAAgFTrxoRNDgpEBABAo8cWN44JmxIUlqcqnIsAAACwiTaMCZsQFIgIAAClFhOWfDyI5uKBGk8iAAAAdN7ARGnXwNvlogsIaiIg2DVEhEp2S4T98wEAUFeLCYvnKpsdFL50ZaqYncdg/3wAAADYRANvl0Y2fDqh9aAwlh3qaP8cAABYtQMYF6fHazEhNSgsZU8hTI3YPwcAAAA6JPvFfxYU5K0Oas3xoJIFhOwJB/vHBQBgI48uTg0lBIVyFhC4mQEAAKCLstcSDr5dGj34drkQPamQ/f/V/jsTpeP2fw8AQB5ZDFh95aEWFcpRVHh06Vzh0eXp0SxA2D8GAAAAAAAAAAAAAAAAAAAAAAAAAAAAAAAAAAAAAAAAAAAAAAAAAAAAAKAjBkulW45OzQzV99D07PBD03MjTTs3W2ja9NrKD52fq4abaW3Hzs9UHpqZLagdOz8z9tDMzEjjBmdmhtY2Pb3Pfk0AAAAAAKANg1OlXTfjwNxItmPn5saOnpstZDs2PVs+Nj1XXW8PtTobD9REPNCbbWkPz667Qn1r8WF2drgeHuz3CgAAAACAbe/IZGlfLRKcnT1RCwVn58aPTs0Wjp6dqxybmqseO9fCRDxQc+Egmo0H0Vw8UPPxQE1EhNY3M1O8ERtGm2JDqXSL/X4DAAAAANDzslhw7EzpeBYKjkzNjR2ZmiscPfte5ejUe9VaLGhlNh5EEwHBzoWDaDYcRHPxIJoPCHYuEqRuLvs/b4SGuVpkOEFkAAAAAAD0hKNTpaEjU6Xho2fmRo6cyWLBXPno2feqWTDYaC4cRLPhIJoICHYuHESz4SCaCwfRfECwc0EgdVlQUMtenZibGcsiw43AsMv+uAIAAAAAkGSgdm5BaSgLBtmrCEfOzhVrwWCjiYBg58JBNBsOoomAoObigZoNB9FcOIjmA4KaiwIpsyFB7KG5mcrDc7OFwbmZ0cHS7PBgifMYAAAAAAAtyqJB7bWE+lMGZ96ruEDQ7kRAUHPxQM2Gg2giHqi5eBDNxgM1Fw6i+Xig5qJAykRAUBt87+YenpspDs7NjA2WZk8QFwAAAAAANUdPl4YOn5kbOTw5N35kcq585Mx71ca5KJAyEQ/UXDyIZuOBmogHai4cRLPxIJqLB2o+Hqi5KJA6ERDsGoNCc1xofHKB1yIAAAAAYFvLnjY4MlkaPjI5N3p4cq54ZLI5Gqw3FwVSJuKBmgsH0Ww8iCYCgp0LB9FsOIjm4kE0HxDsXBBInQgIajYmNIWF92qvRYwPZmcu8NQCAAAAAPS3ejg4fHpu7MjpuXItHEQT8UDNRYHUiYBg58JBNBsOoomAoObigZoNB9FcOIjmA4KaiwIpE/FAzUaEaDeeWiAsAAAAAECvuxkOSmNHTpfKRyZL1eaJgKAmAoKdCwKpEwFBzcUDNRsOool4oObiQTQbD9RcOIjm44GaiwIpE/FAzYaDjUZYAAAAAIAeMThRuuXwu6Xjh98tjR16V4WDaCIeqImAoOaiQMpEPFBz8SCajQdqIh6ouXAQzcaDaC4eqPl4oOaiQOpEQLCzwaDV1V6FqB3gOL3P/jUNAAAAANhkRyZL+w6fLo0cPl0qHD5dqkbz8UBNxAM1EQ/UXBRImYgHai4cRLPxIJoICHYuHESz4SCaiwfRfECwc0EgdSIgqNlY0Ooenpspr94MMXN8sFS6xf71DgAAAABoU+NTB4dPlyo2GGw0Hw+iiYBgJ+KBmosCqRMBwc6Fg2g2HEQTAUHNxQM1Gw6iuXAQzQcENRcFUibigZoNBe2u9hoETysAAAAAQHsGJkq7Dr1TOnHodGnchoG88+EgmggIaiIg2LkgkDoRENRcPFCz4SCaiAdqLh5Es/FAzYWDaD4eqLkokDIRD9RsIMizG08rjHK2AgAAAAAItVcW3imNHHqnVDz8bqnaNBEG8s6Hg2giHqiJgKDmokDKRDxQc/Egmo0HaiIeqLlwEM3Gg2guHqj5eKDmokDqRECws3Eg77JrJuuvQNi/dwAAAABgxzgyUdp3qFgaPfROqezigZoIAynz8UBNxAM1EQ/UXBRImYgHai4cRLPxIJoICHYuHESz4SCaiwfRfECwc0EgdSIgqNk4kHdZVHi4dH58sDQ9zLkKAAAAALa9ejwYeKdUPvROqWrn4oGaiAIp8/EgmggIdiIeqLkokDIRD9RcOIhmw0E0ERDsXDiIZsNBNBcOovmAYOeCQOpEPFCzYSBppZkqUQEAAADAtpOdeTDwTmkkigdqLh6oiSiQMh8OoomAYCfigZqLAqkTAcHOhYNoNhxEEwFBzcUDNRsOorlwEM0HBDUXBVIm4oGaiwIpWw0KlcHSeV5/AAAAANCfstsWagcmFktFGwnamYsH0UQYyDsfDqKJgKAmAoKdCwKpEwFBzcUDNRsOool4oObiQTQbD9RcOIjm44GaiwIpE/FAzUWB1DVFBW5/AAAAANDjBiZKw4eK5fFDxbKLAilz4SCaCAN558NBNBEP1ERAUHNRIGUiHqi5eBDNxgM1EQ/UXDiIZuNBNBcP1Hw8UHNRIHUiINi5IJC60kw9KpQHSzMjg6WpXfbvVwAAAADoiuzcg4FieexQsVypBQQ7EQbyzoWDaCIMpMzHAzURD9REPFBzUSBlIh6ouXAQzcaDaCIg2LlwEM2Gg2guHkTzAcHOBYHUiYCg5qJAym4EhdWoMFPgPAUAAAAAXVF7dWGidGKgWC67cBBNhIGUuXigJqJAynw8iCYCgp2IB2ouCqROBAQ7Fw6i2XAQTQQENRcP1Gw4iObCQTQfENRcFEiZiAdqLgqkrCko8OoDAAAAgC0yMFEauvH0gQ8FrU5EgZS5eBBNhIG88+EgmggIaiIg2LkgkDoRENRcPFCz4SCaiAdqLh5Es/FAzYWDaD4eqLkokDIRD9RcFEhdc1QoD5bOn+ApBQAAAACbZu9E6ZaDE6UTByfaePqg1YkwkHcuHEQTYSDvfDiIJuKBmggIai4KpEzEAzUXD6LZeKAm4oGaCwfRbDyI5uKBmo8Hai4KpE4EBDsXBFLXEBRWV7v1Ycj+MwAAAAAAWlJ7+mCiPDYwUa7auSCQOhEG8s6Fg2giDKTMxwM1EQ/URDxQc1EgZSIeqLlwEM3Gg2giINi5cBDNhoNoLh5E8wHBzgWB1ImAoOaiQMpMUHi4NFPkLAUAAAAALctuXhh4u1y08SCaiwIpE2EgZS4eqIkokDIfD6KJgGAn4oGaiwKpEwHBzoWDaDYcRBMBQc3FAzUbDqK5cBDNBwQ1FwVSJuKBmosCKXNBITtLYWaUGx8AAAAAOAMTpV0Db5dGBn5Vrgz8qlxtmogHai4KpExEgZS5eBBNhIG88+EgmggIaiIg2LkgkDoRENRcPFCz4SCaiAdqLh5Es/FAzYWDaD4eqLkokDIRD9RcFEidjwrjvPYAAAAA4GMHsqsb3y6PuXigJuKBmosCqRNhIO9cOIgmwkDe+XAQTcQDNREQ1FwUSJmIB2ouHkSz8UBNxAM1Fw6i2XgQzcUDNR8P1FwUSJ0ICHYuCKTOB4Vy9tqD/WcJAAAAgG0uO//g4NvlgosFrU4EBDsXBFInwkDeuXAQTYSBlPl4oCbigZqIB2ouCqRMxAM1Fw6i2XgQTQQEOxcOotlwEM3Fg2g+INi5IJA6ERDsXBBInQ8K2WsPI5yjAAAAAGxz2fkHB39VLrswkHciIKi5KJAyEQZS5uKBmogCKfPxIJoICHYiHqi5KJAyEQ/UXDiIZsNBNBEQ7Fw4iGbDQTQXDqL5gGDngkDqREBQc1EgZTIoZLc9cI4CAAAAsG3Urm98q3TiwFvl8sG3y9VsLgikTsQDNRcFUiaiQMpcPFATUSBlPhxEEwHBTsQDNRcFUicCgp0LB9FsOIgmAoKaiwdqNhxEc+Egmg8Iai4KpEzEAzUXBVJmgsLqCAoAAABAX8sCwoG3SyMH3y5X6gFBzUWBlIl4oOaiQMpEFEiZiwfRRBjIOx8OoomAoCYCgp0LAqkTAUHNxQM1Gw6iiXig5uJBNBsP1Fw4iObjgZqLAikT8UDNRYHUuacUZgoczAgAAAD0kdWAMD9y8O35ysG35104iOaiQMpEPFBzUSB1IgzknQsH0UQYyDsfDqKJeKAmAoKaiwIpE/FAzcWDaDYeqIl4oObCQTQbD6K5eKDm44GaiwKpEwHBzgWB1BEUAAAAgP7iA4KdjwdqLgqkTgQEOxcEUifCQN65cBBNhIGU+XigJuKBmogHai4KpEzEAzUXDqLZeBBNBAQ7Fw6i2XAQzcWDaD4g2LkgkDoRENRcFEgZQQEAAADobbWA8Ob8yMG3ooCg5gOCnQsCqRMBQc1FgZSJMJAyFw/URBRImY8H0URAsBPxQM1FgdSJgGDnwkE0Gw6iiYCg5uKBmg0H0Vw4iOYDgpqLAikT8UDNRYGUERQAAACA3tIUEN6arzbNhYNoPiCouSiQMhEP1FwUSJmIAilz8SCaCAN558NBNBEQ1ERAsHNBIHUiIKi5eKBmw0E0EQ/UXDyIZuOBmgsH0Xw8UHNRIGUiHqi5KJA6ggIAAADQPesGBDsXDqL5eKDmokDKRDxQc1EgdSIM5J0LB9FEGMg7Hw5qKzTu8OnSyOHTc007ero0lLSpDXZmbsTuyJm5wtrOzhU7EhRajQoiHqi5cBDNxoNoLh6o+Xig5qJA6kRAsHNBIHUEBQAAAGBrZQHhwBvzlQNvzlfrc/EgmosHaj4eqLkokDoREOxcEEidCAN558JBNBEG1lkWBAqH3y2NrYaB0sjA6dJQtiOTpX32r41+Uw8Qx86Ujh+dmhvJdmRqbuzI1I3o0Kmg0GJUcOEgmg0H0Vw8iOYDgp0LAqkTAUHNRYGUNQWF8+NcGwkAAABssgOvzw8feGO+3BgQ7Fw4iObiQTQfEOxcEEidCAhqLgqkTISBlLl4oHYjFBw6XRrPAsGh06UT2yUQbLabTz2sxoajU7OFbC4idCgotBwVbDiI5sJBNB8Q1FwUSJmIB2ouCqSs6RyF82MEBQAAACDR/jdLQxsFBDsXDqK5cBDNBwQ1FwVSJuKBmosCKRNRIGVZMDj0Tql46N3S+OF3SiMD75SGs1gwOFG6xf44I5/se3l0ambooanZ4XpkODY1W+5qUGg1KrhwEM3HAzUXBVIm4oGaiwKpuxkVRgZL/H0CAAAAtKUWEN4sF2wkaHcuHqi5cBDNxwM1FwVSJuKBmosCqRNhYL0NvFMqHyqWxgfeKY0cfrd0/MgETxZ0mwsM52bLLiDYiXig5sJBNBsPorl4oObjgZqLAqkTAcHOBYHUrb7uUMmCgv1xBQAAAGAMnCrtevCN8pgNAqlz8SCaiwdqPh6ouSiQOhEQ7FwQSJ2IBoeKpeJAsTR26J3SiYGJEgfF9ZH6EwxZXDh2bm7s2NRs0cWENqKCCwfRbDiI5uKBmo8Hai4IpE4EBDsXBFK3GhTKg6WZ4/bHEgAAANjxajcxvD4/cuD1+cqBN+arTRNhIO9cOIjm4kE0HxDsXBBInQgIai4K5NhAsVweKJaJBttcPS4cnZobd08uiIBg58JBNBsOorl4EM0HBDsXBFInAoKaiwIp44YHAAAAoFntIMXX58suINiJMJB3LhxEc+Egmg8Idi4IpE7EAzUbB9bbQLFcGJgojRyeKB3nLIOda3CqtOvYuZnjx87Nja49tSACgpqLB2o2HERz4SCaDwhqLgqkTMQDNRcFUrZ2ICN/bwIAAGCH2v/mhaH9r88XHnxjoZrNhYNoIgzknQsH0Vw4iOYDgpqLAikT8UDNRoNDxXLlULE8noUDnjbARtaeWjg3W7DxQM3Fg2g2Hqi5cBDNxwM1FwVSJuKBmosCCXv4vRnOTwAAAMDOkr3G8OAbC2P1gGDnwkE0EQZS5uKBmgsH0Xw8UHNRIGUiHtgdnCgXDk2UTnAYIlLVwsL0xmHBhYNoNh5Ec/FAzccDNRcFUicCgp2NAil7eG4mOz+BCAgAAIDt7cHX5k88+NpCxcaDaC4eqIkokDIXD6K5eKDm44GaiwKpuxkPigcnSqM8cYBOyh61r70KMT03emx6tmxjQveCQmtRwQWB1ImAoGbDQN49PDc7Plia2mV/XAAAAIC+tv9U7TWG4oOvL1SbJuKBmosH0UQYyDsXDqK5eBDNBwQ7FwTaX2Xg7fLYwERpOHvyw/44AFshO2Ph6LnZE0en58ZtUGg5KthwEM2Fg2g+IKi5KJAyEQ/UbBjIs9rrDnO87gAAAIBtIPvF7P7XF0ZdQLAT8UDNhYNoIgzknQsH0Vw4iOYDgpqIBHIHf1UuH3ybpw7Qu24c3Dhmn1Zw8SCajQdqLhxE8/FAzUWBlIl4oGbjQJ7xugMAAAD62v7XFo4/eGqh8uBrC9XabDyIJgKCnQsH0UQYSJmLB2ouHETz8UDNhoPa3i4XD75Vu5KRx5nRV45Ml/bVXoE4N1vsSFBoOSr4eKDmokDqRECws3Eg1+ZmuN0BAAAA/WPgVGnX/tfmC2sBwc6Gg2giIKi5eKAmokDKXDyI5uKBmo8HagNv125Y4JUFbBv1VyDqUcGFg2g2HERz8SCaDwh2LgikTgQENRcI2tjq7Q6zw/b7DgAAAPSUB16bP7G/8SmE9WbDQTQRD9RcPIgmwkDeuXAQzcWDaM3x4MBb5fEDbxEPsP3ligo2HERz4SCaDwhqLgqkTMQDNRsJ2tnDc7OFwRJPLwEAAKDHHHj94r79p+aL+19bqDbOxYNoNh6oiXig5sJBNBEG8s6Fg2guHPgdeGu+SDzATtYYFVw8iGbjgZoLB9F8PFBzUSBlIh6o2UjQ6jiMEQAAAD1l/6n5ERsQ7Fw4iGbjQTQREOxcOIgmwkDKXDxQ8/GgfPCtec48AIz6mQoPTc+WXTxQs/EgmosHaj4eqLkokDoREOxsKGh1D8/NFAdL0/vs9xkAAADYEgdeubhv/y/ni/tPLVRrEwHBzoWDaDYcRBMBQc3FAzURBVLm4oFf5cCb5dEDEyV+Ug+0YO32h3NzFRcQ7Gw4iObigZqPB2ouCKROBAQ7GwpaHk8nAAAAYKvVnkKoBwQ7ERDUXDxQs+EgmogHai4eRBNhIO9sQMjOPTj41sJx+z0F0JrsNoKHpmeHH2rl1QcbDqK5eBDNBwQ7FwRSJwKCmosFG4ynEwAAALAl3FMI603EAzUXD6LZeKAm4oGaCwfRRBjItTfmywfenB/h1QVgc2XnKaxeJ7nBUwo2HERz4SCaDwhqLgqkTMQDNRsMNhxPJwAANsPek6Vb7n9xcahxu19c5Ce/wA63/9X5kf2/XKiuzYaDaCIeqLlwEM3GAzURD9RcOIhmw0CLe/CN8tj+N0tD9nsJYPPdeEqh4CKCnY0Hai4cRPPxQM1FgZSJeKDmgsE6W306gdAJAGhDFg72vLg4vOcnl8f3vHC5sucni9VwLy4W9vzk8uie5y/yKBywQ+w9VdpVewqhMSLY2XigJuKBmgsH0Ww8iCYCgp0LB9FELHCrP31wip+UA93QnacUfDxQc1EgdSIg2NloEK12s0Np9oT9fgLY/p5YmRp64trUyOPXpgpP/Pps5YlfT1Xr+8OV1T2xMlV4YmVq7ImVqeGvrUxws9ROlj1lcN8Li2N7Xlisrs2Gg2D3v1hbOQsQ9o8LYPt44JcXTux/9ULFhYNoNh5EEwHBzoWDaDYcRBMBQc3FAzUbD2orFw68Ps8/E4EesXaWwkY3PthwEM3Fg2g+INi5IJA6ERDUbDxQe3hutpB97+z3E8D2MrgycUstHrw/VW4MB+utHhVuhIUsKvDU5U5SewLh+cujTQHBTsQDtSwo1J5SeJ4nFIDtZO/LpVse+OWF8f2/vFBtnogHajYcRBMBQc3FAzUbDqKJeKDm4kGw7PUFnj4AetvRqZmhY9Nz4y4idDkobHpUEPFAzcYDu9WnE2Y4FBbYprKA8MT7ZytPXJuqNk3EA7XGoPCHK2fHn1iZ4udB292e55f37XlhqbznhSUfD9REPFCrBYWfXB7NIoX9cwLoL/tPXRhafQrBRgQ7ERDsbDiIJuKBmosH0Ww8UBPxQM2Gg9pen68ceH1+ZO8E/8wD+knttYdWrpC08UDNhYNoPh6ouSiQMhEP1GxAcJubGeXpBGD7eOLq1FDtCQQbEOxEPFBriAmV7JUH++fDNrHn+cXh1YBgJwKCmggIfpcr9//kEu/XAX3qC68sjD7w6oVqNh8OoomAoGbjgZqIB2ouHESz8SCaCAh2NwJCmdcXgP63+trD3MjWvvbg44GaiwKpEwHBzgWExqcTuCYS6HvZEwOPvz9VcMGglYmAYNf4uoP9c6PPxRGhM0HhvhcuF7PbHuznANCbsgMVH3h1oViPCI3z4SCaiAdqNh5EEwHBzoWDaDYcRBMBIdv+1+cL+19b4DFfYBviHIUWowIHMQJ9p34OgosDeSYCghwxYfvY/dzi0H3PL1Wz+XigJuKBmggIfpfHuToS6G37X104/oVXLlRsQFDz8UBNxAM1Gw6iiYCg5uKBmg0H0RoDwpsXiKLADtDS9ZE2HERz4SCaDwhqLgqkTMQDNRcSVg9iHOdVB6A/PPb+1PDjV8U5CKmz4UDtGjGh79VuZnhusVIPCe0FhRajgosHZi9crtz3wuKI/WwAuq/xVYZ25uNBNBEQ7Gw4iCbigZqLB9FsPGjcawtjB17nEFlgJ8oOZtwwKLQaFVw4iObjgZqLAikT8UDNx4SZMq86AL3rxjkIhcffn6rauSiQMhsPzB5fOctTTP3svueXCjYidCwobBwVyve9cIlHg4EesN6rDO3Mh4NoIiCo2XigJuKBmgsH0UxA4AYGAJlNDQotRwUfD9RcFEidCAh2NijwqgPQWwZXSrc8fnVqzMYDNRcFUiYiQn2PrUwSHfvRfT9eOm7DQTQfDqKJeKDmI0LDEwqLBV53ALpn/88Xjn/hF629ytDqfDiIJuKBmo0H0URAsHPhQO0UAQGARlCIgwKvOgC94bGrUyOPX52qPP7+uerqfDxQc1EgdfaphGtTBftZ0QfufW6pbINBK/PxQE3EAzUbEZrGdZHAVqu9yvDKhWrTRBhImY8HaiIeqNlwEE0EBDUCAoC8uhMUWosKLgikTgQEtRuvOnCrA9Al2WsMj109V74ZENR8QLBzQSB1jUFhZYqzpvpJ4wGLeefjQTQREOxcRKg/nXC5sufFRa5SAzps78ulWx545ULBRYSuB4UWo4INB9FEPNCbLxAQAOTRy0Fh06OCiAdy781UBkuz/HwO2CJPLE7tevzqucLjV200WG8+IKi5KJAynkroP/c9vzRmw0De+XAQTQQENRsTuC4S6Ki9r1zct+8XFypf+IWIB2oiCqTMh4NoIiDY2XAQzYWD1T3w2nxh/yluYQCQ7ti5meMbXhvZTlRw4SCajwdqLgqkzIaDYINzM6P2+wRg82TnIKy+xnCu6ubCQTQfD9RcFEjZyhS/edMv7v3xUvm+53wUSJkPB9FEPFCTQWFxjPMTgM2z92fzw1lAsHPxIJoIA3nnw0E0ERDUbDxQq0eEU/NFAgKATqhdG7mZQaHlqODjgZqLAqkTAaFps9mrDry6Cmy2x5anhh+/MlVxAUHNxQM1Hw/UXBTIscff5waHvrD7ZHbl41K1aSIM5J0PB9FEPFCzQYHrIoFN8YWfL4zZgGDnwkE0EQbyzoeDaCIeqNl40LzyA6fmedwWQMcdnZ4bOXZuruLigZoNB9FcPIjmA4KdCwKpswGhYQ/NZa86cG4CsBkezc5BWD5XeOzKuWp9LhxEc/Egmg8IdjYOtLPHr50dt18XelDtfAQbEjoQFLL5eKAm4oGaDQo/WSzzugPQvuw8hC/8fKFoo8F6c+EgmggDKfPxQE3EA7XGgPDLhcr+U/Mj2ffCfn8AoFOy34k/Nj03esyGg2g2HERz4SCaDwhqLgqkTISEtaAwy7kJQF7ZawxfunJurDEg2LlwEM2Fg2g+IKjZULDh3j9bsV8fetB9zy2OuIBgJ6JAynw8iCYCgp0NClwXCbSs8TyEvHPxQE1EgZT5eBBNBAS7UwtjBAQA3TQ4Vdp1dHpuvOWg0GpUcOEgmo8Hai4KpEyEhBtPJ3BuAtCmL105d+Kx5amKDQfrzcUDNRcOovl4oOaCwTqzXyN60O5nF0fu/bGIB9FEGMg7Hw6iiYCg1nx+wgjXRQKx7DyE1IjQOBcPookwkHc+HETzAeGBV+cLB165yKO0AHpGdsPDsXOzxU0PCi1HBR8P1FwUSJ0NCrOzBc5NADZWe43hyrmyjQTtzMWDaC4eqPl4oGajgdxVroHsefWQUJ8LB9FEGMg7Hw6iiXig1nB+AtdFAt4Xfn5x9As/v1hdmwgDeefCQTQRBvLOh4NotYhQ3v/qwnH7PQGAXnH03OyJo+fmKt0LCq1FBRcEUtcUE7JDGDk3AVCy6xwfW54at1EgZS4cRHPxIJoPCHYuHhAS+osNCd0MCtl8PFAT8UCt4XUHzk8A6uchXBhrigjbKChk8/Hgxl69UNn/6gXOQQDQFxrPT6jPxQM1Gw6iuXAQzQcENRcFUnbzNYfK4MwMP38Dbqhd57g8NfLY8rlq00QYyDsXDqK5cBDNBwQ7FxEICf3h3meXTtiIYOfigZqIAinz8SCaCAh2N193GON1B+xUtYjws4tFFw/URBhImYsHaiIKpKwxIjzwywvje0+VODsFQN85Ml3ad/TcbKHtoNBqVHDhIJqPB2ouCqSMQxiBNdl1jo8tnyu7iLCNgkJjVHhsZZInknpddmuDDQfRXDyIJsJA3vlwEE0EBDmui8TOkx2quPfnFyv7fn6xWp+LB2oiCqTMxYNoIgzk2iu8xgBge2h83aEjQaHlqODjgZqLAinjEEbsYI8tT+97dOlc4UvL0z4cRBNhIGUuHqi5cBDNxwM1+31AD9p9cnGXDQYbzYWDaCIM5J0PB9FsOAjGdZHYIfb+/NJxGxHaDgqbHBVcOIhmw0Ab+wKvMQDYZmqvO5ybG2uMCTsqKMzMjHEII3aK2nWOS+fGsoCg5uKBmogCKXPxIJqLB2o+HtT32NWpsv1+oEftfnapbGNBK3PhIJoIAynz8UBNxAM9rovEtrX3ZxeHbTiI5sJBNBEG8s6Fg2giFIR75UIhewLDfi8AYLuo3e4wPVvujaDQWlRwUSDvZrJDGIkJ2N6+tHTuxJeWzlVsPFBz8SCaCAN558JBNBcPopmYcHVqzH5P0KN2/3hpzEaCdufigZqIAinz8SCaiwduXBeJ7Wbvzy6O7vvZxWrTRECwc+EgmggDKXPxQM1Gg4Z94ZULlQd+eeGE/T4AwHZ1dHpuxMaEtqKCDQfRXDiI5gOCmosD7S6LCdPc6IDt59HFqaEvLU2Xv7Q0XV2biAdqLhxEE2Eg71w4iObCQbQbTyS8P8W5KP2inXMSNpqLB9FEGMg7Hw6i+YBgVt7zPNdFov/tLVwYcxFhOweF7CkEDlMEsANlhzEeOzdbtCGhraDQalRw4SCajwdqLhC0sYdmZirEBGwX2XWOX1qcHm8KCGoiINi5cBBNhIGUuXig5sKB3uDKBL+52092jy/ner0hmgsH0UQYyDsfDqK5gNC85xcLe57n0Wj0n+xMgL2FiwUXDqKJgKDm4oGaiAIpc/FA7Au/yK505DBFAMieTrCHMXYsKLQcFXw8ULORoNXVYgLXQ6KPZa/pPLo4PfKlxelqbTYcRBMBQc3FAzURBVLm4kE0ERBqu3qO1xr6ze5nl4fvfXa5WpsIA3nnwkE0EQbyzoeDaCIiNIzrItFPbkSE4r7CxerabDiIJuKBmosH0UQYyDsbD9b2iwvjHKYIADcNTpV22asi7Vw4iGbDQTQXD6L5gGBnQ0Gr43pI9KNHLp07/qXF6fJaRGicDQfRRDxQc/EgmggDeefCQTQTEp5YmeIJ035UeyqhHhO2QVDI5uOBmo8IN59OuFy597lLvHeNnrb35cVdLiLY2XigJuKBmgsH0UQYyLumpxB+zlMIABBRV0WquXigZsNBNBcOovmAoGZjwUYjJqBfPHZxet8ji+cKLh5Es/FATcQDNRcOookwkHcuHERbfRqBa1771e6Ti0NNIaEDQSGbiwdqIgqkzMeDaCImrK58/3NcF4nes/fli/s+X7hYceEgmo0H0URAsHPhIJoIAznHUwgA0IKNzk5oOyi0GhVcOIjm44GaDQbr7aGZGX4Rgp5Ve43h8vToo4vT1ca5cBDNxoNoIiDYuXAQTYSBlLl40LDHrpwrZ1de2u8b+si9zy6PupDQzaCwyVHBh4NoLiTc2OVxrotEr6hHhL2Fi9X6XDiIZsNBNBEQ1Fw8UPNhoKXt+8WFygO/4EYGAGjX0an4Zgc7Fw6i2XgQzcUDNR8P1Gw0CDczw/vV6DmPXDp34pHL5yo2InQ7KLQcFUQUSJmNCLWQsMzhqdvC7vGlgosIdiIM5J0LB9FEGMg7Hw6i2ZCwOq6LRLepiGDn4oGaDQfRRDxQc/EgmggGwQp7X+ZGBgDIq/Z0wtRs8dg5Hw/UXDiIZsNBNBcPovmAYOfCgRoxAT0iu87x0cvnio9enq7WJgKCmosHajYcRBPxQM3Fg2giDOTdzYjAdY/bxt6TK7fcO75UdPFATYSBvHPhIJoIAynz8UDNx4TsdYf7XrjEu9rYcntfvji89+VLLhxEc/Egmo0HaiIeqLlwEM2Hg8aN2K8dANC+7LHqY+fmRmsxocWg0HJUsOEgmgsH0XxAUHMBwcSE7Gu23wdgKwwuTu165PL0+FpAsBPxQM3Fg2g2HqiJeKDmwkE0EQZyjYiw/WQxoaUnEzoQFLK5eKAmokDKfDyIZoIC10ViC61FhMaJeKDmwkE0Gw+iiYBg58JBtIaAsO/nC+W9r/D3FABstmPnZo4fnZqrdCQotBoVXDiI5uOBmosIN2NCkZiArVQ7B+HS9Mgjl85VXDxQE/FAzYWDaDYeqIl4oObCQTQbBlrd8lTl0atTnD+3ne1+dnnERYP1JqJAylw8iCbCQN75cBDNBoXLo7zugE6SEcFOBAQ7Fw6i2XAQTQQENRcP5BbGOFARADon+8VO7ZrIekzYzkGBmIAtkl3n+OjF6fKjl6arTbPxQE3EAzUXDqLZeBBNBAQ7Fw6i2VCw3pbPFThYcYeo3ebQ6qsOHYoKLhxEE2Eg73w4iNYUE7guEh3RUkRoMyi0HBVsOIgm4oGajwe1/7yy92cXebwNALZI7SDGxpjQraDQclTw8UCNmICtVLvO8eK5ggsIdjYeRBMBwc6Fg2g2HEQTAUHNxQM1Gw2aAsJU5bHlKV5b3Yl2P7s8fO+zSxUXDDaaCAN558JBNBEGUubjgVrjYYyXi1wXic3SdkToVFBoNSqIeKC2FhJ+drHIqwwAsPVuXBNZdkGhxajgwkE0Gw6iuXgQzQcEO2ICOqn2GsPF6dFHL52vrk7EAzUbDqKJgKDm4oGaDQfRRDxQc/EgWkNE+NKVc2M8hbDD1Q5iXO+KyPUmwkDKXDxQE1EgZT4eRKtHBa6LRJqkiNA4EQ/UXDiIZuNBNBEQGrf35xe59xsAuqj2qsPU3LgLCW0EhZajgg0H0Vw4iOYDghoxAZvpkUvnTzxyabpyMyLYiYBgZ8NBNBEP1Fw8iGbjgZqIB2ouHKgtnStwFgKa7Dm5vK+twxi7HRQ2OSr4cBBt9XUHrotEHp97+eLw5/+PiAIpE/FAzYWDaDYcRPMBgVcZAKCHHD03e8JFhE4FhVajggsH0Xw8UCMmIMWjF2aGHrl4vujDQTQRENRsPFAT8UDNhYNoNh5EEwHBzsWDWkCovcbAz/MQu+/HS8d3jy+XXSxodSIM5J0LB9FEGMg7Hw6icV0k2lOPCI1zUSB1IiDYuXAQzYaDaFlE4FUGAOhJ2asOTbc6qIl4oObCQTQbD6K5eKDm44EfMQHtya5z/OKF82OPXDxfbZwPB9FEPFCz8SCaCAh2LhxEs+EgmggIaqshYWqE1xjQktpVkbXbHXKcn7ATgwLXRWIDKiJ0Oyi0HBVsODDbW7jArQwA0MMGJ8StDtFEQLBz4SCaDQfRXDyIZgMCMQHt++KF6ZEvXpyu2Ihg5+OBmogHajYcRBMBQc3FAzUbDqKJeFDfo0vnCk8sTvFKN9q3++TirnvHl8ddJGhnIgzknQsH0UQYSJmPB2pcFwntc/92cfjz/9vHg2guCqRMxAM1Fw+i2YjwswvcaAIAfeLY2blRFw6iiYCg5uKBmg0H0Vw4iGYjAjEBG8uuc3zkwnTZBoON5uNBNBEQ7Gw4iCbigZqLB9FsPFBrjgjlR5bO8dQ10uW+LrJDQSGbiwdqIgqkzMcDsecXK3ueX+T9IdSsRYTGiXig5qJAykQ8UHPhINjen12s7H35AgftAECfeWhqdvjo2Q1edehUUGg1KrhwEM2GBGICvOw1hkcuThdsIGh3PhxEEwFBzcYDNREP1Fw4iGbjgd3iucqji9Nc54jNd++zSyeSXnfoVlDY5Kjg4oHYfS8scl3kDicjQreDQjYREOxsOGiKCIWLRV5lAID+dWSytO/Y1Gz52NRctTYbD9REPFBz4SCajQfRXDxQIybAy/4a+OLC9OgjF3wUSJkPB9FEPFCz8SCaCAh2LhxEswGhtnNjvMaAjqqdnzC+NOYCQZ6JMJB3LhxEE2Eg72w8ULvvhaUxrovceTaMCHYiINi5IJA6ERDUmiLCy5yHAADbQe3chKnZwlpMaDUotBgVXDiIZsNBNBcPohET8LGPPTI/PfzFC9OVWkRonAgDKfPxQE3EAzUbDqKJgKDm4oHaUvbfPVd8dJHrHLGFkq6LtBNhIO9cOIgmwkDKbEBo2vOLtesi7fcQ21PbEaHNoLDpUUHEA7mXOQ8BALabY1NzY00xYZODQstRwYaDaC4cRJutHjs/O26/Xmxvg9l1jgvniy4g2IkokDIfD6KJgGBnw0E0EQ/UXDyo7/K5ymOL07yOje7Z/ezycNJ1kY0TYSBlLh6oiSiQMhcRmle+74UlDi7Zxva+fHHf5/73pYoLBO1OxAM1FwVSZsPBjX2+kJ2HwDWnALBdZecmuJjQraDQalRw4UDv2PmZMfv1YvsZLE3t+uLC+bEvLpyv1ufigZqIAinz4SCaCAh2NhxEE/FArTEiPHp5epQndtAT7ly7LlLEgTwTUSBlLh5EE2Eg70REaHhCYanA6w7bz56XLu777L9tQkRonIgHai4KpG4tIlwoZ3HEfq0AgO0lOzehdgijjQnbICgcOz9HTNjGvjg/PTK0MF1pjAhtB4VNjgo+HEQTAUHNxgM1EQ/sHlnkOkf0qE25LtJOhIG8c+EgmggDeeciQlNQWBzNzpyw30f0n3pE+Ny/XarW56JA6kRAsHNBIGGff/kShyoCwA5SO4Tx7GzRhYR2o4KIB2ouHESz8SCaiAjEhO1rcOHc8aGF6bINB9FcOIgmwkDe+XAQTcQDNRsPovmIUM6uv7TfQ6DnZNdFbtrrDvWJMJB3LhxEE2EgZS4krMYErovsc9kvtm1E6HZQSI0Kn3/5Ej/hAoAdKDuEccOY0GpQaDEquHAQzYaDaCIk1DY9y8+3toHaawzz0wUbClqdCwfRRBhImY8HaiIeqNlwEOyRy6vXOfIaA/rO7pPLI7vHE6+LtBNhIGUuHqiJKJAyFxNqQWGpwHWR/SeLCJ/718tFGw+iuSiQMhEP1GwkaGEcDAoAO5w8hFHNhoNoIiCouXigZsNBNBsSiAl9rXad4/z0iA0DKXPxQE1EgZT5eBBNBAQ7EQ9uRoTp8UFeY0A/y85PuOfk0tjucREFUiaiQMpcPIgmwkDeuZhw47pIXnfoDzcjwuXqzfl4oOaiQMpEPFATwUDsIj/BAgDUHJ2aGzk69Z6PB2o2HEQT8UDNxYNoNh6o2dccZmZ4xLvPDM5PDw/Nn698cX6mWpuIAilz8SCaCAN558NBNBEQ1NYiAtc5YpvJXne4Z3ypsOlBIZsIA3nnwkE0EQbyzsYErovsD5/9t8vjzRGhf4PC51++VNn78gX+pQMAaHJkqjScxYSWg0KrUUHEAzUXDqLZeBBt9byEypHpEgcJ94HB0szQF8szhbWAoCbCQN65cBBNhIG88+EgmogHDXvk0rnKI5fOcVU3tq/dJ7PrIpcqBAU/FxReWCrzukNv+uy/XBrz8UDNxwM1FwVSJwKCXXNE4GYGAIB27Ezp+NGz71U6EhRajAouHESz4SAYMaG3Za8xDJbPjw3ZaLDeRBjIOxcOookwkDIfD9R8RHj0Itc5YoeoXRdZOz9huUpQ0GsOCovjvO7QOz73r5dGPvevl6trc/Egmg8Idi4IpE4EBLMiEQEAsJHV6yFvxoRuBYWWo4KIB36zRX7x1XsG58+fGJw/X8kiQuNcOIgmwkDKXDxQE1EgZT4e6D1y8VzhsYvT/DwOO092XWT9dYeORAURBlLm4oGaiAIpa3zdYc/zy/yDoss+99LicFNE6FBQ2PSo4APCjYjAT6AAAK2pxYSpuXJjTGgrKthwEE3EAzUXD6K5gEBM6EWrTyHMFGxAUHPxQE1EgZS5eBBNhIG8s+FgbReny49cnOZcK+Cek0vH7xlfLm+roLDJUaEhKPAPjS65/18Xh1w8UHPhIJqPB2ouCqSMiAAASJBdD3nk7FzRhoS2gkKrUUHEAzUXDqK5iLC6Y+fnuPK4ywZL0/sGy+fLQ+WZam0iHqi5eBBNhIG8c+EgmggDedccErjOEXDq10V2LChkE2Eg71w4iCbCQN4RE7pjz0sX9332pUuVz/3L5WptNh5Ec/FAzccDNRcF8o+fMAEActsoJmx6UGgxKrhwEI2Y0FNuRITKWkRonIgHai4cRBNhIO9cOIgmwkCuXeA6R2BdtdcdblwXSVAI9hyvOWyl2jWPL10qr0WExtlwEM3Fg2g+INiJMNDO+IkSACBZKzGhW0Gh5ahgg8L0LL9Rs8VuHKp480mE9SYCgp0LB9FEGEiZiwdqNgy0ugvT5UcvzHD4OtCq7LrI3eNLRRsUNj0qiDCQMhcP1GwYyLF7n1sqcwBj59Uiwr9cLrqAYGfDQTQXDqL5gKAmQsF6IyIAADbVkTNzYzYeRHPxQM2Gg2giHqi5eBDtRkw4OsMv2LbSYGmmMFSaqdZmw0E0ERDsXDiIJqJAylw8ULOhINgXL05XHrlwnuscgbwar4u0c1EgZSIKpMzFg2giErS6e59fHLXfL2yu7JrHz/7L5Wo2Fw+i2Xig5sJBNB8P1EQ0sCMiAAA6ohYTzvpwEM3FAzUbDqKJeKDmwkGwY9NcC7lVBkvnT6xFhMbZcBBNBAQ1Fw/URBRImYsH0URAqEWEC+fHOAcB2ATZdZH3nFwetSGhI0EhmwgDeefCQTQRClrZ7hcXeVeqQ+5/6dJIPSI0zoWDaDYeRHPxQM3HAzURELL/nJoNAOiotZiw2UGh1agg4oGaDQd6s2V+EddZtVcaSucrLiJ0OyhsclRw4SDaWkSYLgxynSOw+e4+ubzPXhdJUFjid5o7ILvm0QYEOxcOotlwEM3Fg2g+INjdjAgXed8TALAlmmJCt4JCi1HBxwOzc7NF+/Vh8wyWZkYGbThYbzYeqIl4oObCQTQRBvLOhQOzL16Yrjwyz3WOQMep6yLtXBRImQgDKXPxQM0Hg3A8lbC5shsa7v/ppcpnX/LxIJqLB2o2HERz4SCaDwjNIyIAALaWiwltRAUXDqLZcBBNBAQ1FxFu7Ng5bnLolIdL5ytZSKjPhYNoNh5EEwHBzoWDaCIMpExEBK5zBLZS9rqDui7SzkWBlIkokDIXD6KJeNC4e59b4tH1TZIdrvjZly6VaxGhcSIeqLl4oGbDQTQXDqLZgEBEAAB0TxgTWgwKLUcFGw6iiXigZkPC6rjJYbMNlqaHGyNCt4NCy1FBRIGUPXJhujBY4jpHoGuy6yJ3n1wetwHBzkWBlIkokDIXDqKJiHBjBft9QT6ffely0UWETgWFVqOCCwfRiAgAgN6wbkzY7KDQalQQ8UDNxoSjU9zksJkeLp0ftwFBzcUDNRsOool4oObiQTQRBlrd0MJ0eZDrHIHesd51kR0LCtlEGMg7Fw6i+ZBQtd8PtO+zL14a++xPRTxQE/FAzYWDaDYeRHPxwG6RiAAA6AkbxoRuBYUWo0LDKw6VwakSv3O8SR5+b6Yy+N6sCwfRXDyIZuOBmogHai4cRBOhINrQwnTli/PTI/b7AaBH3HNy6cRGrztsx6Cw+7lFymaCz724OFyLCI2z8SCaCAh2LhxEs+EgmgsIRAQAQO9pKSa0ERVcOIhmw0E0ERDUssMXeY893WBpel8tIjROxAM1Fw6i2XgQTQQEOxcOoolwYMZ1jkA/WL0ucmnMxoNoLgqkTISBlLl4oJaFhOf5RWRe2eGKLiJ0KCi0HBVsOIhGRAAA9Li2YkKLQaHlqGDDQTQRD9w4fDHZYGlmyIWENqOCCwfRbDiIJgKCmosHajYgzE8XeI0B6EO16yJPxtdF2rkokDIRBVLm4oHbIo9K5ZAdrnj/TxfLLh6o2XAQTcQDNRcPotl4YPbZf708ar8uAAB6SdsxYbODQqtRwcYD+2QChy8mGZybGXHxQE0EBDUXD9RsOIgm4oGaiwdiQ/PnK4Nc5wj0v90nl4fvObn+dZEdCwrZRBjIOx8QCAkp9vx0sXD/Txer9bl4EM3GAzURD9RcOIimIsK/XOJ3RwAAfSFXTOhWUFgnKhyZLu2zXxta03JI6ERQaDUqiHigZuPB2sozo7zGAGwja9dFnlyu1iYCgp0LAqkTYSDvCAnp7n9xcaQxInQsKLQYFVw4iEZEAAD0qSNn5gouFLQzERDsXDiIZsNBNBcTZsv8QjGftkNCN4NCi1GhISBwnSOwna1dF9lGUNj0qCDCQMoICe2774VLx208UHPhIJoNB9FEQFBz8cCMiAAA6EeDE6VbjpydK7pA0O5EQFBz8UDNhoNoDTHh6LlZrt7OIXdI6OGgMDh/vjy4MHPcfq0Atqnsusja6w7bJCjsfpbD9lq1+8XFXXt+crly/4uL1dpEQFBz8UDNhoNoIh6o2YBQiwgvXR63XxMAAP1i02JCNhEP1Fw8ULPhIFo9JkzP8Zs4bRoszQ67OJB3IiDYuXAQzYaDaM0BoTI4P8NfA8BOtfq6w1Klq0Ehm4gD7YzrH1u35yeXi2sRoXEiHqi5eBDNxgM1EQ/UGkJCMTsg0n5NAAD0k02NCdlEPFBz8SCajQdqWUyY4kT+dgzObHBrQ56JgKDm4oGaDQfBBsvZdY68xgDseGvXRdZjQhtRwQWB1IlI0Mrs1wRtz08uj7qAYCfigZoLB9FsPIgmAoIZEQEAsG0cmSztOzL5XsVFgZSJeKDmwkE0Gw/Mjk7NVTgvoXXZ9+rhudlqfS4KpEzEAzUXD6LJgDBTzK6wtF8XgB1u9XWHpUKeoLDpUUHEgnDPLhbt1wKvdi6CjQYbTQQEOxcOotlwEM0HhOr9L12qEBEAANtNPSYcOSOiQOpEQLBz4SCaiAhrMYHzEtry8OxMsTEm9ENQGCyfrwyWzp+wXwsANMmui2x63aHXg8KzS/yDbQPuXIR2JwKCnQsH0Ww4iNYQEfa8dJGrpgAA29LR06WhLCTU54JA6kRAUHPxQE2EhBtPJvCufIsempsZtSGhI0EhmwgIdi4cmA2WuM4RQBtWX3dYHnUxoQeDQnYThf38aLbnxcWCiwN5JgKCmosHajYcBCMiAAC2uyOTpeHGmNCRqCDigZqLB9FcTOCR91YMlkq7bECwc0EgdSIgqJmAUBgsTfNzMAD5ZL9Il687dCsoZGuMCD9e4hrADdz3wuLInp+IKJAyEQ/UXDyIJgJCts+9xG0cAICd4dDZ0gkbEvopKHBeQusenp0t2HgQzUWBlIl4YPdw6Xx5sMR1jgA2yT0nl443XRdpJwKCnQsCqeNphA3d/+LiUBYRGueiQMpEPFBz4SBaQ0S4/6eXeGUFALCjHD4zN2YjQseCQjYREOxcOIi2GhO4orkF2e0ND8/OVmsT8UDNRYGU6YBQGSzNjBCDAHSEuy7STgQENRcFcmz3s8u8j7eOvSdLt+z5yWLZhoSOBIVsIiDYuXAQ7hJPmgAAdqQjk3MFGxDsXBBInQgIai4eiB09N8tvBLTgoZmZ0bWY0K2gkG01IoxznSOAjrvxuoO/LnIrg8L4Ejc1bGDPC5fHbTxQc0EgdSIgqPl4sLr7f3qJ058BADvW4ETplsOTc0UbD6K5KJAyEQ/UbDxoCgln5yrZbRT260Kz2lWQMzPFppjQRlRwQSDHHp7jOkcAXZBdF7n75FLRRYQOB4Xd48vlvSdXeOxqHXueXxze88JidW0iIKi5KJAyEQ/UmkLCi5eLXPMIANjpBqZKu2rXQk76cBDNRYGUiXigZiPC2s7O8hs+LRicnt730MxMxYWENoJCnqjw8HszlcEST44A6LJ7Ti6dWPd1hzaigo0GfkuVPSeXqdzrqF31+PzlSlNI6IOgcP+Llyp7X+TMCwAAMtnv6tdCQn0iHqi5KJA6ERDsXEioxYS5Ufs1wdswJmx2UJibGeMcBAA9Y93rIu1EQFBzEWE8e/qBX2huZM/ziwUXEOxEPFBzUSB1Nh40jGseAQBoVrsWsjEmtBEVXBBInQgIak2vOXAlZEtuxISyCwh2Ih6ouXhQe41hluscAfSuu08u7wuvi7QT8UDtRkgY5XWGjd373NKJPS8sVVcnAoKaCAh2LgikzkaEF7nmEQAA5cjk3KgLCX0TFGbL2ZkP9muCVzszYXZ23MUDNREP1FYDwkx5sDTLz7MA9IcNr4tsOSjUnkKgZrdgz/PL+25GhMaJeKAmAoKaiwIpyyLCTy/z6CMAAOs4fHpu3EWENoPCpkcFEQ/UeMWhPcdmZo639HTCBlHhobmZykNzXOcIoE/tPrk83PITCo1R4eTyeBYj7B8PsfteWCz6iNDbQWHPi4vc0AAAwAbWbnKwAcFOxAM1FwVSJuKBX4nfFGrTQ7Ozww/PzhZcOIhWDwizM2UCAoBtIzvb4EZUGMvCQuPTCtn//cZ/lp2xMJydt2D/91jffc8tjtz3vA0H600EBDsRD9RsHGhj5b0n+ZccAACtWD18sbR6k8NGE/FAzUWB1LmAcGNn36vwikM+g6XSriwqPDQzM5qFBfG0QhYbxh+amRnJzlqw/3sAAKTslYYsIjTOh4NoIiDYiXigJkJBuD0/uVzZ8zyHKwIA0I7DZ0rHj0yWqqsTAUFNBAQ7FwRSZ0NCLSbMjduvBwAAdMm9zy8WbUjoSFBoMSrYaKDG4YoAAORz+HRp5GZM2NygsOlRwcSEY2dKvLYKAEC31V9p2Gg+HEQT8UBNBAQ1GxBuPI3AoUsAACQ4fLo03hwT+iUozHGLAwAA3aReaWhlPh6oiXigJuKBWkNEKNqvAwAAtCf7xfiR06WyjwltRAURD9RcFEjcEW5xAACge+57fqlgI0E78/EgmggIdiIeuL1wucLhigAAbI4bhy+KiNBmUGgxKtggkHtn3qsMTJV22a8HAAB02L3PLZ2wYSDvfDiIJgKCmg0IN59K4OonAAA20ZHJ0rCPB2oiHqiJgKDm4kCLO3JmrkBEAACgC7KrNO/78WLlvud8FEiZDwfRRDxQa4gI972wOGK/DgAAkO7wu6Wxw6dtOIgm4oGaiAdqNhSEO/Ne5ejZ0gn72QEAwBa577mlQi0iNE6EgZT5eKAm4oFewX4NAABg8xx6t1TMYkLrQaHFqCDigZoLBzyFAABA77jvx0vHXUToelBYJyo8z7kIAAB0Wnb44uHTpUo9Jmx6UGgxKvAUAgAAPWbvyZVb7q2/0tDKRBjIOx8OojWHhPuf41wEAAC2wsDp0lBjSOhmUOApBAAAesS9P14cvffHS9X6XDiIJsJA3vlwEI1zEQAA2GqHT5dGbEjY0qAw+V7lEE8hAADQG/Y8v7yvMSJ0Oyhk8/Hg5u57YbFovwYAANB5h0+XCjYi2Pl4oCbigdpaROApBAAAesq9zy4WbUBQc/FATUSBlNmIsOf5xcruFxf5iQQAAC0YmCjtGpgoDWWvJtReT3inNNK4Q++WRg+/UyrUthoJ5A69WyrbYLDRfDyIJgJCww6fnuMpRAAAesm9zy6dsMFgo7l4oCaiQMpuPo2wdNx+DQAA7DRHJkr7aoHgndLwwDulkdqKpUJt75TKh94pVdUOv9viRBjIOx8OormIUDl0unTi6OkSZyIBANAr6gcs2lDQ6lw8iCbCQJ7d+9ziuP0aAADYjrKbEmqhYKI0PDCRRYLyWBYJDr1Tqtg4kGcuHEQTYSDvfDiI5oJCw+YK2bKnFLLzErLIwCsPAABsod0/XhqzcSDPXDiIJuJAq7v3uaVyFj7s1wAAQD+rB4NDE6UThyZKowPFcuFQsVw5VCxXw4kwkHcuHEQTYSBlPh6o2YgQrOEchcOTc+OHz8yNHD5TOn5ksrTPfr8BAECC3ScXh+59dtlFgZS5cBBNhIKNtpurHgEAfe7A6usI9ScMNg4GG02EgZS5eKAmokDKfDyIJgKCnb3loTEwnJkbqz/BYH9cAABAi3aPLxVqIaE+EQZS5uKBmggGavc+vzhqPz8AAL3sxiGHwwcnSqMHJ8qFgYlytXEuCqRMRIGUuXgQTYSBvPPhIJoICGo2JpgdPjNXPHJmbuxoFhemiAsAAGxo97PLw00RodtBYZ2ocO/zi0VeaQAA9LraeQZvl0YG3i6PD/yqXLHhIJqLAqkTYSDvXDiIJsJA3vlwEE3EAzUREdSOns3+z7nCkbNzo8fOlI5nr5zYH2MAAHas7Bflu8eXyy4gqIkwkHcuHEQzIWHP88u83wgA6Dn1cHDw7XJh4Ffl6roTAcHOBYHUiTCQdy4cRBNhIGU+HqiJeKAm4oFaFhRubq6cPbVwZKo0zIGOAIAdbfezyyMuGGw0EQbyzoWDaFlIeG6Re6MBAD2hdr5Bq+EgmggIai4KpEyEgZS5eKAmokDKfDyIJgKCnYgHas1BoTks8MQCAGBH2X1ycZeLBO1MhIGUuXjQsHt/vFi0nx8AgK2SnXFw4K3S8IG3yuMH3y5XXBRImYgHai4KpExEgZS5eBBNhIG88+EgmggIdiIeqPmYcHNHzs4Vj56ZG+F2CADAtrZ7fGnMxYE8E1EgZTYiZOOVBgDAVsueOjjwdmn0wFvl4sG3y1U1FwVSJuKBmosCKRNRIGUuHEQTYSDvfDiIJgKCmggIdjYiuJ15r1J/DYKnFQAA20Z23ePucREFUifCQN7dDAm80gAA2BoH31o4fvDt8tjBt+crB9+ed+EgmosCKRPxQM1FgdSJMJB3LhxEE2Eg73w4iCbigZoICGouIohlBzdmN0JwtgIAoK/dM75UyEJCfS4IpE6EgTzb/exSmVsaAACdsneidMuBt+ZvvLKQhYNoPh6ouSiQOhEQ7FwQSJ0IA3nnwkE0EQZS5uOBmogHaiIeqNl4EK32CgRRAQDQb+45uXS8MSLYuSiQMhEH2tnu5xa5yxkAsKma4sFb89W1uXgQzQcEOxcEUicCgpqLAikTYSBlLh6oiSiQMh8PoomAYCfigZoNB+uNqAAA6Bv3jC+XbTxQc1EgZSISbLzFUfvZAQDIq/bawlvlsaZ4oObCQTQfENRcFEiZiAdqLgqkTESBlLl4EE2Egbzz4SCaCAhqIiDY2Wiw0YgKAICetfvk8vDuk8vV2kQ8UHNRIGUuFkRbrPBKAwAg1YHXS/sefKM8duCN+cqBN+er9bl4oObCQTQfD9RcFEiZiAdqLgqkToSBvHPhIJoIA3nnw0E0EQ/UREBQs9Fgo2VnKnBQIwCgJ9x5cuWW3SeXKmshoZtBIZuLBzd334+XjtvPDwBAKwZOlXY9+Mb8iQNvzJcb44GaiwfRXDxQ8/FAzUWB1ImAYOeCQOpEGMg7Fw6iiTCQMh8P1EQ8UBPxQM0Ggw134/aHo1MlXvUEAHTH7pPLIy4i2ImAYOeCQOpMRNj97FLBfnYAADaSvbpw4I3yuI0FrcyFg2guHkTzAcHOBYHUiYCg5qJAykQYSJmLB2oiCqTMx4NoIiDYiXig5oJBS5srHz0zN8KrDwCALRM+jRBNBAQ1FwVSVg8JJxf5FyQAoCXZ0wcH3iyP2lcX8s6Fg2guHETzAUHNRYGUiXig5qJAykQUSJmLB9FEGMg7Hw6iiYCgJgKCnY8FrW5u/NiZEk9vAgA6q6WnEdREPFBzUSDndj+7PGI/OwAA1sHXFo4feL08fuCN+eraRBhImYsHai4cRPPxQM1FgZSJeKDmokDqRBjIOxcOookwkHc+HEQT8UBNBAQ1Hwta2epTCpylAADYdG0/jaAm4oGaDQPtbPf4ctl+dgAA6rJrG2tnH7w+X24KCHYiCqTMxYNoLh6o+Xig5qJA6kRAsHNBIHUiDOSdCwfRRBhImY8HaiIeqIl4oOZjQWvLzlI4MlnaZ/++AQAgl3tOLo25MJAyERDsbCRoZbtPLnKQEADAWT08cWHswdcXKg++sVDN5uJBNBEG8s6Fg2guHkTzAcHOBYHUiYCg5qJAykQYSJmLB2oiCqTMx4NoIiDYiXigZkNBq6vf+GD/PgIAoGXZeQP3/PNyNZsLAqkTAUHNBgO58eVx+9kBADvb/jcvDD34+sJ4PR6ouXAQTYSBvHPhIJoLB9F8QFBzUSBlIh6ouSiQMhEFUubiQTQRBvLOh4NoIiDYiXigZkNB65srHz1bOsFrDwCAtt3zo6WxekhonIsCKRPxQM3Fg+anEThgEQBQc+D1+eH9r88XH3x9oVqbCAh2LhxEE2Eg71w4iObCQTQfD9RcFEiZiAdqLgqkTESBlLlwEE2Egbzz4SCaCAhqIiDY+VDQ4s68V+G2BwBAyxqfRojmokDKRDxQcxGBAxYBADcCwoOvL5TXAoKdCAh2LhxEE2EgZS4eqLlwEM3HAzUXBVIm4oGaiwKpE2Eg71w4iCbCQN75cBBNxAM1ERDUXCxocdk5CgQFAMC67vnRFfk0gpqLAqkTAcGuFhHGl8t7T67wyB0A7FC1AxRfmz/x4GvrBAQ7ERDUXDxQE1EgZS4eRHPxQM3HAzUXBVInAoKdCwKpE2Eg71w4iCbCQMp8PFAT8UBNxAM1GwpaHUEBACCtPo1wpdo8HxDsXBBInQgITTu5zGFAALADZQFh/6n5kQdPLVQefG2h2jQbDqKJeKDm4kE0EQbyzoWDaC4eRPMBwc4FgdSJgKDmokDKRBhImYsHaiIKpMzHg2giINiJeKBmQ0GrIygAAJqsPo1gQ0JvBYV7xpcK9nMDALa3dQOCmo0HaiIeqLlwEE2Egbxz4SCaCwfRfEBQc1EgZSIeqLkokDIRBVLm4kE0EQbyzoeDaCIgqImAYGdDQasjKAAAgqcR1HxAUHNRIGVNTyNw3SMA7CQPvDZ/Yv+phcr+1xaq9blwEM3Gg2giINi5cBBNhIGUuXig5sJBNB8P1FwUSJmIB2ouCqROhIG8c+EgmggDeefDQTQRD9REQFCzsaCVERQAYAerPY3wIxsN1puPB2ouCiTsnpNLY/ZzAwC2pwdOzQ/vf22h3BgQ7Fw4iGbDQTQRENRcPFATUSBlLh5Ec/FAzccDNRcFUicCgp0LAqkTYSDvXDiIJsJAynw8UBPxQE3EAzUbC1oZQQEAdpg7T67ccs+Pliu1kNA4Fw/UfDxQs1Eg37juEQC2u/2vLhzff2qhvP/UQrU2ERDUXDxQs+EgmogHai4eRBNhIO9cOIjm4kE0HxDsXBBInQgIai4KpEyEgZS5eKAmokDKfDyIJgKCnYgHajYWtLQzcyODEyUOxQaA7e7uHy2PuIjQdlBoLSr4ONDa7jm5PGo/NwBg+9h/6sLQA6fmC2sBwU7EAzUXD6LZeKAm4oGaCwfRRBjIOxcOorlwEM0HBDUXBVIm4oGaiwIpE1EgZS4eRBNhIO98OIgmAoKaCAh2LhZstDPvVbKgYP8+BwBsE+HTCGouHETzAUHNxoJ4S5Xsc9rPDgDof3tPlXY98MuF8f2/FPFATcQDNRcOotl4EE0EBDsXDqKJMJAyFw/UXDiI5uOBmosCKRPxQM1FgdSJMJB3LhxEE2Eg73w4iCbigZoICGouGqy7ufKRqRK3bQHAdnP3D5dH7v6nK9X6XDxQc+Egmo8Haj4cuFG0AWCb2fty6Zb9r86P1AKCnY0H0URAsHPhIJoNB9FEQFBz8UBNRIGUuXgQzcUDNR8P1FwUSJ0ICHYuCKROhIG8c+EgmggDKfPxQE3EAzURD9R8NIh35Mxc4ehUiQOzAWC7uPuHV8qNIaGtoNByVPDxQE0EhOyVhjJPIwDA9lI7SPHVhYoLCHY2HEQTAUHNxQM1Gw6iiXig5uJBNBEG8s6Fg2guHkTzAcHOBYHUiYCg5qJAykQYSJmLB2oiCqTMx4NoIiDYiXigZqPBeuNARgDYBu7+p+VhGxDsXDiI5uJBNB8Q7ExM4HE4ANgmsnMQ9v9yobj/lxeqNycCgp0NB9FEPFBz8SCajQdqIh6ouXAQTYSBvHPhIJoLB9F8QFBzUSBlIh6ouSiQMhEFUubigZqIAinz4SCaCAh2Ih6o2WgQjvMTAKC/RU8jqLlwEM2Fg2g+INjd/c/LZfuZAQD9Z/U1hoWx5oBgJwKCmo0HaiIeqLlwEM3GAzURD9RcOIgmwkDeuXAQzYWDaD4eqLkokDIRD9RcFEiZiAIpc/EgmggDeefDQTQRENREQLBz4SDcXJnXHQCgz9z1w6tDNha0OhcP1Fw4iOYDwlpI4GkEAOh7D/zywokvvHKh4sNBNBEP1Gw8UBPxQM2Fg2g2HkQTAcHOhYNoIgykzMUDNRMODrw1Xz74VrlQ29vlsQNvz4+srjRy8K3S8YE3S0NNm8j/6PrARO1/bzc88HZppLaJ0sjBiXKhPhsSOhIUsokwkHcuHEQTYSDvfDiIJuKBmggIaj4eqM2N87oDAPSJu/9puWADQbtz8SCaiwdqPI0AANvJ3lcu7nvg1YXiA69eqDbOh4NoIh6o2XgQTQQEOxcOotlwEE0EBDUXD9REFEhZPRoceHMtEowdeHN+5OBb8yfqQcD+mPayvROlWxrCw1pwGCiWCy4KpEyEgbxz4SCaCAMp8/FATcQDNREP1Hw8MMtedzhbOmF/XAEAPeTuHyzvs1EgZS4cRHPxIBpPIwBAv8peY/jCKwujNiCo+XigJuKBmg0H0URAUHPxQM2Gg2giHqi5eBBNhIF198Z85cCb5cKDb6zGgv1vloYOvF7aZ3/strOG0DCcRYZDxfL4oWK56EJBqxNhIGUuHqiJKJAyHw+iiYBgJ+KBmgsIZkfOzhWPTO6svzYBoG985gdXxu7+4ZVqbSIM5J0LB9FcOGje3f98hacRAKAP7f/FhaEHXlko22Cw0Xw8iCYCgp0NB9FEPFBz8SCajQdqIh6ouXAQzQaDN+erD745X2wMBgOneGR8I0cmSvsOT5SO155kWH2CoeLCQTQRBVLm4kE0EQbyzoeDaCIgqImAYGcDgtuZuZHBiRK3dgFAr8iuUlyLCI0TYSDvXDiIJiJCLSTwNAIA9JXaUwivLozZQNDufDiIJgKCmo0HaiIeqLlwEM3Gg2giINi5cGD3+nw5iwYPvjF/IosG9scF+WW/iF17TaLVuCDCQN65cBBNhIG88+EgmogHaiIgqLmIsDYOYwSAnnH3D5dHXEToUFDI5uKBGk8jAEDf2v/zheNf+MWFio0CKfPhIJqIB2o2HkQTAcHOhYNoNhxEEwFBbTUclAsHXp8fOfjawvHsUX37Y4HOyg6RrL0aUSyPrftahAgDeefCQTQRBlLm44GaiAdqIh6o+ZCwuiNn50Z5OgEAuuwzP7hSdvFATUSBlLl4EIynEQCgP2RPITzwiwvjD7xyodo0EQZS5uOBmogHajYcRBMBQc3FAzUbDqKJeLD/9fnC/tezVxQu8LuyPSj7xW32SsShidKoDAsiDKTMxQM1EQVS5uNBNBEQ7EQ8ULMhgacTAKDL7v7B8vBnfni1Wp+LB9FEGMg7Gw6aIsKPeBoBAPpBdhZC7SkEGxG6HhRajAo2HEQT8UDNxYNoNh6Y7X99vrj/9YVRwkF/uvE6RO2JhYFiudzVoLDJUcGHg2giIKiJgGDnYwJPJwBAV9z1w6uFxpDQa0Hh7n/iaQQA6GW1sxB+vjD6hV9cqGZz8SCaCAN558NBNBEQ1Gw8UBPxQM2Fg2j1ePDaQuXB1xbGDrw+P8yrCttPdojjoYnSiaYrKEUYyDsXDqKJMJB3PhxEE/FATQQENRMTuNkBALZKduWjDQh2LhxEE2EgZTyNAAC9b+8rF/ft+/lCuR4RGufCQTQRBvLOh4NoIh6o2XgQTQQEOxcOmlfe/9rC6P5TPHWwkzQ+rVA7uFGEgbxz4SCaCAMp8/FATcQDNREP1JqeUDgzN2K/zwCATZZd+fiZH/h4EM3FAzURBfKPpxEAoFd94RcXRmw8UHPhIJoIAynz8UBNxAM1Gw6iiYCg1hgPDrx+kd9FRU3tusksKrxT2vqoIKJAynw8iCYCgp2IB2prTyecmSsMTHHFKQB0RHbl42d+cKVSCwn1iXig5uJBNBcG2tlyxX5mAED37X25tOsLv7hQsMGglbl4oCaiQMp8PIgmAoKdDQfRRDy4sVo82HuKX+RgfatRobSpUcHFAzURBVLmw0E0ERDsRDxQW30y4b3KsTOl4/b7CgBIVDtksTEi9FpQ+OEyj6YBQI/Z+/OF4/t+caFiA0G7c/EgmggDeefDQTQRENRsPFBriAc8eYC8Dr+7FhVcHMgzFw+iiTCQdz4cRBMBQU0EBLsbTyeMcRAjAGyiz/zjlbILCGoiINi5cBDNxoJwy5XsiQn7mQEA3fOFn19cO1Bxs+bCQTQRBvLOh4NoIh6o2Xhwc2P7X13gd0SxaWpnKryTnalQKtg4kGcuHEQTYSDvfDiIJuKBmggIdofPcBAjAGyKu753degz/3i1WpsNB9FEQFBz8UDNhQOzHy6P2s8MAOiOvS8v7vrCzy4Wv/Dzi9WmiTCQdy4cRBNhIO98OIgm4oFaFg9+OV984NT8cHaThf0+AptpYKK0a+Cd0sjAO6WyDQTtzoWDaCIMpMzHAzURD9REQGja5HuVI5Mlzt4CgBSf+f6VsbWQ0M2gEESF3ScXeXcUAHrA3p9fOr7v5xcrLiJso6CQzccDNREPsr26UNn/6sLYgVd4dQHdkb36cKhYGreBIM9cPFATUSBlPh5EEwHBzgYE/3QCrzoAQB61Qxa/f6XiQkK7UUHEAzUXDqLdiAif+acrY/YzAwC23t6fXxzdZ6PBehNhIGUuHqiJKJAyHw+i8fQBek/9KYXNOKDRxYNoIgzknQ8H0URAUBMh4UZMKHKrAwC06dPZIYs2HESz8UBNxAM1Fw6i/WCZ39EBgC7KfmG892cXC1lEsHPxQE1EgZS5eBBNhIG88+GgYa8ujO0/dWHIft+AXpKdpXCoWCraQNDuXDiIJsJA3vlwEE3EAzURE7JXHQ5zqwMAtO6uf7xavOsfr1azuXAQzcaDaCIg2Llw0LTlgv28AICts/eVi/v2/uxC2QYEOxcPookwkHcuHEQTYSDvbsaDC5X9r14Y4dpG9JuBidLQZtz44MJBNBEGUubjgZqIB2o2Jqw+ncAtYQCwkex3++sRoXEuHESz4SCaCAhqLiT8YJlDcACgS/b+7OLw3p9drOz7mQ8H0Vw4iCbCQN65cBBNhIG298pC+YFXeH0B/S977eFQsTS6Za89iCiQMh8PoomAYGdjwuTcOOcmAMA67vr+1VEbEexcPFCz4SCaiAdqqxHhStl+XgDA1tj7s4ujtYCgJgKCnQsH0UQYSJmLB2o2DrSyGwHBfp+AfnfjCknOUTBRgXMTAGAdd33vSsWGg2guHkSz8UBNxAO7u354lUfLAGCL1c5DKFwsuHigJgKCmosHaiIKpMzFg2g2GNi9cqGw/xecf4DtLwsKh94pnejX6yN9OIgm4oHajXMTjp4u8fc/ADS66/tXj9/1/avVtYl4oObCQTQbD6KJiJAtu03CfmYAQOfsffnivr2Fi8V9hYvV2mw4iCbigZqLB9FEGMg7Fw6iERCANdnBjP0aFLL5eKAm4oFaLSiUeBoJAOru+t6VsaaQ0GZUcOEgmg0H0RpDwg+48hEAttKNiFBZiwh2Nh6oiXig5sJBNBEG8s6Fg3gEBOCGzQoK2Vw8UBNRIGU+HqiJeCB2+MwcPzcFgOx3+108UBMBQc3FAzUbDqJlZyRw5SMAbJm9L18cduEgmo0H0URAsHPhIJoIAykT8SA7A6FIQAC0zTpDIZuLB2oiCqTMx4NoPiA0xYTTHMIIYIf79PeWh+/6nggH0UQ8UHPxIJqNBw276wdXi/bzAgA6Y+/LF0b2Fi5W63PhIJoNB9FEQFBz8UBNRIGU1QLCLzhEEWjFZh7KmM3Fg2giDOSdDwfRfERYiwmTc0ViAoAd69Pfu1qohYTG2XigJuKBmgsH0URI4MpHANgan3/5wlhjRNhJQWHfLy5U9v6MgAC0q3Yo4+q1kS4O5JkLB9FEGMg7Hw6i+ZBwY5UjkyWengWws9z5vcVdLiK0GxRajAouHERbCwlXKhyyCACdld3M8PmXLxZsPIjm4oGaDQfRRDxQc/EgmogE6y0LCF/4xYWR7Htgvy8AWjcwUdp1qFgat2Eg71w4iCbCQMp8PFBzIYGYAGDn+fQ/XDnh4oGaDQfRREBQc/FAjUMWAaCjViPCpeLely9V1ybigZqLB9FsPFAT8UDNhYNoIhq4/XxhbO/L3AsPbKaBidLQoWKpaMNAylw8UBNRIGU+HkSzQYEbHQDsEHf9w/vFu773fnV1IiDY2XAQTcQDNRcPGsYhiwDQOdnNDC4idDsotBgVXDiIZuPBakAo7uUgRaCjBiZKw5t1fkJ9Lh5EE2Eg73w4iEZMALCD3Pm9lV03I0LjRECws+EgmogHajYi3PWPHLIIAJ1yIyJUXDyIJgKCnQsH0Ww4iCYCgpqLB2qcgwBsudr5CROl0UPFsosCKXPhIJoIA3nnw0G01Zhw+PTciP1+AMC28el/eP+EjwhtBoVWo4KIB2prMeH7V07YzwsASNd2RGgzKLQcFWw4iCbigZqLB80b5RwEoDuOTJT2DRTLhe0QFLL5eKBWiwm8ogtge2p+rWG9iXigZuNBNBEQ7DhkEQA2396XLx3PHRE6FRRajQoiHqg1BYSfXeQ1BqBHHJoonThULFc2Oyhkc/FATUSBlPl44Hf4dImYAGB7yV5r+PQ/vF+tz8cDNREP1Gw4iCYCQm3f55BFANhsn3v54vDn/4+IAikT8UDNhYNoNh5EEwGhcXt/frHyhZ9d4NFioMesXhdZHq/FhG4FhU2OCjYe2BETAGwr2WsNjSGhvaDQYlSw4SCaCwlXj9vPCwDIrx4RGueiQOpEQLBz4SCaDQfRVET42cXC3pcXuY0B6GHZ7Q4DxXJ5LShsclRw4SCaCAN5ZwOCiQnjWUSx3wcA6Duf/vv3izYidCwotBoVVp9GqNjPCgDIT0WEbgeFlqOCDQfRbjyFsPdnFzhfB+gTTYcxbqOgkM2GhFpMmCwViQkA+pp9rWG9+XAQTcQDNRsP/Ebt5wUA5PO5f7s4/Pn/7eNBNBcFUibigZqLB9FsPGjY3gJPIQD9Sj6dsE2DAjEBQF+LXmvYaD4eqIl4oOYDQm13/2B5n/28AID2rUWExol4oOaiQMpEPFBz4SBaY0D4GU8hANtB+HTCJgeFbC4eqIkokDJiAoBtYaPXGjaajwfRRECwawoJV8r2swIA2icjQreDQjYREOxcOAjGUwjA9pM9nbB2s4OdiAIpc/EgmggDeUdMANC37nxm5RYbBvLOh4NoIiCIffr7V/hdJQBItGFE2AZBYe/LPIUAbFfuZgc1EQbyzoWDaCIM5B0xAUDf+fTfvT/86b/3USBlPhxE8/GgcXd+j99ZAoAUbUUEOxEQ7FwQSJ0ICGoNTyEU9758kVfggB1gYKI0HD6dsE2CwqF3iQkA+sQf/P3747WQUJ8IAynz8UDNR4S7/uFq0X5WAEDrkiJC40RAUHNRIGUiHri9fHF078v8hBvYSQYmSrsOFctFFxDsRBhImYsHaiIM5FzBft0A0HOaIkIPBYVP/wOvNQBAXllE+Ny/iSiQMhEP1FwUSJmNB4WL1c8XLlb2vnzpuP2aAewc4UGMdiIKpMzFg2g+DrS3d0tj9msGgJ5x199fPe4Cgp2IAinz8UCP1xoAIJ/7//XCUBYRGueiQMpEPFBzUSB1qxGhyIGKADKHJ0rHN3zVoUNRwYWDaDYQtDNiAoBe9Qd/d3XsD/5OxINoIgzknQ0HTfuH93mtAQBy2PPSxX2f/bdLFRsSOhIUsomAYOeCQO5dHLVfL4CdreVXHfo1KBATAPSiP/jbq+UsJNTnwkE0EQbyzkWE79X+c15rAIA2bRQRuh0U8kaFz798qbL35YvD9usFgLqBYnnMBYONJsJAylw8ULOhoIUderdERAXQO+78u+V9jRGh20Eh283XGlZ4bBUA2pA97r8aES5Xb84HBDUXBVIm4oGajQXRPv/yJW5lANCSlm51UBNRIGUuHkQT0SDawDslYiqA3nDn375/wgYENRcP1EQUyL2/57UGAGhHdnPB5/71crE5IvR/UPj8yxfHuZUBQDuOTJT2DRTLZRcLWp0IA3nnwkE0EQ7UiAkAuir73f47/+79Yftaw0Zz8SCaDQPtj9caAKBFG0eELgeFbCIg2NmIsPflSyP2awWAVgxOlG4ZKJYLLhK0MxEG8s6Fg2giHtgdmSzxhBaArXHnMzfCQXawYpvxQM2Fg2g+ELQ0XmsAgNZ99l8uj3/uXy9X1+biQTQfEOxcEEidCAh2n/s/nIcAYHPkOjfBToSBvHPhIJoICA2rEBMAdMSdz6zccuffXD3+B39zbewP/ub98h/87bXq2kQYyDsXDqKJWBDvatl+PQAA7bP/cmmsKSJ0KChselQQAaEhIvATZACb5sa5CT4QtDsRBlLm4oGajwhrMSF76sJ+rQDQtjv/bmXfnX97beQP/vb9YlM4iCbCQMpcPFBz0cDvD/7hKqfSAkALPvcvl064eKDmwkE0Hw/UXBRIWXNIKHIeAoBOGJgoDeU6hFFNRIGUuXgQzcSEQ++WisQEALlkTx3c+TfXxu78m/fLu/72WtXOxQM1EQVS5uJBNBERsmU3SdivEwDQ7HMvLQ5/7l8uV9dm44GaCwfRfDxQc1EgaRyqCKCzDqQewqgmwkDeuXAQrTEmnC6N268TAJzVVxbeH77zb66N7/obHw6iuXgQTYSBvHPhIFpjSPj7qxX7NQMAmu156eK+z750qdIUEtoJCi1HBR8P1HwUaHtj9msEgE7Ymx3COFEuuiCQOhEG8s6Fg2j1oPBuiX+GAvBcPFAT8UDNhYNoIgzknQsH0bLXGv7+Kv8gBIB17H1xcVcYEToWFFqLCiIQbLjP/RuHKgLYWjdiwvjARLmazUWBlIkwkDIXD9S4FhJAo9prC2PXxnb99bVqbTYeRBMBwc6Fg2giDOSdCwdqf/c+/xAEgED26P9n/+Vy8bP/crmazcUDNRsOorlwEM0HBDUbDNSICAC6aWCiPFaPCdshKAycLg3ZrxHADnHnMyv77vzra6N3/vX7lbWAYGfDQTQREOxcOIgmwkDKXEC4sezpC/s9AQCsuv+ly+P1iNA4Fw+i2Xig5sJBNB8P1Gw8qAWE/83NDAB6w8GJ0mhjTNj0oJBNhIG8s/HAjGshgZ2k9urCX79/4lNj7xfvtNFgvdlwEE0EBDUXD9REFEiZCQlF+70BAKy6/6VLIzYg2LlwEM3Gg2guHqj5eKBGRADQq7LrIW1M6NegcOgdbnIAtr07n7k69Kmxa2NZPIjm4oGaDQfRRDxQc/EgmggDeZeFhD/4+6sj9nsEAPjYxz7700vHP/vS5WptIiDYuXAQzYaDaC4eRPMBoXGf/TciAoDeFMWEjkQFEQZS5mLCu9zkAGw7tacPnlk58amxa+U7x37twkE0Fw+i2XigJuKBmgsH0UQYyDOufQQAL7uh4f6fXqqshYQ2gkLLUcGGg2guHETzEeFz/3qpyPWOAHrZRjGhr4LCOyV+gw7YDu58ZmXXp565NvapsV9XagHBTsQDNRcOotl4EE0EBDsXDqKJONDqdv0t1z4CgFU7XPGly0UXEToVFFqNCi4cRCMiAOgvAxOloYGJcsUGBDsXBVInwkDeNQSF4/brA9An7nxmZehTz1wruHCw3kRAsHPhIJoNB9FEQFBz8UBNhIIN97fv8wgWABj3//Ty+Gd/KuKBmogHai4cRLPxIJqLB2b/epmIAKCvHJgo7Rv41cYxoQ+CQmVgorTLfn0Aetidz6wMr72+kHciIKi5eKBmw0E0EQ/UXDyIZoNBsDu59hEAmtz/4qWRWkRonI0H0URAsHPhIJoNB9FsQCAiAOhjazHhVz4eqLkgkDoRBnKtyOGLQM/Lzj+445mVE3c8kxgQ7EQ8UHPxIJqNB2oiHqi5cBBNxIOmkPC9FWopANxw/4uLQy4idCgotBwVbDiIRkQAsE00xYQWg8KmRwUbBnJsoFgas18bgB6wGhCujdzxzK8rn3rm19XGuSiQMhEP1Fw4iGbjQTQREOxcOIgmIsIf/O3Vsv2eAsBOlf3ie8+LlysuHqjZcBBNxAM1Fw+i2XjgR0QAsC24mNCnQWHgnRJP/wK9Yr2AYOeiQOpEQLBz4SCaDQfRREBQc/FArSkmXKWSAsANe366WLj/p4vV+lw8ULPhIJqIB2ouHETzAYGIAGDbkTGhW0EhmwgFLaxyZKLEDWlAN9UCwnevjdzxV7+ufOqvfl1dmwgIdi4IpE4EBDUXD9RsOIgm4oGaiwfBOB8BAFbd/+LiSGNEaDsotBoVRDxQc+EgGhEBwDYXxoQ2ooILAqnzsWD9cV4C0B1hQLATAUHNRYGUiXig5uJBNBsP1EQ8ULPhwC67GtN+rwFgp8nORbDxQM2Fg2g2HkQTAcHOhQM9IgKAba12NaQNCHYiIKi5KJAyGwzWGeclAFvsjr9cGd4wINiJeKDmokDKRDxQc+Egmo0HaiIeqNmAUNvfvM/5CAB2vL0nS7fs+cnlyv0vLlZrEwHBzoWDaDYcRBMBQU0EhOpnX7pUISIA2AkGJkrDLh6oiXig5qJAykQ4UDv8bum4/boAbLLbn1k5fsdfXSu7SNDORDxQc1EgZSIeqLlwEM3Gg2giINg1h4RrVFEAO979P7k8vhYRGicCgpqLB2o2HEQT8UCtMSLseeki790C2DFajgndCgrZREBoWGVgosQTwUAn3PadlaE7/vJawUWBlIl4oOaiQOpEQLBz4SCaDQfRREBQu/NvOB8BwM52/08unXABwU7EAzUXD6LZeKAm4oHd/UQEADtUWzGhjajggkDqfESobaBYKtivCUCC7H392797beyO7/662jgXBVInAoKdCwKpEwFBzcUDNRsOool40BQSOB8BwA625/mL+5peadhoIh6ouXAQzcaDaCIiZCMiANjJBt4uj7lY0MpEQFBzUSBlKia8UxqxXxOAHLKDFG//7q8rNiJ0OyhselQQ8UDNxYNoNh6oqYjwN+9X7I8BAOwke35yuehiQasTAcHOhYNoNhxEa3y14aVFnigDsOPljgk9EhS4EhJIcPtfrhy//bsr5Tu+u1JdnQ8Iai4KpEzEAzUXBVIm4oGaCwfRbDyIVg8Jf3tt3P5YAMBOUbvq0caBPBMBQc3FAzUbDoIREQDgpoNvlwsuErQzEQ/UXBRIXRYTuBISaF/tNYa/XBm/GRDsfDxQc1EgZSIeqLkokDoREOxcOIhmw0GwO//2Go9TAdiRsqse9/xERIGUiXig5uJBNBEQavvpJQ7JBYAGeydKtwy8XS66QJBnIiDYuSCQvNKo/ZoABO74zsrI7X+5UvHxQM3HAzUXBVInAoKdCwKpEwFBzcUDNREPmkPC1SH74wIA293qVY+L5Swk1OeiQMpEPFBz4SAaEQEANpTFhIO/KpddGMg7ERDsfBDIv4GJEj8vB9ZTu43hOyvFO/5ypdo0Fw+i+YBg54JA6kRAUHNRIGUiHqi5eBBNhAT7YwMAO8Gen1webYwIHQsK2URAsHPhINpLl4t7X+bxVwCIHJgo7Rv4VbniokDKREBQs2Gg3Q0Uy2VecQCEO59ZueX276yMuoBg58JBNB8Q1FwUSJmIB2ouCqRMxAM1Fw6i1Z9G+Ov3i/bHCAC2u/ufW32lYaO5IJA6ERDUXDxY26UyEQEANjbwZmno4NvlajYXBVIm4oGaDQRtbYJXHIAm2VMIt397pXzHd1aqtdl4oObCQTQfD9RcFEiZiAdqLgqkTgQEOxcOgt35N9d4PBbAjlJ7peGFxfKeFxartYmAYOeCQOpEPFBrjAj3v3ipwjWPANC6A2+Vhusxod+CAq84AI1PIdQDgp2NB9FcPFDz8UDNRYHUiYBg54JA6kRAULPxoDkkvM+J3wB2lD3PXx5diwiNEwFBzUWBlIl4oHbjaYTj9msBAKzvwNul0caYsOlBIZsICHY2FGw0XnHAjueeQlhvNhxEc/Egmg8Idi4IpE4EBDUXBVIm4oGajQi1kPDMCr+7BWDHqL3SYAOCnYgHai4KpEzEg6a9uMjtOgCQ04G3yuM2JnQrKLQVFXjFATtV9hTC7d9ZqTbOxQM1Gw6iuXAQzQcENRcFUibigZqLAikT8UCtMSTYHzMA2M7ue2GxuOeFJR8P1EQ8UHNRIHU2Ivz08rj9OgAArctucjjwVrloQ0LHooKIB2ouHIgdmSjxm37YOT757ZV9t397pWgjAkEhnosCKRPxQG7s/YL9sQOA7eq+FxZHViNC40RAUBMBwc4FgdT9dLG650VuaACAzTAwUdp18O1yxQYEOxcFUibigZqNB2YcjI6d4bZvr5y47dsrFRsOorl4EM3GAzUXDqL5eKDmokDKRDxQc1EgdTYeNOxTYxy0CGBn2P3i4i4fEToTFDYrKuz5yeXKnuc5XBEANkvjTQ4bzUWB1ImAYCciQm0DEyVeb8P2lR2oeNu3VsZv//ZKtWkiHqi5cBDNxoNoLh6o+Xig5qJA6kRAsHNBIHUiJNz51++fsD+OALAd3ff8UsHHAzURD9REPFCzcaCd3fcChysCwGY7+Nb8iYNvz1dX5wOCnQsCqRMBQc3EhEr2RIX9WoC+VztQ8VsrZRcR7ERAsHPhIJoNB9FcPIjmA4KdCwKpEwFBzUWBlDWGhGeucq0MgG1v9/OLw/c9v1Stz8eDaCIg2Il4oGYjwUbb85PLHLAFAB1y8O3y2M2Y0FpQ2PSoIOKBWkNM4LwcbC+3fWtl5PZvrVRrs+EgmggIai4eqNlwEM2Fg2g+IKi5KJAyEQ/UXBRIGQctAtgB9p5cueW+5xYrjSGhI0Ghxahgg4HanhcXOb8GADpo9fDF+WJzTOj9oHB4osSTauh/a68y1CNC42w4iCbigZqLB9FsPFBz4SCajwdqLgqkTMQDNRcFcuxTY9fK9scUALabe59fHLUBwc6Hg2giHqiJgKBmA8KNJxEqe09yuCIAdNqBidK+g2/PV3xM6FJQyCYCQuMOTpTLgxP8OwJ9rHYrw1+slF1AULPxQE3EAzUXDqLZeBDNxQM1Hw/UXBRInQgIdjYOtLNPPXONx6MAbGt7nl/eZ6PBRvPxQE3EAzURD9RMTOCVMwDYIgfemh/2EaHXgwIHL6JPffLbK8Of/Falctu3KtVsLhxEs/EgmggIdi4cRLPhIJqLB9F8QLBzQSB1IiCo2VCw4Z65xj+EAGxr2QGLNhS0Oh8PoomAYCfigR7nIgDAVjvwdnnUBwQ1HxDsXBBInYsIazGBgxfRXz75F5XRekCwc+Egmg0H0URAUHPxQM2Gg2guHETzAUHtU9+9Nn7HX64M3/FX14ouELQ7EQ/UXDCI9swK71gB2LbsAYt558NBNBEQ1Fw8WN19L1zmnnAA6ILaeQlvqvMSovmAoOaiQMpcSODgRfSJ7DyET36zUrDxIJqLB2o2HEQT8UDNxYNoNh6ouXAQzceDO/7yWvGO766cuPOZlbVSeMdf/briwkDeiXig5sKB3TMr3E0OYFvKDli898dLZRsFUubDQTQRD9QaQ8ILlyu7X1zkd5cAoEsOvF7ad/Ct+crBt2w0WG8+Hqi5KJCy5qcSeBUOvS07D+G2v6iUb/uLSnVtIh6ouXgQzcYDNREP1Fw4iGbjQTQXD/xu/+6vK7d/99roJ4NfnK89oWCjQOpEQLBzAeHG7GcEgO3ivucWR+57bqm6NhEG8s6Hg2giHqhlIeHFxWH7NQAAtlbtvIQsJDTOxQM1Hw/UXBRI3USZJ9nQuz7xrZXjn/xmpdIUEbodFFqMCi4cRLPhIJoICHf85Uohe3XBft8a3fadlSH71IILAqkTAUGtHhG4sQHAdrX75OKupojQoaCQzccDNREPmnaZx1MBoEcceKs87mJCy0GhtajggkDKJkrr/joE6IpPfnNl2IWD9SYCgp0LB9FsOIgmAoKaiwdqNhwEu/27K5Xbv7sy2vjqwnpu/8uV4zYkdCwqiHigd407ygFsS/f9eGnMBQQ7EQVS5uNBNBMRnueqRwDoJTfOSyi7kNCBoLBJUaGSfWb7dQBdc9s3K2MuFLQ6ERDsXDiIZsNBNBEP1Fw8UBPxoBYQvrNSzp4+yM6LsN+v9dzx3WsjNh6ouSiQMhcOmncHNzYA2IZ2P7c4dO+Pl6rZXDyIJsJA3vlwEG01JNz3wiUOvQWAHjPwZmnIBQQ7Fw6i+XigJgJB63ub6yDRA7JfJN/2F5VxFwfyTAQENRcP1Gw4iCbigZqLB9GyiPCdlUL2VIH9XrXq9u+ujIUHM4q5KJAyERFWQ8LKCfs5AaDf7X52qVAPCb0fFBZ5pQEAetSBN8ujLh5Ec/FAzccDNRcJWluF6yDRVXc+vXLLJ/68UvzkN0UUSJmIB2ouHkSz8UBNxAM1Fw4advt3Vsaz8w3s96ldtXMUms5W8PFAzUWB1DWEhDufSf+6AKCX3PfjpeM2InQ7KGTzAaG2cnazhP0aAAC9ofaKwxvz5QNvinAQzcWDaD4g2IlYsP7eLo/ZrwHYErd+c2VXPSI0zkWBlIl4oObCQTQbD6KJgGDXFBC+vTJ25zdbO/+gFbd/d6XsDmlsIyq4IJC61ZCwaV8fAPSC3c8ulW08iObigZqIAilrDAn3vbCU+yk3AMDWyK6EzEJCfS4cRHPhIJoPCGouGkTjqQRstU9+Y2XfJ/68UrERoWNBIZsICHYuHESz4SCaCAhN2+SAUOfjgZoPCGouCuSc/YwA0M92P7s4bGNBK3PxIJoIA3nHKw0A0D8OvDk/0hgT2ooKLhxE8/FAzYUDu7fL/PsFW6cWEf6sUvnkn/t4oOaCQOpEQFBz8UDNhoNoWxQQMtnv/NfOWXDhIJqPB2o2DLSzO/7qGnfOAthW2nkaQc2Fg2giDLS15xYrvNIAAP2l/oqDmosH0Vw8UPPxQM0FhOanEnh9GZ33iT9bOb4WERonAoKaiwIpE/FAzcWDaDYeiN32nZVCpwJCXXbGgr39wccDNR8P1GwkaG1c/Qhg+7j32aUTNgzknQsH0WwgaHU/5pUGAOg3+98sDdmAYOfCQTQXD9R8PFBzEeFXtf+cn+ejsz75jZVhFxDsRDxQc1EgZSIeqLlwEE0FhG+vFDbjEMVWZLc9uJDQVlBoLSr4WLDOvntt1H5OAOhH2e/u3/vsUuXeZ5ddFEidiwdqNhSsP35yBwB9KrvFwcYDNRcOorl4EM0HBDsbE3gqAR3zyW9cH/7kn1+vrk4EBDsRD9RcFEidCAh2LhxEyyLCt1bKd3x7Zdh+Pzrpju+sjLiAYOfCQTQfENRcODC747vXuGsWwLaw+9nlkVpEaJyIAilz8SCaDwc399xiZfeLix19Ag4A0DmNtzi0MhcOorlwEM0HBDWeSkDHNEeExomAoCYCgp0LAqkTAUHNxYMbu+1bK5XbvrXSlV8810JCdhuEjQdqLhxE8/FAzQaE+m5/ZoVHawH0vaanEaKJMJB3LhxEsxFhNSR05d9BAIDNc/CtheM2GLQyFw/UXDiI5uOBGk8lYFPFEaEzQWHTo4KIB2omIox3+hyE9dzxnZVC49WSLh5Ec/FAzccDNRsS7nxma17rAIBOkk8jRBNhIO9cOIh2IyLc+9xS2X52AEB/OvBGedyGglbn4kE0Fw/UfDxo2ls8lYBNcus3rg9/4s+uV7P5eKAm4oGaiAdqLgqkTMQDt7+olG/7Zvd/wexCQkeCQmtRoSEkcGI4gL7W0tMIaiIM5J0LB8F2P7fY9X8XAQA2x8Cp0q4Db8xXbCRoZy4cRHPxIJoICdlTCW/yVAISNUaExvl4EE0EBDsRD9RcFEidCQif/Fala68xKLd/Z6XiIkKXg4L9jADQb9p6GkFNhIGU2XhQ373PLXKnNwBsMwfenB+xcSDPXDiI5sJBNJ5KwCaKIsJ2DAqf/ItK4dYuvsag3G7DQTQbDqK5cBDNB4Rst3/3Go/YAuhruZ9GUBNRIGVNIeHHi5XdJzlgEQC2o3YOXmxlLh6ouXAQjacSkKiViNCxoNBiVHBBIMc++c1K5ba/WDlhv/5ekIWE+lw8iGbjgZoLB9FMTPjLa5RJAH1t98nl4d3jIgqkToSBvFuNCRywCADb1f43S0MH3vBBIHUuHkRz8UCNpxKQQ7sRodtBISEqjPfqO/+3fWdlqDEkdCQotBwVCAkAtod7xpfLWUiozwWB1Ikw0O52P7tUzp6csJ8dALB9HHi9PF6LCfWJMJB3LhxEc/HA78BEaZ/97ID0yW+s7PvEN65XbCDIMx8P1EQ8UBPxQE3EArfsKYRPfnNl2H7tvSQKCd0NCr1zfgQAtKv+NEI0FwVSJgJBq9v97GJP//sJAJDuxsGLN0NCzwaF8pj97IBTiwhf35yI0DgfD6KJgGAn4oGajQcNEaHnzkJQbv/WynEbD6K5eKBmw0E0Hw8ICQC2Bfs0QjQXBVImQsF62/3sEk9+AcAOceD1+REXEjoQFLK5eKDmIsLqBiZKPf9rJ3TRWkT4xvVq00QYyDsfDqKJgKAmAoJdc0jozbMQlOz2iNu/vVKtTcQDNRcPotl4oOYjQra++f4BQKN7Ti4d331yuVqbiAdqLgqkToQDO657BICdY+9E6ZYDr89XXETodlBwUYGnEhC48+mVWz7x9etlFxG2SVD4xJ9XilkosV93L2sKCd0MCg1RIXvdwn5OAOgH95xcKqyFhMaJgGDngkDqREDgaQQA2JkOvD4/7OKBmogCKXPhINpqTKhk0cN+duxwWUT4/a9fL7pwEE2EgZT5eKAm4oGaigjfrIxlX6P9unudDAltRgUXDqLZcBCMkACgH+0+uTjkAoKdCAhqLgqkzIYErnsEgB3pwdcXyg++seDjQTQRBvLOhYNgB96e5xVnNLv165XC73/9erVxLh6oiSiQMh8PoomAYLf6FELPH6i4ntu+vVJw8UBNBAQ1Fw/URDxo3Ce/3V9PdQBA5p6TS2MuHEQT8UDNRYGUZRHhx0s8NgoAO9T+Ny8MZSGhPhcOookwkHc2HNgdeHO+bD83drBb/7QyZiNC20Fhk6OCDwfRREC4sU/8Wf+9ymDd9hcrhdu/JcJBNBEP1Fw8iCZCgv2MANDrst/ld7GglYl4oOaiQM7xNAIA7Gz7X58vNMaEbgWFbDYirMWEt+b79jdpsYlu/fr1ERsOorlwEE2Egbzz4SCaCwnj/fgqg7UWEhpn44GaiAdqLhxEIyQA6GO7Ty6PuEjQzkQ8ULNhoJ3tHudpBADY6exTCXYuHqiJKJAyFxLenC/az40d5tY/vT5sY0Erc+EgmggDKfPxQC17nWH73Cpw+1+slF1IaCcotBgVXDiIRkgA0Id2n1yquDiQdyIg2NlIsPGyz8fTCAAA/VSCnYsH0UQYyLvGmDDwZokz03aq7JH/3//T6xUbCdqdiwdqIgqkzMeD1X3iz65Xbvvm9joI0MUDNRsOoomAYOfCgR+niQPoK3efXB6+559FEEidCAhqPhr47X52mcOrAAA1B16/uM+Gg2guHEQTYSDvVmMCV0HuSLUbGjYhIjTOxQM1EQVSZiJC35+HoNz2rYoPB9FsOIgmAoKaiAiEBAB9555/XipmIaFxLgqkTMQDNRsPGp9G2Huy/1/FAwBsngdfWxh78PWFam0iINi5cBBNhIG84yrIHaYWEf7kevH3//SDam0iCqTMxYNoIgzk3Sf/vFLYDuchKFlIaJyLB2o2HEQT8UCNkACgX2VXPtqI0INBYdR+bgDAzjZwqrRrLSS0ERRajgoiDOQYT9PtJLf+6QdjaxHBToSBvHPhIJoIA23tG5Vt+1jNnc+s3GJDQltBodWoIOKBGiEBQL+550dLYzYeqLkokDoREOzWXmvgbAQAgND0VEKngkJKVHiDqyB3jE/8yfUTLh6oiTCQdy4cRLOBoJV9/fq2OVRRyc57sAHBzoWDaDYeRBMBwYzfOQPQF+48uXLLPf98pXpzPiDYuSCQOhEQGnfPSW5qAABo8qmEHgsKB99aOG4/N7aZW7/+4ZALBhtNhIGUuXigZmNBsFu/cX3b319aCwl/4eOBmgsH0Ww4iOYDQm23fWeFR5gA9IV7fnTlRHNIaD0obHpUEBGhNp5GAACs48HXF8ZdQFATAcHOhYNoIhiEe6M8bj8ztpFbn17Z9ft/8kHFhYJWJ6JAylw8iCYCwie+cb2yHQ9VVNZCQn0iIKi5eKBmw0E0QgKAPnX3P18p+4jQO0GBpxEAABvZf+rC0IOviXAQTQQENRcP1Gw0CJY9OWE/N7aJpsMVUyfCQN65cBBtB0aEjAsJnQgKrUYFQgKAPnL3yeV99/zIhoNoPh6ouSiQPJ5GAABsbP9r84VaTOjRoPDgG/Pb+nXzHevWP/lg9NY/EUEgdSIM5J0LB2pfv17eSREhE4aELgaF275FSADQ++750ZWxWkioz8WDaD4g2Pkg0P7uObnEwbUAgJasPZXQOBsOool4oObiQTQREjh0cRv6+NMfHM8igp2LAikTYSBlLiB843r1979xvbhdr3dczye+tXLcxYNoIiDYuXAQTQSE+u749sq2P5sCQH+rHbL4o+VKU0joQFBIiwqLQ/ZzAwAQ2X9qvuhiQjtRQcQDNRcOopmYsP/NEv9e2y6ycxFuHf2gYiNCvwWFnRoRMrd9c2XEBYONJgKCmosHaiIk3PadFf4hAaCn3f1Py8MuINi5cBDNxwM1HwrW21LRfmYAANZz4NT8sAsIdjYeRBMBwc6Fg2hrrzeUOfdnu7j16etFGw6iuSiQOhEGcm7HRoRMrpDQiaDQEBUICQB63d3/tFy4+59EPFBz4SCajwdqPhrI8WQXAKBtD762UHbxQM2Gg2giIKi5eKBXsZ8XfejWpz8YvXX0g2rTRECwc0EgdT4MtLMdHREySSGhQ0GBkACgl2UHGGYRoXEuHkRz8UDNxwM1EQ/qTyPwEy0AQC4PvDZ/Yv9rC9VsLh6o2XAQTcQDNREPmvf6PKG8n9369IdDLiK0GRQ2PSr4SLDRdnxEyGxKSKhPxAM1Gw7ssgMg7ecEgF7xmR9dOWFDQmeCQmtRwYeEZQ6sBQDksneidMv+UwuVekxoOSi0GhVEPFBzAWEtJJTH7WdGn/j/nl65pXYugo0HaiIeqLkokDIfDNSICDd84psrI5/8pogCqRMBwc4GBEICgH5w9w+vlG1AsHPhIJoLB9F8QFBbDQlc+QgAyG//awujjSGhI0GhxajgQsIb89UsdtjPjD5w69PXx10w2GgiHqi5KJAyHw+ICEI9JNTngkDqREBQIyQA6Ad3/2B5n40GG83FAzUXDqL5eNC0Hy1xEBUAIMneU6VdNiJ0Oyg0RQVeb+g/tz59fdhFgnYm4oGaiwKpIyKEbEjoWFQQ8UCNkACgl939w+VRGwpanYsH0Vw8UBMRofZEAlc+AgDSPfDafMEGBDUXD9RsOIgm4oHePDcT9ZO1qx5tHMg7ERDsXBBI2Z98UCEieOuFhK4FBUICgB7VymsNG82Fg2guHkRbjQh3//Ny2X5eAADy2P/qwvH9p3w4iObiQTQbD9RcOPAbOFXiNb5+8fGnrxc+/rQIAqkTAUHNhYF29icfVD759G/22a8JH/vYJ/5s45DQkaCQzQYEQgKAHpbntYb15sJBNBcOgv1o6YT9zAAA5LX/1EK5FhO6FRTWjQrz/DuvH3z86esnsohg56JAykQ8UHORYKMREdZVCwl/XqmuTQQEOxcEUkdIANAHaq81/PBKtTYRBlLm4oGaDQdmd57kqTsAwObZf2p+ZC0kNE4EBDsXDqLZcBDNhIT9vN7Q+7JXGj7+9AcVGxH6JSjc+vUP+UXpOlxIaCMobHpUICQA6GF3/+BKeS0kdDMoqKjwoyscsggA2FS1QxdtROihoMDrDT3u409/WHuloZW5KJA6ERDsbDhoigh/ep0TPTcQhoRuBgVCAoAeU3utwUYEOxEG8s6Fg2j1kHBy6bj9zAAApHrglwvjLiDYiYCg5uKBmg0H0Xi9obd9/OkPT3z86Q+rzfMBwc4FgdSJgKDWFBH+5PqI/XrgfeLPrq8fEroRFAgJAHrMXT+8evO1ho0mwkDeuXAgdvePrnDIIgCgI9YOXWxlIh6ouXgQzcYDs/2v83pDT/r/nl655eNPf1jxIaH1oLDpUUHEA7k//YBHPFu0GhKuV1cnAoKaCAh2Lg60M0ICgB7zmR9cKX/mh1er2Vw4iCbCQN7ZeNAcEpZH7ecFAGCz7H91obL/lwvV2mw8UBPxQM2Fg2giItS3d6LE+UC95vee/nDcxwM1Hw/UXBRImQ0HjRu9TplqQ3NI2PygkCsqEBIA9JDstYZ6RGicCwfRRBhImQ0Ju08u8o4oAKBj9v9yYXQtJLQTFFqMCi4cRBMh4cDr87zK3ktuffrDoY//rw+ra3PxQM3HAzUXBVLXEBE+PvpBOXuSwn49iOmQ0OWgQEgA0EM+84MrJ2xEsHPxQE1EgZTVQsI/XSGeAwA66sArF/e5kNCBoNByVGiOCeP286JLsl+I/97/+qDcFBLaCgqtRQUXBNJX+T2ueWzb+iGhS0GBkACgh9z1g6tFGw6iuXgQTYSBPPvMj65w0BQAoOP2/3K+6CJCt4PCjahgPyu65Pf+54cjLiDYuXAQzQcEOxEE8u1pbmjIIwsJn/gzGw7WmwgIdiIeqLmAQEgA0GN2f29x12d+cLW6NhEP1Fw4iCbiQDvjtQYAwFZ44JcXTrh4EM3GAzURD9RcOBDb/9oCNxd1261Pr+z6vf8pwkE0Fw6i+YCg5uJAq3v6Aw6ayqkeEurz4SCaCAhqIiDYERIA9Kq7f7A83BQS2owKLhxEE5GghfE4JwBgS+w9Vdq1/5cXqqsT8UDNxoNoIiDY2XjQtFMLHLTfbb/3xx8WspDQOBcP1Fw4iObjgZoLBevs409fL9ivA62zIaGbQWEtKhASAPSIz/zjlXEXEOxEQFBz8UDNx4J1tsyTeACALfPALy+M34wJ3QkKQVTgGuRu+vgff3DcRoS2g0LLUcHHAzUbDew+/jSHK6aKQkL7UUHEAzURD+wICQB6xWe+f6XiwkE0EQ/UXDyI5sJB8+48yb//AABb54FT88PNIaHNqGDDQTQRD9QaY8KB1y9yVl63/Pf/+UHZxgM1Fw6iuXgQzQcEOxsQ6uNwxXSthIT2gkKLUUEEBEICgF5y1/euDn3mH69Wm2bjgZqIB2ouHEQTEYHXGgAAW23vy6VbfECwEwFBzcYDNREP1FZjwjyHD3dDdsCiDQYbzYWDaC4cRPMBQa3hlQb+YtkE7YSEjgQFERU+8c2VEfs5AWCr3fX9q6MuJLQTFFqMCi4cROO1BgBAl/nXG6KJeKBm44GaiAd2D5ziGsgtV7vu8X9+WLGhoJ25eKDmwkE0Hw/sfu/p6/yFsklu/cb1YRsKWp0PB9FEPFAjJADoIXf949WiCwh2NhxEEwFBzcUDNW5rAAB0yQOvzA8/8KqNButNxAM1Gw+iiYhQn/2s6LD//scfjNkwkHcuHkRz8UDNB4TViMC5CJvp1q+vDNlAkGc+HqiJeCBGSADQbdn5A3f949VqNhcP1Gw4iCbigZqLBw37zA+uFO3nBQBgK2SvN2QhoXE+HqiJeKBmw0E0ERL2n7rA69FbpXbd4x9/WK1NhIG8c+EgmosH0RpebXj6Q/4C2USbFRLq8/Egmg8IayHhzwgJALrrru9fPV4PCW0FhVajgogHajYi3AgJvNoHAOiaB165ULAxofWg0GJUsOEgWnNMGLWfFR3ye//jw8JaSOiDoPB7T1/nF5ibrBYSvnG9WpsIA3nnw0E0QgKA3nPX96+M2ZDQK0Fh9/d4rQEA0D0P/PLCCRsROhYUWo0KtScS5nlibyv8t//x4ZCLCB0KCtlcPFAT8eDmPuAvjA5oCgm9ExQ4AwNAV931/StlGxDsXDiIZuNBNBEQ7O7+wRXuygYAdNXeU6VdNh6o+XAQTcQDNRsPxLJXL+znxSb7b//jN/5pBDURBVLm4kE09zQCVz12ggwJHQgK2Xw8UKuFhIL9nACwVe783uKuu75/tVqbCAh2LhxEs+EgmggI9d31w6s8tgkA6LoHXl0o2nCw3nw8UBPxQE0EhLW9unDcflZsouxphP/+x7+p1ufiQTQRBvLOhYNoqyGB90E75NZvruxyAcFORIGU+XhgR0gA0D2f/t7y8FpIaCMotBwVbDiIpkLCP13lJ0gAgK77wisLozYWtDIfD6KJgGBnI0K2X3JOQkf9t//xYbExJPR4UOAXlR32+18X8UBNRIGU+YBASADQfXd978qYCwmdCAqtRoWGkGA/KwAA3bD/FxeGbCRoZz4cRBMBQW0tJHBOQsf83h//ZtgGBDsXDqKJMJB3IiBkq2Q3S9ivAZsrCwn1uXgQTYSBvLMh4RN/dr1iPyOA/7+9t2uPuzzvtVsMOLzK2IADJLGBEAikxck6nn19BH8E70GSEisJCQ15sQATCJBlBZJFmpeihhDSpF04b4u0aZ8oaft0V9+gaoAYYzsaW5LlN9Y8x3/skUfX73dJM/9b8oyk8zyOc6c7vccYIp1z39cFl4rWfIQYEKImHjglHGTGeOD8+3eYHwMAAAPDR//9jUYMBL2q4SDTxAPnf/6B6L5a3PjMzNSNz2o8cEo4yDRhoMR2SLjp6zNM778EdIaEQQkK8YwAAJeCHS9Nb7nz1SPNljEeZJqAEJVwkBnjwSJZ+wgAAIPDx/7jjYMxDJSo8cBp4kH0P98YjmeFQm56ZnZPKyJ0agKCU+KB00SBut74HFsaLhXvff54I4aEfgaFynhGAIBLwZ2vHNm9EBJWISh0HRUkIlQbGw4zdBgAAAaGj/37f+/52L9rEChV40GmiQiV//HffBm90izcRnCaeOCUeJBp4kBPsqXhkrH9hcZEDAhOiQdOEwXquOPANKtbAOCSc+ePjoxJSOhnUGhHhb9n7SMAAAwWrTWQVUjo1ISBumo4yFwcEj72H//NvLWVxN5GcJp44JRwkBkDQVeeYNrmJaTbkNBTUCiMCtVaynhOAIDV5o5Xj0xIQHDGeOA08cAp4cD543fG41kBAAD6zcf+7Q9TEhP6HRT+4w/MW1tJtj0zM3njM7PNljEeZJqAEJVwkCmxwHvj109MDfFt9CWl15BwKYICIQEA+sGdrx5tntfEA2eMB5kmIEQlHnR4108O74lnBQAA6DetNZAxIgxAUPh//v1NbrevBNuenRleiAidxnCQaQKCU+KB08SDTm9+7gQ7si8x732+MRYjQS9KOMg0wSCXvwcAcGm589UjwxdDQv+CgosKd796iA1GAAAwcPyP3/9ht8QDpwkDJWo8WOzH/vO/CfArwbZnZickIvQ7KLio8NwM71n6wPYXjo/GOFBXiQdOiQZWhqQAwCXljh8dHdGQ0GNUiOEg08QD54VnDcxHAACAgeT+3/7Xlo/+2xvNSokHThMFSowBoeNWAk/lS6luI2yL4WApYzxwmnjglHCQeSEkbD8wzTcufWD7N1YuJLSVeJCpAYGQAAB94c5Xj4xrPHCagOCM8cBp4kH0jr9/52A8KwAAwKDw0d//YbIdE7oOCiscFUxIYANgKduemRmvQkJbCQeZMR5kmoAQlXDgfJYBi/1i+/PH97z3+RPNBU0YqKuEg8wYEr7ZYLAYAFxS7njl6OQdP4rRYClNPHDGeOA0AWEhJPz4nZF4VgAAgEHho7//w1hnSBiUoBDPCT0w9NT8zs6I0O+gsERUaDBgsX9sf2FmeFFIGISg8M0Gz1wA4JJSRYRONRxkmnjgjPEgM4SEu35ymIFRAAAwsNz/+z/sjhGh30Gh8n/85xsMb69LvI2QKfHAGcNBpokHzs6QcOMzM3zb0kfSkNDHoPDebx3nOhIAXDKqQYsxJPQeFUw8cMZwkHkhJMSzAgAADBL3//a/dsZ4kCnxwGmiQC3/vzf4HbMO1Tf8274229j2NQ0HmRIPMmM8cJp44D3BEKk+s+PA9BaJB04TBkqM8SAazwkAsFpUgxZjPHBqPMg0ASEaw4HxjlePcDsLAAAGnl2//8NUjAZLKfEgM8aBHqxWU8ZzQhdsfXpmpBUROjXxwCnhIDPGA6eEg8Vue26ONX8DgESDpTRRoMQYEAgJAHCpuf2VI+MxGiylhoNMExCcJiK0fPUIg2cBAGDg+ejv/zAeY0E3SjjINKFgWf/9DWJ8HbY9PTMlIaGfQcFEhW3PzvIPd0CQWNCtJgzUNYaE7S9M864JAC4Jd/zo6ESMBd2o4SDTxANnDAk/PkJsBwCAgedj//bGSIwEvSjhIDPGgmWM54Rl2Pa1ud0SDzJNQIhKOMiM4SBzISTM8IvigLD9+eMTEgl60YSBuhISAOBSEwNBHTUeOE08cF4ICTtePcRaZAAAGHju/7c3hmMcqKvEA6eJBs77//O/+N/RXtj61OzEtqdnmy1jOMg0AcEp8cAZw4GR2wiDRXFIaGvCQF1veeE4A1IAYNXZ8cPDu2IUKFHjQaYJCJ3+6J1GPCsAAMCgEoNAqRIPMk1AaPs//uMP3OzrltbKx3ZE6DSGg0wTD5wSDzJNRDgfEriNMEhs/8aJMYkCJZow0KvbXzjO22AAWHXufOXI7jteOdpsacJAXTUcZJqI8CqDFgEAYG3x0d+9OfnR37/ZbGnCQF0lHGSakPDR/3iD3ye6ZdvTs2MSEaIxHjhNPHBKOMjsDAnPzIzHc0N/2f6N46Pbv3GiWSlRoFQTCbry+cbBeE4AgJXm9leOjC6EhMEKCvzwAwAAa4aP/v6N8YWQMDhBgd8numXb03MNCQeZMR5kmoAQlXCQ+exsc/tT87xVGTC2P398TzskDEpQ2P5Cg2/jAGDVuf2VowclJKxCUKjUeOC8EBJeYdAiAACsHT72uzdGJCT0PSj8YTKeEwxbn5rds+3pueZFTTxwxnCQaQKCU+JBp1+boQoNINsPzAzHkLBqUcFEA+vzx3kfDACrzh0/PDohASFqokCJGg/Uu354eFc8KwAAwKDSGrgYA0LUhIESJR4Y4znBsPXp2YOLQ0KPUSGGg0wTD5wSEar/O7MRBpKbDszuivHAKVGgxBgOjPGcAAArze0/PNqslHiQacJAXWM86DSeEwAAYNDZFcNBpokCJcZ40CmbG5bh/JDFGA+cJiA4YzxwmnjgXIgIz7CpYZDZPqbhIFOiQKkmIlSyAhIAVpMdr07vbIeEQQoKd7x6lP+9BACANcf9v3tzsooJXQeFFY4KMSJU/o9/e4PfJ5Zi61fnRrY+FaPBUpp44IzxINMEBJHbCAPN9rETjVZMaGsCQlSCQKkhJNzy/AneCAPAqrHj5SPDMSQMRlA4wlBiAABYc9z/+zcOtkPCoASFj/4bmxuWZOtTs1NVSOhU44HTxANnDAeZMR5ccCu3EQaemw8cn1gUEgYgKLACEgBWkx0vHx2JASEq4SDThIG6Vpsk4lkBAAAGnft/98ZoDAn9DAoX5H9TM4b2z+6KEaH3oNBlVIjhIFNDwp54bhgsth84flAiQo9BYaWjwvbnG3wrBwCrxu0vHxmN4WApJR44TRjoVTY2AADAWuT+37+1OwYEp8QDpwaBuvKFdsYNX50di/HAqeEg0wSEaAwHmVVI+NrMVDwzDB7bDxwflXjgNPHAGaNAHbc/f5x/8QFg1bj95aMTMRZ0o8SDTBMJunEHGxsAAGANcv9v39y163caDjIlHmRqHOje37MCMmXrV+caMRospYaDTBMQnDEeBLc+PTMSzwyDx/YDx/dINFhKEw+cMQ70ajwnAMBKUTckrHZQiOcEAABYK7RCQlsTD5wSDjJjJOjSeEb4sz/7s21Pzu2OoaBbNRxkmnjgNBFh29dmG0MHprfEc8Pgsf3AzLDEgm41ASEaA0G3bj8wzcoWAFgVYhioq4SDTBMN1CPc4gMAgDXL/b97Y2pRTOghKkg4yDSxYCnv/+1/8fto5Ian5sZjIKijxgOniQfORSFhhjfua4Qq+Egg6FUTEJwxFizl9hfY9gEAq8PtLx+TKFCqxAOnxINF8qQLAADWLPdPvDkhEaHHoNB1VDDRwHk/KyCVXp81LKfGg0wTEKJfm20OPTXPt8lrCAkDdTXxwBmjgXP7N9jcAAArT2v1YxUS2pooUKLEg8wQEm7/0ZGxeFYAAIC1QmtzQ4wHThMPnBIPnCYeLAoJv/8DQ4w7aT1r+Opcc0ETBuqq4SDTBIQLbn2KlY9rjXQFZF1NPHDGeLAoJDx/glstALDiSEhYpagg4SCzHRJY/QgAAGuY+3/7xsiuCRMOMk08cEo8yDQhgRWQgRuenBtfFBIGLChsfYqVj2uNmw4cP3jzgRPNSokCpZqAEI0R4XxIYHMDAKw8t798bFQCQtSEgbpKOEhk9SMAAKxl7v/tG8OtkNBpjAdOEw+cEg4yCQk5W5+ca0hEWKWgUKnxwLkQEhrxvDD43HTg+Gg7JPQzKMSoEM8JAFDKjm5CwioEhcoYDxaFhJeP8I4TAADWLK0VkDEk9BIUuowKEg4yz4cEvphsM/Tk3O4bnjTxwGmiQIkaD5yzvPFcg9x84MTuGBJWLSqYeOBs3UpgcwMArDA7fnBsfOfLx5ptJR44TRQoMUaEyh0vsekIAADWNhIQojEcZJqA4JR4EP3dm4SENjfsnx2rQkJbiQeZJgzUVePBRRmyuDapVkDGeOCUKFCiiQfRKnDEswIAlLDj5aMTnSFhUIJCPCcAAMBa4y8n3mxIPHDGcJBp4oFTAsIFd/3+TW7Lt7nhydmpzpAwSEFh69Nzk/G8sHa4+cCMhINMiQKlmohwXjY3AMDKkoWEnoLCCkeFO145MhXPCQAAsNb4y4k3J+6feLNZKfEgM8YDp4kHzhgSKuMZNyRD+2d3xYAQlXCQacJAia2QwJDFNc1NB05MnY8JgxMUbh5j4CIArCwxHGRKOMg0YaBnXz7Kf+sAAGDN0xkSViUodBkVCAmBG56cG43hYCklHjhNFKjr0D7ed65lbj4wM3ExJHSqASEqQaDUdkwYO8F1JABYUXb+4FhzQRMQohIOMmMc6EVCAgAArAPu/+0bozEk9DMoVN7/b28wzPiG/XOTMRZ0o8QDpwkDvXjDV2cPxvPC2uKmAzOjGhF6CworHhWqmMDARQBYIaqBhotCQg9BoeuoECNBN758hGdcAACw5lkqJPQcFWI4yDTxgJDQQfVtfwwEvSrxINOEguXc9uQcQ/HWOOc3N8R44NR44JQoUFMGLgLASrHj5SPDEhFWKyj0EhUICQAAsA64/7dv7rn/t29JOMiUeJAZ44HTRARCwvn5CHtiGKirhINMEwysX53j+vk64KYDs7tu/p8zzZYSD5waD5wxDPTsAQYuAsDKsOOlZUJCn4LCjpePjsSzAgAArDXu/+0bw62Q0NbEA6eEg8wYDzI7Q8Lv3tjYv0vcsH9u/Ib9JyUKlCjhIDOGg+ANT82Nx/PC2mQhJPQUFLqLChIIuvTmAwxcBICVoRUS/u5Ys2WMB5kmIEQlHGSaiHA+JBzZ2N+WAADAukBCQo9RQcJBZgwHmYSEVkiYaoWEtiYMlCjxwGkiQiXPGtYPN//PmQmJCSscFGpEBW68AMCKsOPvjo0uhIRVCApdRwVCAgAArEPu/+1/bZGAEDUBISrhIDOGA+OGDgmttY+dEaHfQaEzKvCsYV1x89dPjEtEGISgwMBFAFgBbEjoZ1C4EBUICQAAsF6QcJBpAoJT4oHTBISFkDDxxsa9PT+0f25EAoLThIG6SjhI5FnD+uLGr8+MSDzIlHjg1HjglHAQPXB8TzwrAECvLBkSeo0KJh44JRwYq20S8awAAABrEQkGy2nigVPiQaaEhDc37jPpoSdOHtwSo8FSmjBQ1xgOojxrWF9se3Zm+KavzzQrJRxkSjzI1IAQlYCwEBJOjMWzAgD0ShUSdsRosJQxHmSagBCN8aDTeE4AAIC1yl/+9s0piQXdaOKBU8JBJiGhFRIaVUhoK+Eg04SBEmNEqKzWUsbzwtqmHRL6GRQkKhw4PhnPCQDQKx8YPzpRhYS2Eg4yYzjINAEhGiMCIQEAANYTf/nbNyckEvSqCQhRCQeJGzYkVPMROiNCVOKB00SBEheeNTw5ezCeF9Y+Nz53YjLGhJ6igoSDTI0HznZMGDpAtAKAMmJI6GdQ6IwK8ZwAAABrlRUJCW1NQHDGeEBIuDAfIcYDp8SDTBMG6rr1q3PsvV6H3PjcifEYEKISDzIlHjg1Hji3H5hhGBkAFJGFhJ6jQgwHmSYeRHf84OhUPCcAAMBa5S//9c2Jv/x/TRQo0cQDZ4wIbeMZNwRDj588uOUJDQeZEg4yTRjo1aGn5pmkvw6pBi7GcJAp4SBT4oFT40GnNx04vnFXtwDAivCBl44tGxJ6CgrdRgUTEBZCwstHN+Y3JQAAsC75y399a7wKCW0lCpRo4oGTkNAKCXNTrZDQqQkIUQkHmSYQdOcs36CsUzoHLnarhINMiQeZGhJuPnCcH7YBoIhWSBj/U7OliQdOCQeZMR5kEhIAAGAd8xf/+tZoZ0hYlaBQaQJCdMOGhKF98zslIgxKUNg/yxT9dUwMBd0q4SBTwkHm4pgQzwkA0AsfGD82tRASOjUBISrhIDOGg0xCAgAArEOykNDPoBDPuO4Zenxut8QDpwkITokHzhgMEodY+7iuuem5mYkYCXpV4oFTwkEmcxIAoBwJCFETEJwSD5wxHCQSEgAAYD2xXEhYtahgAsLGDQmPnRzb8rgJB5kmHjglHmSagLAQElj7uK656esnxmIYqKvEg0yJBypzEgCgBAkHmSYeOCUeZJqAsBASfkBIAACA9UMrJPzrW82WJh44JQqUSEho3UiYaIWETmM8cJp44JRwkBlDwv65yXhWWF/c9NzxPTc9p1GgRAkHmSYgdMgP3ABQGwkGy2nigVPCQSYhAQAA1jmLQkI/g0LlRg0JEhF6DQpdRgUJB5kXYwLfCq9zth+Y3tkKCW1NGKirhINMjQgt41kBALpFQkEvmoAQlXCQSUgAAIB1ig0JfQ4K8YzrmqF9s7skHjhjOMg0AcEp8cA49ATv1DcCNz53YmpRTFjhoFAp8cAZQgJzEgCgLhIH6mgCglPigZOQAAAA64y/+Je3RiQgOE1AiMYgUN83Ns7vD0OPz+8Zevxks1LigTOGg0wTD5wxHiwKCcxH2BDc+NzMQQkJ/QwKF6LCTQdOsDEEAGohUaBEEw+cEg+CO8YJCQAAsH64/zdvDEs0WEoTEJwaB3pxA4WE6x87OdYOCT0FhW6jgokHzhgRbth/kvkIG4Qbn5kZkYDgNGGgrhIOrCf4OwgAtfjAS39qVkoUKNHEA2cMCIQEAABYj/QcEi5JUNhIIeHxuYkYElYlKHQZFTpCAt8GbxBuemZ2143PzWo4yDRhoK4aDxY7dIBbMQAAAAAAg0btkLCqQWEjhYTHTjZiQIhKOMiM4SDTBITo0P75PfGssH658bnZRhUT+hUUKmNEqKy2SsSzAgAAAABAfykOCZ2agBDVaODcICFhaN/8zqHH5pstTUBwSjxwxnCQaQLCQkh4an5nPC+sX6o5Ce2Q0KnEA6eJAiUuiglfPzEezwoAAAAAAP3lvpUMCW1NQHBqQNh4IWF4ISSsRlDoNirEiPDEyUY8K6xvtj07MxojwoAEBf4uAgAAAAAMGFVI+It/eavZVqJAiSYeODduSHhsflRCwgAEhaEn5hgItcHY9uzMcIwHTokHmSYM1PbA7K54XgAAAAAA6B8xJAxGUNggIeH6x+bHJSBETTxwSjjIjPHAOPTE3Gg8K6x/bnz24pyE5ZRwkBmjQD35+wgAAAAAMEBkIWFVgkKlCQjRjRMSRucnJBwspQkIUQkHmSYgLISEx+d2x7PC+ufGZ2cO3vjsbHNBExCiEg4yNQ507Y3PsQYSAAAAAGCQ+IvfvDUa44FTgkCpJiC0jWdct0go6FYTEJwSD5wuJOxj0OJG5MZnZkYWhYQegkLXUcGEgm5kDSQAAAAAwOBwPiT8sXleDQhOiQIlbtSQMLRveosEgl418cAp8SDzQkiIZ4WNwU3PzO6SiLBaQaHXqMAaSAAAAACAgWFxSBiMoBDPuC6xGxvqauKBU8KBcehxBi1uZFpzEmJAiJp44JRwkBmjgbFaTxnPCgAAAAAA/cGHhP4GhXjGdcl1++b3XD9qokCpJiBEYzwIIWE8nhU2Djc+MzN+4zMmHmSagBCVcJBpAkKn8awAAAAAANAflg4J/QkK8Yzrkuv2zY9WIaGtBIFSTUBwSkh4jI0NG5mbnpnd0woJbWM4yDQBwSnxwGkiQuXNz51gCCgAAAAAwADQCgm/ieFgKTUgRGMY6NV4xnXJ9ftOHuwMCasWFUw8cC6EhCfmN8bKDLBsf2p+56KQ0M+gEKLCjc+d4LYMAAAAAMAAsBAS2ko4yNSA4IyRoBvjGdcl1++bn4gBISpRoEQTD6xsbNjwbHtmZlJCQq9RwcQDp4SDzPMxoRHPCgAAAAAAl56P/PMfDy4KCQMQFOIZ1yXX7TvZiOEgU6JAqTEedBjPCRuPbc/Mjkk8cMZ4kGkCQlTCQSLPGwAAAAAA+s9f/OatCYkIUYkHTo0HzhgNxH95c2MsDbh+33xzkSYgRCUIlBoiwvWPnZyM54SNx7ZnZ4a3xWiwlDEcZJqA4IzxoFOeNwAAAAAA9J+/+KcuQkJPQaG7qCABYSOFhOr5gISEHoLCikeFdkhg9SNcYNszs40qJgxgUOB5AwAAAABAn2mFhH/+Y7NlDAeZEg4yNSA4N2JIGJaAEDXxwClRoEg2NsB5tn5t5mA7JHQq8cAZw0GmiQfOGBN43gAAAAAA0F8+8k9vNRZCQqcxHjglHGRqPHBumJBw7b653RIOMk08cGoUqCUhAVpsfWZ2T4wIPQeFbqOCiQdOnjcAAAAAAAwGEhCiMR5kSjxwajyIfuRf3lr/vyNct29+VILBcpp44DRxoHv3sfoRzjP01PzOGA+cEg4yYzzINAEhyvMGAAAAAID+IuEgM4aDTIkHmRoRWv7mrfX/pXitkNBjVJBI0I2EBOhg69dmJrd9TeOBU8JBZgwHmSYgdLrtuTmeNwAAAAAA9IH7Xz+08yP//MdmW4kHzhgOMiUcZG7AkHD9vvlxiQN1NAHBKcEgc9/0lnhW2LhsfXpmpBUS2pqA4JR44IzhINNEhPPOrP+rSwAAAAAAA8h9vzk03BkSegoK3UYFCQeZGygkXPeV+QmJAiWaeOCUcBCM54SNzU3PzO5aFBJWIyh0GxUkJMw2hw4QvgAAAAAALjVZSOhnULjvN2+s/9v1VUi47ivzzUqJAiWaeOCMAaHy+tGTvDsHYdvTM1MSEvoZFDqiwk3Pze6J5wUAAAAAgNXlvn9+ayTGA6eEg8wYDzJNQLgYEg6t/5Bw7Vfmp9ohYVWCQqUJCNHFIWF+/a/LgJ7Z9vTsmAQEpwkIUQkHmTEcJG57dpa/swAAAAAAl5j7/umt0Y/80x+bLU1AiEo4yIzhIHOjhoQYEfodFC7IL2UgtJ43PG3CQaYJCE6JB04TD6Lbn5rfGc8MAAAAAACrx0d+/cexhZDQQ1DoOirEcJDZERLiGdclMR5kShQoUcPBYvedPBjPCVCx7amZqVZM6FdQWCIqbHt2Zv0PVQEAAAAAGCDu+/VbExISViModBsVNk5IONU8r8YDp0SBEmNAuGC1kjKeE6Ci9byhHRI6jfHAaeKBU8JBZowJz8xMxfMCAAAAAMDqsWRI6EdQ+Oe31v/vBEP75ndeDAl9DAqVhATogm1fm9stEaHXoNBlVJBwkLn4VsL6fw8FAAAAADAgfOTXf2y2jPEg0wSEqISDzBgRWr61/p/pX7NvflhDQm9RQYJAqYQEWIZtT882JCBEYzjINAEhKuEg8/ythPF4XgAAAAAAWB0WQsIqBIWuowIhIVMDglOiQE2v3Te3O54VoM22p+bGJRxkxnCQaQKCU+KB2hg6ML0lnhkAAAAAAFaW+14/NCwhoZ9BoRUV3lr/X4pf88X54eu+HKPBUmo8cMYw0KtD++a5Hg4p256aGd729FzzoiYgRGM4yDTxwGkCwoI3PTO7J54ZAAAAAABWliVDQq9RwcQDp4SD6D9tpJDQVsJBpsYDZwwE3UpIgOXY9tTs1OKY0GVQ6DYqmHjgjBGhctszM5PxvAAAAAAAsLLc9/qh0ft+fUjDQWaMB5kmIEQlIFzwI79+a/3frpeQ0HNU0HjgjKFgOQkJsBzntzfEkLAKQaHLqBBjwk3PzO6KZwYAAAAAgJXj3l//cawKCW0lHGTGcJBpAoKzMyTc95tD6/932eu+PD8qASEq8SBTA0I0BoNMQgIsR/WLugaEqIkHzhgOMk1AcJ6PCQxdBAAAAABYTe799aGJzpDQc1SI4SDTxANnFRLu/+1/rf95add9sYuQsApBYbmoQEiAbthqnzdkmoAQjeEg08QDI0MXAQAAAABWkft+fWgqBoSoxANnDAeZJh5E4xnXJa2Q8KVTzQVjPHBKOMjUeOCMEeF8SOAXMFieG56aG9361FyzUsNBpgkIzhgPnBoPFrmVoYsAAAAAAKvGfa9rOMiUeJAZ44HTBIQLboxZaRISegkKXUcFjQfOzpAQzwngGHpqfmc7JPQ1KGRR4WszU/HMAAAAAABQTrWxoRUS2pp44JRwkBnjQWZHSLjvn96aiOdcl6QhYVWCQndRgZAAvbD1q3OTMSb0FhVMPHDGcJAZY8KzMzzTAQAAAABYYe59/dCeRSGhx6gg4SAzhoPM8yFh/a9+rLhmuZDQp6AQzwmQsfWp2T0xIEQ1HmSagBCN4SCz/bzhazMH45kBAAAAAKCM1urHGBCiJiA4JR44Yzgw3vfrt0biOdclVUi49kunmpUSDzJjPHBKOMjUiEBIgF6o5mnEcJCp4SDTBARnjAfOZ2ab1ROMeG4AAAAAAKjPva8fmpBwkGnigVPiQaaJCK2Q8PoGWP1Y0RkSViUodB0VCAlQnxuemhuP0WApNRxkmnjgjPEg+vTsWDwzAAAAAADU577XD01JMFhOEw+cEg4yQ0i4//VDG+MLRBcS+hsUzkeFeE6Apdj25NzuGAu6UcNBpokHzhgQLsoqSAAAAACAFeL+1/5ri0SCXjUBISrhIPNCSIjnXLcsFRJ6jgoxHGRKOFDjOQGWY+tTs1MxFPSixgOniQdODQnNrU/PbIz3UgAAAAAAq4xsbCjRBASnxIPgfb/eIBsbKloh4YsaDjIlHjhjOMg0AYGQAHW54auzYzEO1FHjQaYJCNFFzxtYBQkAAAAAsBLc83/eGrn3/5goUKKJB84YEBZ8/a3xeM51y0JIaGvigVPiQWaMB05CAqwA1UDDGAVK1HCQaQKCs7qV8MzsnnhuAAAAAADojQ//6tB4FRLaShQo0cQDZwwJ972+QVY/VkhI6GdQ6IgKQ/uYcg+9s/WrsxNbv6pRoEQNB5kmHgS3PjW7ca47AQAAAACsEh/+1R8nO0PCqgSFShMQohdDwgbZ2FCRhoQeo4KEg8wYDhKv2Te/cf4hwIqxdf/snlZIaGvCQIkaD5waEBb51Ax/twEAAAAAalINWowBISpBoFQTEKJ3b5SNDRXXfKGLkNBDUOg6Kph4sCgkfJGQAPXY+uRcY1FM6FtQ8FGBWwkAAAAAAPW57xeHhu/9lcYDpwSBUk1AqLz39T824jnXNdd+4dTuax891WwZw0GmiQdOiQeZhARYQVpDF2NIWKWooOEgc3FMqOY5xHMDAAAAAMDyfPhXh0ZbIaGtCQhOiQIlxpDw60Mb68vC6hf2hZDQaYwHThMPnBIOMgkJsAK0hi7GeOA0YaCuGg4yF543bJyJrgAAAAAAK8i9v/rjwUUhYQCCwr2//uNYPOe6Jg0JvQSFLqOChINMQgIUcsP+C0MXu9GEgRI1Hji5lQAAAAAAUId7f/nHhkSEPgeFe18/tLG2sy0bElYhKHQVFR49NRLPCtAtQ0/O7b7hyblmW4kHThMFStR4EHxqjlsJAAAAAAA9UA00vPdXb2s8yDQBIRqjQB3v/eWbu+JZ1zVVSLjm0dPNSokHzhgOMk08cEpAaPvF+Y2zgxNWhRuenJ3qjAldB4UVjgoSEDrkVgIAAAAAQPfc+8tDe86HhLYmHjhNQHDGQNCt8Zzrns2PzO9sh4SegkK3UcHEAychAVaaG56cG40hYeCCArcSAAAAAAC65sO/ent8cUjof1C49/UNNmixTQwJqxIUuowKhARYKYb2TW+JASEq4SDThIG6xpjArQQAAAAAgO6491dvT2lEiJqAEDXxwBmjgfPe/7PBBi22iQEhKuEgM4aDTBMQotd98dTGrDqwotywf248xgOnhINMEwZK5FYCAAAAAEB3VPMRPvzLGA2W0gQEpwkI0RgPwo2EjTVosc01X9B44JRwkBnDQaYJCG2vISTACjC0f3ZXjAbLKfHAaaJAidxKAAAAAABYmrt/eWhPFRLaajjINPHAaQKCM4aEKnDEs24IrvnCqclWTOgyKHQdFWI4yDQh4dovzk/GcwLU4Yb9sxMxFnSjxINMEwZ69QZuJQAAAAAALMmHf/n2eGdI6D0qmHjgNPHAeeFZQyOec8Nw9V+fmlgICasRFLqNCiEmxHMC1GFo/+yeGAl6UcJBpgkEvcitBAAAAACAnHt+8fZUDAhRjQeZJiBETTxQ/3gwnnPDYENCP4PChagQzwlQF7cKslclHGSaSNCN3EoAAAAAAPDc+8vDu2I0WEoNB5kmIDglIJz3w786tHGXBFzzhVPjEhCcJiBEJRxkxnBgvPrR07viWQHqMLR/biSGgRIlHjhNLFhObiUAAAAAACj3/OLtkRgLulHDQaaJB84QEu57/dBwPOuG4ZovnB6VaLCUJiA4JR44TUBoe80X5zfuPxRYUVqrIJ842YhBoFSJB5kmGjhv+Orsxr0aBQAAAACQcM8vDh2MkaAXNRxkmnjgvBAS4jk3FD2HhNUICiYqXPfo/MZcowGrwg1PzI3esP9kc0ETBuoq4SDTxIPotqdmCGgAAAAAAB3EMFCixgOniQfRXx7a2JsGr3lkflgiQS+aeOCUcJB58UbCxn1vAitO61ZCZ0gY2KAwu7H/gwQAAAAA0MGHf/727g//QoNAqRoPMk1E+NUGn49QURwSOjUBISrhIJfhc7Ci3LB/blxCwioEhUqJB06JCNxKAAAAAADo5MM/f3u8FRI6NWGgrhoOMheHhPt+sYHnI1RsfmR+pwSBUk1AcJp4sOA1j57im1lYUaphhhIQoiYKlCjxIHPxrYSpeHYAAAAAgI3IPT9/e0pCwgAEhXjODcnVf3262VaiQIkmHjhjRDgfEuYb8ZwApQwtdSshasJAXSUcZF6MCcwIAQAAAIANTWvtY4wHThMGStR4EPzl23zpXXH1I6enOmPCoASFeE6AUob2z+7asv9ks1LCQaYJA3WVcJDbqOY6xPMDAAAAAGwU7vn5obF7fv52s1LigdNEgRIlIFxww89HaHP1I6cmYkgYhKDACkhYDYaemJtox4RBDgo3PDnHf6AAAAAAYMNyz88OTbZDQk9BYYWjQgwJ1U2JeNYNyVWPnBqPASEqUaBUExCirICE1WDoifnhzpDQz6BQGQPCgk/ONaq5DvH8AAAAAADrnbtfO7QzRoSBCAq/PMQT/DZXPXJ69OpHNB44JQiUagLCgl84zTeysCrEWwlRiQdOEwVKlJBw/lYC20sAAAAAYMNxz8/eHonxwCnhINOEgTre84tDB+NZNyxXfe7U7lZIaGsCglOiQIkxIjx6unk1mxtglchuJUQlHmSaMFDXGBNYBwkAAAAAGw33rGE5JR44TRzoxbt/eYhb822ueWR+eFFIGJSg8IXTrMGDVWO5WwkDExSenJuMZwcAAAAAWK8s96xhOSUeZJpQsJx3v36Ip8edSETod1CofPQ0mxtg1WjdSnjiZHNBExCiEg4yTRgocet+1kECAAAAwMag22cNyynhINMEA+c9vzzEF3yRqx451ZCA4DQBISpBoMRH2NwAq0frVkJnTOgyKHQdFUwUqOV+1kECAAAAwMbgnoNv9/ysYSklHGSaeBBCwlg864bn6kdOT1z9yBkNB5kmIDglDPTqX58aiWcFWCnkVsJqBYWViAr7Z/kPFwAAAACsa+597fCue352uLmgCQN1lXCQaSJC5d2/OMSX3JGrP3967HxIaGvigdPEA6cEgq49xdR6WFXsrYQBDQpD+2fZWQsAAAAA65Z7fnZ4bFFIWIWgUCnxwNkZEn7B2kfLVZ8/M7I4JPQYFUw8cGooWM5TvEOBVWXJWwlRExCiEg4yTShY1v0MXgQAAACA9cvdBw9PSUTod1A4HxX4gttxzSNnhzUgRE1AcJqAENVgkBvPCrDSDD0+N7HlcRMOMk1AcEo8cMZYsIxD++d47gMAAAAA644P//zt3RIOltKEgbpKOIj+/O3d8bxQ/SK1t7lFw0GmiQdOExCcMRyIDFyEVWZo3/zOVkhoG8NBpokHTokHmSYciAxeBAAAAIB1yN0H3x6XWNCNJgzUVQLCBe9/jZ+/U97zudONqz5/plmp8cBp4oHTxAOnBISLjsazAqw0Q4/PjS+KCQMdFGYPxvMDAAAAAKxVql/UJRD0qgkDJbYjwj2/OMTP3ktx1edPT7RDwoAFBf7BwaojtxKiMR44TTxwSjjIlIBw0aEnZripAwAAAADrgrt/dniPhIG6mihQ4t0/O7Qnnhc6uOpzp0djSOgtKHQZFUw8cLZDwtVfOMWETLgk2FsJ0RgPMk1AiEo4yDQh4YYnZ6d44gAAAAAA64G7D749efdBEwVKNWGgV3nWsAxXfe7U7hgQohoOMk1AcJqAEG3FhEdPs/YOVp3qF/Ohx042JB44YzjINAHBKfHAGWPC/tmx+BkAAAAAANYSd712eFcVETqVIFCqCQTdybOGZdn8yPzOGA4yNRxkmnjgNAGh06v++hST6uGSMPTY3OjQ4yeblRIPnDEcZJp44JR4kMkTBwAAAABYB3zotbfHY0hYtaggoWBpedbQJZ0DF7tV44HTxAOniQgXpATBJaG6lXD9Y3NT7ZjQdVDoNiqYeOCUcJD55OxU/AwAAAAAAGuBHa9Nb7n74NuNGA+cEgVKNNHAybOGLnEDF7tV40GmCQhRvZHAnAS4ZAw9Pr+nMySsSlDoMipIOHA+McdmEwAAAABYc9z92uE9d792uNnSxAOnRIESTTy4KM8aumapgYvdquEg0wQEZzsoMCcBLiHXP3ZyMoaEfgaF5aLC0P5Z/v0AAAAAgDXFh147PLUQEvoZFCpDSOBZQw90M3CxWzUcZJp4YGROAlxKhp6YH44BwSnxwBnDQaaJB84YES44GT8DAAAAAMCgcvdrh4YlIkRNQIhKECj1/G2EBs8aemBob3PLVZ/TKFCqxgOnxoNFfp45CXBpuX50fiKGg0yJB5kxHjhNPHCamMAWBwAAAABYE9z92uGDEg4yTUBwShSo6d0H3x6P54VleM/DZyZbMaFvQSGPCvGsAKvJ0L75nUOPzTdbmnjglHCQGeNBpgkI0UVPHJ6YZ4sDAAAAAAw0d792aKfEgm408cAZw0Cvfvjnb++OZ4ZluOrhM+MLIaFTEwbqquEgMzxv+Nwp/oHCJWXosfnRhZjQQ1SQcJAZw0GmCQjOG/bPTVWbJ+LnAAAAAAAYFD702uExiQS9aOKBMwaCbrz74GG2otVh88On90hEGJSg8PnTXN2GS0prHeToyYbEhC6DQtdRIYaDTBMPokM8cQAAAACAAaW18vG1txsSB+pqAkI0xoJl5GfpOmx+ZH6nxAOnCQMlajxwnqYOwSWntQ4yRoQBDwpDj89xewcAAAAABo67/vHw6If+twkCpZqA4DThYJHVs4t4ZuiSzQ+fmZJwkGmiQIkaD4IPswYSLj2twYsxIERNPHBKPMiM8cBpIkIrJDxxssETBwAAAAAYNO7634enqpDQqUSBEk08cMaA0PLg22xCK2Hzw2fG3/PwmWZbiQdOEwVKlIBwwas+f4Y1kHDJGdo3PyzhINPEA6eEg8wYDzIlJsxNxM8BAAAAANAv7nrt8J4YEQYpKNz9s8N74pmhB6o5CZ0hoaegsMJRwYQEKhH0hesfOzkm0WA5TUCISjjIjOEgszMm7J8jvAEAAADAQOBuIzglCpRqAkL0np+93bj/NW70FlHNSYgRYZCCQnW+eGaA1WbJwYvLaQKCU+KBM4aDzIWYMMtzIAAAAADoK+dvI7zTvKgGhKgEgVJNQGj7odfeHo9nhhpUcxJiQIhKOMg0YaBQvmWFvrDs4MXlNPHAKfEgM8YD49D+k5PMSwAAAACAfnLX/35nanFI6D4orHhUMCHhrtcO8+XbSvCeh0+PxXCwlBIPnBoEavmez/G8AfpHV4MXl9PEA6eEg0wTEBbFhMfnKKwAAAAA0Bfufu3IsAaEqMYDp0SBEhdCAkMWV4yrPnNqd4wF3SjxINMEgl7keQP0i6F9s7skDJRoAkJUwkGmiQgXY8I8w2MAAAAA4JLzoX84PKHhIFPjgVOiQJn8nLySxEjQixIOMk0k6FKeN0DfuG7f/KgEgVJNQHBKPHDakHCywbwEAAAAALiU3P3TI8Mf+sd3mouUeODUeOA0UaBH327sYMjiyvKez545GANBr0o4yNRQsJxT8bwAl4pq5sB1++anrh+db1ZKFCjRxAOnxIPMzpjwBPMSAAAAAODS8aF/eGdSQkJPQaG7qKCBoDs/9NrhsXhmKOSqh8+MxDBQosQDpwaD1KsfPs23q9A3hvbND7dDwloKCsxLAAAAAIBLwV3/cHiPxAOnhINMDQjOGAuW9hBP5leazXvnd77ns2clCJQq8SDTxINO3/P509Qj6CvX75sfjzFhxYNCpQkIUQkHmcxLAAAAAIBLwF0/fWfqrn94p1kp8cAp4SBT44FTo4F4MJ4ZVoj3fPbsZCsmtDVhoK4SDjJNRGiFhM+dbsTzAlxKzj9xONmIIWEtBAXmJQAAAADAalHdRmhHhE4lHmRKPHBqPHCagNC+jTAczw0rxHs+e3ZsUUgYsKCw+eHTfLMKfeXafXO7Y0CIShAo1QQEZ4wHi0LCY3NTzEsAAAAAgNWg8zaCU8JBpsSDTA0I0c6I8KHXDjNzbzWp5hBIRBigoPCez53hOgr0nev3nTwY40GmRIESTTxwxoiwEBMen5uInwUAAAAAoIS7fnp4NIaDTAkHmRIOMjUgOFn5eAnY/JkzUxIQoiYMlCjxwNm+lfDIPAMyoK8sPHHYp+EgU6JAiSYeOGNIOH8z4SSzRgAAAABgRahWKd71D4cbMRh0o8QDp4SDTI0HF32bJ/KXgvR5g9NEgRIlHlhPj8YzA1xqWk8cqpDQ1sQDp0SBUk1AiEpMYPgiAAAAAKwAvdxGyJR4kCnxwBkjwuHmXf94mN8fLwXLPm/INGGgrhoPLvqehxm6CINB64lDZ0zoISpIECjVBATnhVsJjaF9DF8EAAAAgPrc/eqhnTEKlCjhIFPiQeb52wjVrYl4dlglunrekGnCQF1jRGjL0EUYBBY9cXCagOCUKFCiiQfWVkzgP6oAAAAAUI+7fvLOwbt++k6zpQkDdZVwkCnhQL3rHw/zrPdS0tPzhkwTBkpcFBMePs3QOBgI5ImD08QDp0SBEmM4MF7/2MnJ+HkAAAAAAJbjzp8eGV6ICJ2aMFBXCQeZJiC0vfu1Q8zXu5TUft7gNFGgxHZMqM4Yzw3QD9InDlETD5wSBUo1EWEhJjw+Nx4/DwAAAADAUnzwJ+9MSkRYpaBQKfHAGUPCP77Dz7n94MpPFzxvyDRhoK5XPXyGvxgwECz7xMFpAkJUgkCpJiS0fGxuJH4mAAAAAADHB3/yzsgHf3pE44HTRIESJR5kchuhf2z+9NmxzZ8526yUIFCqCQN1ZBUkDApD++aHJRZ0owkITokCJcaQ0JJNDgAAAACwNNXgwg/+9J1GFRLaSjzINGGgrhIOVL507heb987vbIeETiUKlGjiQC9u/iyrIGFwuH7fyTEJBd1q4oFTokCJnU8c2OQAAAAAAMvwwZ+8M94ZEQY1KHAboc9s/szZyRgSBioofPZ0Y2hvk8nzMBBceOIwKZGgF008cEoUKHUhJnDLBwAAAACUasBijAdOCQeZJgyUyG2EAeLKT58ZiQEhKlGg1BgLlpFbCTBIVN/qSxyoo4kHTgkChVabHFgLCQAAAACRO39yZPKDPznSbGkCglPigdNEgRK5jTAI7G1u2fxpjQdOCQKlmmhg/ezpRjw2QD+5bt/ciISBEk1AiMYgUOL1o6yFBAAAAICL3Pn3R0YXIkKnJh44JR5kmjDQix/8B24jDAxXfvrMeCsmDHBQ2PzwaQbFwUBx3VfmJyQIlGoCgjOGgTpe/9g8/xEGAAAAgD+7+9VDOz/4k3caEhEGMChwG2GAuHLv2d0LIaGHoLDiUcEEhIsh4cxUPDdAP6meB1z7lZON674y36yUKFCiiQfOGAd6lZgAAAAAAHf++MjEB//exINMExCiEg4yTSzI5DbCAHLlyJkpiQkDFhS4lQCDxjX75ofbIWHtBoW5kfi5AAAAAGBj8MEfvzPSigidxnCQaQKCU+KB04SDKLcRBpDNnz47KhGh30GhklsJMOBc++WTYzEmrHhQqDQBIaqRoEsfnyfSAQAAAGwwdrw2veWDP36nISGhn0EhiQrcRhhQNu+d3ynxINMEhKgEgVK5lQADzHVfOTkZQ0I/g0KtqEBMAAAAANhQ3PH37xyUeJAZ44HTxAOnhIPMhZBwuFFFj3h+GBAWDV3sRhMQnBIFCqxuJQztbfKXCAaKoX3zOzvnJWRKFCjRxAOnBIPE60dPNqrVlvGzAQAAAMD6446fHN5z598fabaVcJAZ44HTxAOnhIPUw6Px/DBAbN57dlhiQTeaeOCMUaCumz97lr9IMHBcu+/U7hgOMiUKlGjigTOGAycxAQAAAGD9s+PVQzvv/PE7jc6QsCpBocuooOFgUUTgNsJaIB262I0mHjhjGOjZz5xpcCsBBpFrvzw/dt1XTkk4yJQoUKoJCNEYD6LEBAAAAID1zR0/PjIRA0JUwkFmDAeZJiA4JST85DDPb9cCmz9zeo8EgjqagBCVQNCD3EqAQeW6r5yaOB8T2mpAiEoQKNUEBGeMCMQEAAAAgPXNHT9+Z+TOHx9ptjQBwSnxwBnDQaaJB87zEeEdhu2vGfY2t2weOdOQMFBXExCcMRR0YzUgMh4foN8M7WtuufYr843FMaG7oLDiUcHEA2cMCRdjAv+OAQAAAKwX7vrJ4V13vvpOYyEkrEZQ6DYqmHgQvfOnR4bjZ4AB5oq9Z0evHDFRoEQTD5wxFizl5s+cYQUIDCRX7zu9S0PC2gsK14+enBzax5s0AAAAgPXAna8emZSI0O+gkESFO396ZCKeHwac6pv+KiS0lShQookHzhgNMjd/9iyVCgaS6758akQjwtoLCsQEAAAAgLXPnT86MnbnqyYeZJqAEJVwkBnDQWZHSLj71UPcjF2LXLn3zHhnTFjxoFBpAkI0hgPjZDw7wKBw7ZdPjWtAiGo8cEoUKNUEhCgxAQAAAGDtc+crR3a3IkKnMRxkmoDglHjgjOEg8c6fHhmLnwHWCPFWwiAHhWpAZDw/wCBQzUu47svzkxoPMjUgRCUIlGoCgvck0Q4AAABgjbHjpektd/7onYaEhH4GhSWjwjuse1zrXLn37ESMCP0OCjYqsA4SBphqYOG1X55vXPflGA2WUgOCU6JAiRIOFnvdvnmCHQAAAMAa445Xj05IPMiM8cBp4oFTwkFmCAmse1wHbN57djjGg0yJAiWaeOAMQYHrLzCwXPPF+eFWSGgr4SBT44FTokCJRAQAAACAdcGdrx4ZvfPVo82LmnjgjPEg0wSEqISDzOpJw08YsLhuuHLvuYkrR85JOMiUKFCiiQfOdky4+uHT7L2HgeW6L83vWRQTeooKGg+cEgVKJSIAAAAArEnOz0XojAj9DQrdRIVqPWX8HLBGOX8roQoJbTUeOCUKlGoCQpTBizDoXPulU+MSEnoKCt1FBQkCNSUiAAAAAKw9drw6vfPOHx1paEBwmoAQjeEg08QDZwwIlXf+mAGL646LtxKiGhCiEgRKNQGh0ys/fWYknh9gkLjuS6cmJCKsUlAoiQpEBAAAAIC1RzVc8Y5Xjk7e8aOjzUoNB5kmIERjOMg08cC5EBJ+zIDFdYneSohqQHBKFCjRRISWnz7TqDZOxM8AMCgsbHKIASEq4SBT44EzhoKlJCIAAAAArE1uf+XIeDsidKrhINMEBGeMB04TD6w/PrI7fg5YJ+S3EgYvKFz5mbMM6YCB5upHT++69ksXNjl0o8QDp8YDZ4wGUSICAAAAwNrkjh8dHYkBIarhINPEA2eMB5kxHlzwjh8zYHFd07qVsDeGg0yNB06JAqXyxAHWEK1NDl861WwZw0GmxINMDQjRGBCICAAAAABrlztfPTIco8FyajxwmnjgjOEgc9FNhHcaO149xG3y9U7rVkIVE7oOCt1FBQkCpfLEAdYIrU0O7ZjQp6DQjgpEBAAAAIC1STVc8Y5XjjRiKOhWjQeZJiBEYzjIbN1GeIcvfzcCC7cSOpVwkKkBwSlRoECeOMBa4Novzo8tigm9RAUJB5kaDxb5JSICAAAAwFokDlcsUcNBpgkIzhgPOrzjVZ40bCgW3UpYA0GBJw6wFmithYwh4VIFBSICAAAAwJrljh8enbjjFY0CJWo4yDTxwGlCwl0/ObwrfhZYx1yx9/QuiQhRiQdOjQfOGAZ6duRMozpz/BwAg8Z1X5yflIjQa1DoOioQEQAAAADWOq0NDVVE6NSEgRI1HjhNPHC2Q8KrR0bjZ4ENwJV7z45LPHBKPHBqPHBKIOjFkbOT8TMADBqttZDLxYSVDApEBAAAAIA1yx0/PLpHIkLfg0IXUeFHR/jdbKOyeW9z5xWfMuEgU+JBpgaEqESC7qV6wcBTxYRrqrWQMR44YzjIjAHhK6ea13751Hj8/w0AAAAAa4MdPzy65/YfmniQacJAXTUcZJqI8OqR5l0/5EnDhuaKh86OVjGhX0GhVlTYe3Y4fg6AQePqR0/vqmLCtTEcLGWMB04iAgAAAMCaZ8cPD+/a+fKRRhUS2ko4yDRhoK4aDjIvRoQ7fsSWBtjb3HLFp8422jGhp6gg4SBT44FTgkHmyJlGde74UQAGjc6YsJJBoRrqGP9/AQAAAMDawEWEfgeFSo0HKlsaYIHLHzo3EkNCT0Gh66ig8cAp4cB45QgrIWFtUM0waIeElQgKRAQAAACAtUu15vH2l49MxXiQKfHAaaJAiTEeLPijI40dr07vjJ8JNjCXf+rsVIwIqxcUuosKMR4YmZcAawIXE3qKCkQEAAAAgDVPKyL88OhkjAXdKPHAaaJAiTEk3PHqUYZ8w2I27T07HOOBU8JBpoSDTA0IThMRzsu8BFgjLBUTugkKRAQAAACAtUtJROg5KKxwVGhFhB8dPRg/E0CLyz917mAMB0sp8cAp4SBT44FTQsLImcbmvfNcr4E1wbVfnB+LASEaAwIRAQAAAGDtc/vL5RGhUwkHmSYM9O6RqSqExM8E0OL8OkgdvLicEg8yJR44NR44F8eEs5MMX4S1wrWPnhqP8cBJRAAAAABYH9z+g2Pjt798rLmgCQN1lXCQKXGge6vhkPEzASyicx1kr0o4yJR4kKkBIdqOCVd++gy/bMGaoRUTvqjxwMjfawAAAIA1jESEVQoKlRIPnCYULOXtrxxhLh10x3KDF5dTwkGmhINMDQjWT59hnymsGRZiQh4UiAgAAAAAa5gdS0WEfgeF7qICm/Kge7odvNiNEg+cEg4yTTyI7j27O34egEFlUUxYHBSICAAAAABrmCoi7Hz5WLOtxINMEwbqKuEgUwNC845XjjSYiwA9c/lDZ8djFChR4kGmxAOnCQgLIeFM44q9p3nDA2sGiQmPEhEAAAAA1jIxIqzFoHDnq0fYjgc12NvccsVDvQ9eXE4JB5kSD5wmJIycbV6x98wUwxdhLXHNF09NEBEAAAAA1j5LRYR+B4VKiQdG5iJAEVf+1dndVzx0rrmgCQN1lXCQKfEgM95MYJMDrB2G9jW3XPPoKWZ8AAAAAKxhWhHhB8eaC5qA4JR44DRRoMQYDy5GhKMH4+cC6Jkr/urcxKKYsIaCwhV7z/AvAQAAAAAArDoSEVYrKKxwVFgcEo5MMRcBVoTNe5s7W08cYkxY4aBQKfHAKeEgc2FmAlfFAQAAAABgVah+8d4xfuygxAOniQdOCQeZJgzU9Y4fHmns+OFhZs3BynH5Q+dGJCL0Oyh0HRWqmwlnx+JnAgAAAAAAKOF8RDg6ufPvjjUXjPEg0wSEqISDTBMGenXHD4/uiZ8PoBj7xMFpwkBdJRxkSjxQr9h7jn8xAAAAAABgRbARYZWCQtdRwQSC7jzCF6+wOlRPHC5/6Jx/4uA0YaCuEg4yTUAgJgAAAAAAwEqy46XpXUtGhLUUFF4+OhE/H8CKsumvzu6+/KF3m5USDjJNGChR4oHTRARiAgAAAAAAlFJFhA/83dHGjr871mwr8cAZw0GmiQdOiQeZMRwsiggMV4RLxOV/9e7BdkzoKSqYKFCixINMYgIAAAAAAKwAO35wZHeMCD0HhW6jgokHTgkHmSEi7HyZ4YpwKdnb3HL5Q+emYkzoOiiscFSQcJAZYsLmvWeH40cDAAAAAABw7Hhpek8MB5kSDjJjPMg0ASEq4SDzQkiookj8jACryqZPnh2OEWHNBYW9ZxtX7D1NgQMAAAAAgCXZ8dKxsR3jf2ou0gSEqISDzBgOMk1AcEo8CO74ARsaoE9seujd0RgQohIOMk0YKFHigfNCTOBmAgAAAAAAOKr5AR946di4RIQeg0LXUSGGg0wTD5wxILT8wbHx+DkBLimbPnluMsaDTIkHThMFSpR4kMjMBAAAAAAA6KQVEcaPTUo4yDTxwCnxIDPGA6eJB86OkHAwfk6AS05rJeRfnWtc/lcaDjIlHjhNFCgxhgMnMQEAAAAAACpamxnG/9SQWNCNJh44JRxkxniQaQJCpztePjrJhgYYGForIauQ0NbEA6fEg0wTBuoa40GUmAAAAAAAsLGphirWjghRExCiEg4yYzjIdBHhB0dZ8wiDx6a/endsUUxYw0GBmAAAAAAAsDH5wEvHxj7wkgkCpZqA4JR44IzhIPNiRGjs+OE0Q+ZhMGnNS4gxoYeoIOEg04SBEmNIOB8Tzo7FzwcAAAAAAOuTC0MVJ6qIEJUoUKKJB06JB5kxHgR3/B0RAQadvc0tC/MSMk1AcEo8cJooUGKMCVfuPcs0UwAAAACAdU41D+H9L/2pEQNCVKJAiSYeOCUcZJqI0AoJrHmEtcCmT54dlnjgNPHAKfEg04SBuoZnDgerQBI/JwAAAAAArH3e//3pkQ/87Z+aLU08cEoUKNUEhKiEg0wiAqxVLv/kuZHLP2nigdPEA6eEg0wTBuraERQmiQkAAAAAAOuH1lOG7x87uBAROjXxwClBoFQTEKISDhKJCLAmufwT7463YkK3QaHLqCDhINOEgRKv/NTZxhV7T/O2CAAAAABgjdN6yvC3x6YkIDhNQIhKECjVBARnjAcLEeHvjjHvDdYoe5tbNn3i3ORCTFjhoNB1VDBRoL5nG1fuPbs7flQAAAAAAFgbvP/7x0YlFnSjCQhOiQIlmnjgXBQRxo8x5w3WONXwxU+eayyKCf0KCisYFS5/6NxI/KgAAAAAADC4tJ4y/O2xCQkEvWrigVOiQIkmHliJCLBeuOITzV02JvQSFUw8cEo4yDRxoFcvf+jsOHMTAAAAAAAGn/d9b3r3+77/p4ZEgRJNPHBKFCg1xoMLfoCIAOuNKz5xbo8EhGiMB5kmIEQlHGSaQNCLl3/q3OTmvc2d8fMCAAAAAED/qW4hvO/7x8bf//0/NTuVKFCqCQhRCQKlEhFgI7Dpk++OSjxwxnCQaQKCU+KB00SC7mVuAgAAAADAoHHbd6eH3/f9Y1MxIvQ7KKx0VCAiwLpnU+cmh+WM4SDTxAOnxAOnRIIefOjsaPy8AAAAAABwaTl/C2F67P3fn26eVwOCU6JAiSYeOGMU6NUPvEREgA3CZZ88N7Hpk+82KyUeOGM4yDTxwCnxIDOGgu6cYG4CAAAAAEB/OH8LYXrqYkToVOOBU6JAiSYeOGMg6EYiAmws9ja3XPaJc5PtmNB1UOg2Kph44JRwkKmxYBl56gAAAAAAcClp3UL43vS4xgOnxgOnRIFSTUCIxliQSUSAjcne5pZNnzw31RkTVjwodBkVJBxkSjBYxofOjsWPDQAAAAAAK0trI8P3phvv/950c0GJB5kaEKISBEo1AcEZ4wERAeDCWshNnzzXiDGhX0Gh66gQg8ESVlsdrth7elf87AAAAAAAUMaOl6Z3vv+70xOLAkJUwkGmBgSnRIESTTxwEhEAAkvFhJ6iQgwHmSYeOCUeZJp44Lz8oXMj8bMDAAAAAEA93v/d6dH3f3e62TLGA6eEg0yNB06JAiWaeOAlIgAs0E1M6DoodBsVTDxwSjjINPHAOLF5b3Nn/PwAAAAAANAdrWGK35meWogIncZ44JRwkKnxwClRoEQJBxd9/0vTe+KfBcCG57JPnNsTw0GmhIPMGA8yTUCISjjI1HgQPNvgdgIAAAAAQG/sePHCM4YYD5wxHmRKPHBqPHBKFCiViADQHa2Y8Il3my1NQIhKOMiM4SDTBASnxAOnBASR2wkAAAAAAMvQ2sbw3emx9313utlWwkFmDAeZEg8yNSBEJQgUSkQA6IJFMaHLoNB1VIjhINPEA6fEg0yNCBd96Oxo/DMAAAAAAIA/+7PbvjM9ctt3pxudESEq8cAZw0GmhINMDQjOGAV68f1/+6fGjpemGdoO0C0SE1Y6KHQbFUw8cEo4yIwR4YKXf+rs1Ka9Z4fjnwMAAAAAwEbkfX8zvft9fzM99b7vaDjIlHiQGeOBU8JBpsYDZ4wEy0lEAKiJjQn9CgpdRgUJB5kmJrSCwkNnx/9sb3NL/LMAAAAAANgIVIMUb/vO9EQrIERNPHBKOMiM8SBT4oFT44EzBgPn+//22GT1nCP+2QBAl6QxoYeoIOEgM4aDTBMQohIOMk1MqIYx8twBAAAAADYSt704PXzbt5OA4DQBISrhIDOGg0yJB5kaEKIxHlz02AQRAWAFWDYmDHBQ6DoqSEzguQMAAAAArH9u/c70rlZA+Jvp5iJjOMg0AcEp8cAZw0GmhINMDQjOhYjw/WPj8c8HAAroKiZ0GRS6jgoxHGSaeOCUeJCpUWHiir2neR8FAAAAAOuG6gbC+/5melwCQjSGg0wTD5wSDzJjPHBKOMjUeKBOsx4eYDXoOiasdFDoNiqYeOCUcJAZbyg8dHacdZEAAAAAsJapAsKt325M3PY3jWZbiQeZMR44TTxwSjjIjPEgU+KBM8aDPzXf9/0/Nd7/PdY7Aqwqmz5+dvemj59rbPq4iQdOEw+cEg4yYzzINAEhKuEgM95QeOjsGAMZAQAAAGAt4QJCVMJBZowHmSYgRCUcZMZwkCnxILOKCMembmUzA8Cl4YpPNHctxIRug0KXUUHCQWYMB5kmIDglHjgXBYULAxkJCgAAAAAwwNz64vSeW7/dmLzt241mSxMQohIOMmM4yDQBwSnxwBnDQaaEg+D3ptnMAHCpkZiwwkGh66gQw0GmiQdOiQeZBAUAAAAAGFCqX5Bve3F69LZvN6YWAkLUBASnxANnDAeZJh44JR5kxnjgjAHh+9PN931/mqGKAP2iigmXffzc5KKY0K+g0G1UMPHAKeEgk6AAAAAAAAPC9hend972YmP81hcbDQkHmSYeOCUeOGM4yDTxwCnhIDPGA+fFmwjMQwDoO3ubW2xM6CUqmHjglHCQGeNBpgkIUQkHmQxlBAAAAIA+0Xq+8GJjQiJBL5p44JR4kBnjgdPEA6eEg8wYDzp83/emG9Wqy/hnBwD9oooJD757UCJCr0Ghy6gg4SAzhoNMExCcEg+cIShs2nt2OP5xAQAAAACUUt0+uOXF6dFbX1zi+UIdTTxwSjjIjPEg0wSEqISDzBgSvjs9wTwEgAFl08ffHZeAEI3hINMEBKfEA2cMB5kmHjglHmS2g8Knzk1e8VfnuEIFAAAAAMW0bx/c+mKjGZUoUKoJCFEJB5kxHGSagOCUeOCsbiJ8d3os/hkCwIBx2SeaeyQeOGM4yDTxwCnxIDPGA6eJB04JB5lhjgLPHgAAAACgF2795vSuW77VGL/lW41GjAdOCQKlmoDglHjgjOEg08QDp8SDC77vu9ON931venf8swSAAWXTx5u7N3383cUbHZYyxgOniQdOCQeZMR5kmoAQlXCQ2fns4VPnDl659yz/YQMAAAAAS+vpwremR2/9X42pW/9XoymagOCUKFCiiQdOiQeZMR44TTxwLgoJ35me3PHiNF/eAaw1WushH3x3atPH/6+Gg8wYD5wmHjglHGTGcJBpAkJUwkFmR1C4cEthjFsKAAAAANCKB//r+Mgt3zo+KeEg08QDp0SBEk08cEo4yIzxINMEBCNPGQDWNK2NDu9Ono8JKxwUuowKEg4yYzjINAHBKfHAuSgonJ+lcPlD50aICgAAAAAbh8Xx4HjTawJC1MQDp0SBUk1AiEo4yIzhIFPjQfO27043bvvuNIPOAdYL54cwtmNCf4JC11EhhoNMEw+cEg8yNSocbA1o3NtkuiwAAADAOqOaefDebzbG3vut45O3fCtGg6U0AcFpAkJUgkCpJiA4JR44YzjIvBgRDrKVAWAdcmEIY2NxUOgyKsRwkGnigVPiQWaMB04TD5wSDjJDUOiMCtxUAAAAAFib7DgwvWX7N4/vueWbjfFbvnm8UcUDp4aDTBMPnCYgOCUKlGjigVPiQWaMBx3e9p3pxm3fmR6Jf94AsI5YPDchagKCM8YDp4kHTgkHmTEeZJqAEJVwkGmCQufzhyv2nt4V/3wBAAAAYHDY/sL08C3fOj7avnXQqxoPnCYeOE08cEoUKNHEA6eEg0wNCZO3fmean4kBNgTV3IQH3z2oIWEVgkKXUUHCQWYMB5kmIDglHjhNTLgYFc5OXf7Q2fHW9geeQAAAAAD0lVY4eOH46C3fbEzEKFCixoNMExCiJh44JQqUagJCVMJBZnUT4W+mR+OfPwBsADZ9/N1RjQj9DQpdR4UYDjJNPHBKPMg0MSHeVqg2QBAWAAAAAFaX1lOFdjh4oTFxyzePN60mDNRVw0GmCQhOExCiEgRKNQHBKfHgotxCANjobHqgOeznJkRNQIjGcJBp4oFT4kFmjAdOEw+cEg4yTURwtsMC8xUAAAAAyrgQDUa2P98Yf+8Lxyff+8LxZqWEg0wTBuqq4SDTxAOnCQhRCQKlmnjg7IwI3EIAgIss+9Shx6DQbVQw8cAp4SAzxoNMExCiEg4yTTxY2rONKz51buKKh86OVrcWiAsAAAAAi9l+YHpnFQ22v3B89L3PNw52RoOllHCQacJAXTUcZJp44DQBwSlRoEQTD6K3/k2DWwgA4Lnswf87ouEg08QDZ4wHmSYgRCUcZMZwkGkCglPigVOCQS8uxIWxaojjpr1nh3kWAQAAAOud7S/MDN/y/Ind279xfLS6ZbD9hcZEjAN1lHCQacJAiRoPnCYeOE08cEoUKNEEhPNyCwEAluMTzV2XPfju5GUPxnCQaeKBM4aDTBMQnBIPnDEcZJp44JR4kCmhoL5X7j03ccXecwev2FvdYDg3snnv2WG2RQAAAMCgc35+wcxwyyoUfKO6XXD84Pbnj0+89xsnGu99/kTTasJAiRIPnCYKlKjxINMEhKiJB06JAqVWtxC+3ZjY/uI0t2cBoHv+/MF3x6qY0H1Q6DIqxHCQaeKBU+JBZowHThMPnBIOMk0YqOuVe1Mnq9hwPjicHW3bjg4qTykAAABgeVrPCw7MDFsvhIHznhi7eez4RGUrEsQwUFcTBUqUeJBpwkBdNRxkmoDgNAEhKkGghre+2Gjc9u3pkfh3AgCgK6pBjJc98O7UqgSFbqOCiQdOCQeZMR5kmoAQlXCQacJAiSYmqCPderYrN396Bf1Md77nsyvow2dW1Ks+16WfXzmvfqRbT3fnXy/vNV9YYR/tzmsfPbW8X+zSL3Xndd365S78SrfOd+X1+1bQ0e4cemyFffzksm7p1ie6dH933tCNT86tqFu/2qVPrZzbnu7W2e78Whc+0503duuzXfrc8nM8CFQAAB/BSURBVN703Ex3fn1lvfl/duGBbj3RldvHVtBvdKdEgVJNGKirhINMEwbqquEg08QDpwkIzhgIuvLFxviOl6Z5YgsAhextbum8nUBQUCUcZJooUKLEA6eEg0yNB06JAiWaeOCUKFCqCQN1lXCQacJAXTUcZJp44DQBwSlRoEQTD5wSDzJjPHCaeOCUcJAZ40GmxAOnxgOnRIFSTUCIShAo1QQEp8QDZwwHmSYeOCUeZJowUFcJB5kmDNRVw0GmiQfOGA8yTUCISjjIjOEg0wQEp8QDp4kCJUo8yJR44NR44JQoUKoJCFEJAqWaMFBXCQeZJgyUqPHAaeKB08QDp8QC463fbkze9uL0cPxVAACgiHg7oW9BocuoIOEgM4aDTBMQnBIPnCYKlCjxIFPigVPjgVOiQKkmIEQlCJRqwkBdJRxkmjBQosYDp4kHThMPnBIFSjTxwCnhIDPGg0wTEKISDjJjOMiUeJCpASEqQaBUExCcEgVKNPHAKfEgM8YDp4kHTgkHmSYM1FXCQaYJAyVqPHCaeOCM4SDTBASnxANnDAeZJh44JR5kmjBQVwkHmRIPMjUgRCUIlGoCglOiQIkmDJQo8cBpokCJGg8yTUCImnjgjPGgFRB4xgAAq465ndBbVDDxwBnDQaYJCE6JB84YDjJNPHBKPMg0YaCuEg4yJR5kakCIShAo1QQEp0SBEk0YKFHigdNEgRI1HmSagBA18cApUaBUExCiEg4yYzjINAHBKfHAGcNBpoSDTA0ITokCJZp44JQoUKKJB04JB5kxHmSagBCVcJBpwkCJEg+cJgqUqPEg0wSEaAwHmSYeOCUeZMZ44DTxwCnhINOEgbpKOMiUcJCpAcEpUaBEEw+cEgVKNFGgRIkHmSYM1FXDQaYJCE4TEKI8YwCAvtC6nXBhs0NU40GmCQjRGA4yTTxwSjzIjPHAaeKBU8JBpgkDdZVwkCnhIFMDglOiQIkmHjglCpRookCJEg8yTRioq4aDTBMQnCYgRCUIlGoCglPigTOGg0wTD5wSDzJjPHBKOMjUeOCUKFCiiQdOiQKlmoAQlXCQGcNBpgkITokHThMFSpR4kGnCQF01HGSagOCM8cBp4oFTwkFmjAeZJiBEJRxkmjBQosQDp4SDTI0HTokCJZp44JQoUKoJA3WVcJBpwkBdNRxkmnjgNAGhwwmeMQBA3/jzB94djSFhVYJCt1HBxAOnhIPMGA8yTUCISjjINGGgRIkHTgkHmRoPnBIFSjTxwClRoFQTBuoq4SDThIG6ajjINPHAaQKCU6JAiSYeOCUeZMZ44DTxwCnhIDPGg0yJB06NB06JAqWagBCVIFCqCQhOiQfOGA4yTTxwSjzINGGgrhIOMk0YqKuGg0wTD5wxHmSagBCVcJAZw0GmCQhOiQdOEwVKlHiQKfHAqfHAKVGgVBMQohIESjVhoK4SDjJNGChR44HTxAPn4oAwdcu3pnfHn+kBAC49DzR3XvbAuxMxJPQ1KHQZFSQcZMZwkGkCglPigdNEgRIlHmRKPHBqPHBKFCjVBISoBIFSTRioq4SDTBMGStR44DTxwGnigVOiQIkmHjglHGTGeJBpAkJUwkFmDAeZEg8yNSBEJQiUagKCU6JAiSYeOCUeZMZ44DTxwCnhINOEgbpKOMg0YaBEjQdOEw+cMRxkmoDglHjgjOEg08QDp8SDTBMG6irhIFPiQaYGhKgEgVJNQHBKFCjRhIESJR44TRQoUeNBpgkIHd7yrUbjlhenR+OP8QAAfWfTx5u74zDGqMYDp4kHzhgOMk1AcEo8cMZwkGnigVPiQaYJA3WVcJAp8SBTA0JUgkCpJiA4JQqUaMJAiRIPnCYKlKjxINMEhKiJB06JAqWagBCVcJAZw0GmCQhOiQfOGA4yJRxkakBwShQo0cQDp0SBEk08cEo4yIzxINMEhKiEg0wTBkqUeOA0UaBEjQeZJiBEYzjINPHAKfEgM8YDp4kHTgkHmSYM1FXCQaaEg0wNCE6JAiWaeOCUKFCiiQIlSjzINGGgrhoOMl1EmB7dcYA5CAAwyFTDGJd47tBbUOgyKsRwkGnigVPiQWaMB04TD5wSDjJNGKirhINMCQeZGhCcEgVKNPHAKVGgRBMFSpR4kGnCQF01HGSagOA0ASEqQaBUExCcEg+cMRxkmnjglHiQGeOBU8JBpsYDp0SBEk08cEoUKNUEhKiEg8wYDjJNQHBKPHCaKFCixINMEwbqquEg0wQEZ4wHThMPnBIOMmM8yDQBISrhINOEgRIlHjglHGRqPHBKFCjRxAOnRIESTRQoUcJBpgkDddVwkNm6hTC+/cXpnfHHdQCAweWB5s4/f/DdgzEgRDUcZJqA4IzxwGnigVPCQWaMB5kmIEQlHGSaMFCixAOnhINMjQdOiQIlmnjglChQqgkDdZVwkGnCQF01HGSaeOA0AcEpUaBEEw+cEg8yYzxwmnjglHCQGeNBpsQDp8YDp0SBUk1AiEoQKNUEBKfEA2cMB5kmHjglHmSaMFBXCQeZJgzUVcNBpokHzhgPMk1AiEo4yIzhINMEhKiEg0wTBUqUeOCUcJCp8cApUaBEEw+cEgVKNWGgrhIOMk0YqKuGg4sSEABgzdPa7rDE/IS+BoUuo4KEg8wYDjJNQHBKPHCaKFCixINMiQdOjQdOiQKlmoAQlSBQqgkDdZVwkGnCQIkaD5wmHjhNPHBKFCjRxAOnhIPMGA8yTUCISjjIjOEgU+JBpgaEqASBUk1AcEoUKNHEA6fEg8wYD5wmHjglHGSaMFBXCQeZJgzUVcNBpokHzhgOMk1AiEo4yIzhINMEBKfEA6eJAiVKPMiUeODUeOCUKFCqCQhRCQKlmjBQVwkHmSYMlEhAAIB1y2UPNPcsNz+ht6hg4oEzhoNMExCcEg+cMRxkmnjglHiQacJAXSUcZEo8yNSAEJUgUKoJCE6JAiWaMFCixAOniQIlajzINAEhauKBU6JAqSYgRCUcZMZwkGkCQlTCQWYMB5kSDjI1IEQlCJRq4oFTokCJJh44JRxkxnjgNPHAKeEg04SBuko4yDRhoESNB04TD5wxHGSagOCUeOCM4SDTxAOnxINMEwbqKuEgU+JBpgaEqASBUk1AcEoUKNGEgRIlHjhNFKjlNxvj219glSMArGPOz094txHjgVPjQaYJCNEYDjJNPHBKPMiM8cBp4oFTwkGmCQN1lXCQKeEgUwOCU6JAiSYeOCUKlGiiQIkSD5wmCpSo4SDTBISoiQdOCQKlmoAQlXCQGcNBpgkITokHzhgOMiUcZGpAcEoUKNHEA6dEgRJNPHBKOMiM8SDTBISohINMEwZKlHjgNFGgRI0HmSYgRGM4yDTxwCnxIDPGA6eJB04JB5kmDNRVwkGmhINMDQhOiQIlmnjglChQookCJUo8yIxxoBurgMANBADYMCwMZOxDUOg2Kph44JRwkBnjQaYJCFEJB5kmDNRVwkGmhINMjQdOiQIlmnjglChQookCJUo8yDRhoK4aDjJNQHCagBCVIFCqCQhOiQfOGA4yTTxwSjzIjPHAKeEgU+OBU6JAiSYeOCUKlGoCQlTCQWYMB5kmIDglHjhNFChR4kGmCQN11XCQaQKCM8YDp4kHTgkHmTEeZJqAEJVwkGnCQIkSD5wSDjI1HjglCpRo4oFTokCpJgzUVcJBZowFTgICAGxoCAq5JiBEJRxkmjBQosQDp4SDTI0HTokCJZp44JQoUKoJA3WVcJBpwkBdNRxkmnjgNAHBKVGgRBMPnBIPMmM8cJp44JRwkBnjQabEA6fGA6dEgVJNQIhKECjVBASnxANnDAeZJh44JR5kmjBQVwkHmSYM1FXDQaaJB84YDzJNQIhKOMiM4SDTBASnxAOniQIlSjzIlHjg1HjglChQqgkIUQkCpZowUFcJB5kSD4433vvNxhgBAQCgzVoICl1GBQkHmTEcZJqA4JR44DRRoESJB5kSD5waD5wSBUo1ASEqQaBUEwbqKuEg04SBEjUeOE08cJp44JQoUKKJB04JB5kxHmSagBCVcJAZw0GmxINMDQhRCQKlmoDglChQookHTokHmTEeOE08cEo4yDRhoK4SDjJNGChR44HTxANnDAeZJiA4JR44YzjINPHAKfEg04SBuko4yJR4kKkBISpBoFQTEJwSBUo0YaBEiQfObx2fuuVbx0d3HJjeEn+EBgCAih6DQvdRwcQDZwwHmSYgOCUeOGM4yDTxwCnxINOEgbpKOMiUeJCpASEqQaBUExCcEgVKNGGgRIkHThMFStR4kGkCQtTEA6dEgVJNQIhKOMiM4SDTBASnxANnDAeZEg4yNSA4JQqUaOKBU6JAiSYeOCUcZMZ4kGkCQlTCQaYJAyVKPHCaKFCixoNMExCiMRxkmnjglHiQGeOB08QDp4SDTBMG6irhIFPCQaYGBKdEgRJNPHBKFCjRRIESJR5883jzvd88Prn9m8f3xB+XAQAgY9WCQpdRIYaDTBMPnBIPMmM8cJp44JRwkGnCQF0lHGRKOMjUgOCUKFCiiQdOiQIlmihQosSDTBMG6qrhINMEBKcJCFEJAqWagOCUeOCM4SDTxAOnxIPMGA+cEg4yNR44JQqUaOKBU6JAqSYgRCUcZMZwkGkCglPigdNEgRIlHmSaMFBXDQeZJiA4YzxwmnjglHCQGeNBpgkIUQkHmSYMlCjxwCnhIFPjgVOiQIkmHjglCpRqwkBdz0cENjAAAJSxt7mll7WRKx4Uuo0KJh44JRxkxniQaQJCVMJBpgkDJUo8cEo4yNR44JQoUKKJB06JAqWaMFBXCQeZJgzUVcNBpokHThMQnBIFSjTxwCnxIDPGA6eJB04JB5kxHmRKPHBqPHBKFCjVBISoBIFSTUBwSjxwxnCQaeKBU+JBpgkDdZVwkGnCQF01HGSaeOCM8SDTBISohIPMGA4yTUBwSjxwmihQosSDTIkHTo0HTokCpZqAEJUgUKoJA137/PHG9heOj24/wPwDAIAV5UJQmIjhIFPDQaaJB84YDzJNQIhKOMiM4SDTBASnxAOniQIlSjzIlHjg1HjglChQqgkIUQkCpZowUFcJB5kmDJSo8cBp4oHTxAOnRIESTTxwSjjIjPEg0wSEqISDzBgOMiUeZGpAiEoQKNUEBKdEgRJNPHBKPMiM8cBp4oFTwkGmCQN1lXCQacJAiRoPnCYeOGM4yDQBwSnxwBnDQaaJB06JB5kmDNRVwkGmxINMDQhRCQKlmoDglChQYowES7j9hcbE9ud5vgAAsOpseqA5/OcPvDsew8FSajxwmnjgjOEg0wQEp8QDZwwHmSYeOCUeZJowUFcJB5kSDzI1IEQlCJRqAoJTokCJJgyUKPHAaaJAiRoPMk1AiJp44JQoUKoJCFEJB5kxHGSagOCUeOCM4SBTwkGmBgSnRIESTTxwShQo0cQDp4SDzBgPMk1AiEo4yDRhoESJB04TBUrUeJBpAkI0hoNMEw+cEg8yYzxwmnjglHCQacJAXSUcZEo4yNSA4JQoUKKJB06JAiWacNDy+eON9z7fGOP2AQBAP3igubM1R6Ffzx5iOMg08cAp8SAzxgOniQdOCQeZJgzUVcJBpoSDTA0ITokCJZp44JQoUKKJAiVKPMg0YaCuGg4yTUBwmoAQlSBQqgkITokHzhgOMk08cEo8yIzxwCnhIFPjgVOiQIkmHjglCpRqAkJUwkFmDAeZJiA4JR44TRQoUeJBpgkDddVwkGkCgjPGA6eJB04JB5kxHmSagBCVcJBpwkCJEg+cEg4yNR44JQqUaOKBU6JAiQsBoXHwludP7I4/0gIAQJ/Y9PHm7oF/9mDigVPCQWaMB5kmIEQlHGSaMFCixAOnhINMjQdOiQIlmnjglChQqgkDdZVwkGnCQF01HGSaeOA0AcEpUaBEEw+cEg8yYzxwmnjglHCQGeNBpsQDp8YDp0SBUk1AiEoQKNUEBKfEA2cMB5kmHjglHmSaMFBXCQeZJgzUVcNBpokHzhgPnCYeOCUcZMZwkGkCQlTCQaaJAiVKPHBKOMjUeOCUKFCiiQdOiQK9+o3jk7d84/gItw8AAAaZHm8paDjINPHAGeNBpgkIUQkHmTEcZJqA4JR44DRRoESJB5kSD5waD5wSBUo1ASEqQaBUEwbqKuEg04SBEjUeOE08cJp44JQoUKKJB04JB5kxHmSagBCVcJAZw0GmxINMDQhRCQKlmoDglChQookHTokHzhgOMk08cEo4yDRhoK4SDjJNGKirhoNMEw+cMR5kmoAQlXCQGcNBpgkITokHThMFSpR4kCnxwKnxwClRoFQTEKISCJZw+zdOTL33GyfGbj0wuyv+qAoAAANOdUuhl1kKGg+cJh44YzjINAHBKfHAGcNBpokHTokHmSYM1FXCQabEg0wNCFEJAqWagOCUKFCiCQMlSjxwmihQosaDTBMQoiYeOCUKlGoCQlTCQWYMB5kmIEQlHGTGcJAp4SBTA0JUgkCpJh44JQqUaOKBU+JBZowHThMPnBIOMk0YqKuEg0wTBkrUeOA08cAZw0GmCQhOiQfOGA4yTTxwSjzINGGgrhIOMiUeZGpAiEoQKNUEBGcMB8QDAID1yMUVkl09fdB4kGkCQjSGg0wTD5wSDzJjPHCaeOCUcJBpwkBdJRxkSjjI1IDglChQookHTokCJZooUKLEA6eJAiVqOMg0ASFq4oFTgkCpJiBEJRxkxnCQaQKCU+KBM4aDTAkHmRoQnBIFSjTxwClRoEQTD5wSDjJjPMg0ASEq4SDThIESJR44TRQoUeNBpgkI0RgOMk08cEo8yIzxwGnigVPCQaYJA3WVcJAp4SBTA4JTokCJJh4kEg8AADYEDzR3Xvbg/x257MF3J2NAiGo4yDQBwRnjgdPEA6eEg8wYD5wmHjglHGSaMFBXCQeZEg4yNR44JQqUaOKBU6JAiSYKlCjxINOEgbpqOMg0AcFpAkJUgkCpJiA4JR44YzjINPHAKfEgM8YDp4SDTI0HTokCJZp44JQoUKoJCFEJB5kxHGSagOCUeOA0UaBEiQeZJgzUVcNBpgkIzhgPnCYeOCUcZMZ4kGkCQlTCQaYJAyVKPHBKOMjUeOCUKFCihoPmzWMnprZ/48TYTcQDAIANSpdRQcNBpokHzhgPnCYeOCUcZMZ4kGkCQlTCQaYJAyVKPHBKOMjUeOCUKFCiiQdOiQKlmjBQVwkHmSYM1FXDQaaJB04TEJwSBUo08cAp8SAzxgOniQdOCQeZMR5kSjxwajxwShQo1QSEqASBUk1AcEo8cMZwkGnigVPiQaYJA3WVcJBpwkBdNRxkmnjgjPEg0wSEqISDzBgOMk1AcEo8cJooUKLEg0yJB06NB06JAgXefOD4xM0MTAQAAKGKCg809/z5g+8ejCGhr0Ghy6gg4SAzhoNMExCcEg+cJgqUKPEgU+KBU+OBU6JAqSYgRCUIlGrCQF0lHGSaMFCixgOniQdOEw+cEgVKNPHAKeEgM8aDTBMQohIOMmM4yJR4kKkBISpBoFQTEJwSBUo08cAp8SAzxgOniQdOCQeZJgzUVcJBpgkDJWo8cJp44IzhINMEBKfEA2cMB5kmHjglHmSaMFBXCQeZEg8yNSBEYxToxpsPnJi6+cCJ8ZsPnNg9dGB6S/yxEQAAQNnb3LIwqDHZ/qDxwGnigTOGg0wTEJwSD5wxHGSaeOCUeJBpwkBdJRxkSjzI1IAQlSBQqgkITokCJZowUKLEA6eJAiVqPMg0ASFq4oFTokCpJiBEJRxkxnCQaQKCU+KBM4aDTAkHmRoQnBIFSjTxwClRoEQTD5wSDjJjPMg0ASEq4SDThIESJR44TRQoUeNBpgkI0RgOMk08cEo8yIzxwGnigVPCQaYJA3WVcJAp4SBTA4IzBoMOG9sPHD9484HjIzxZAACAleETzV3VEwh3W0HjQaYJCNEYDjJNPHBKPMiM8cBp4oFTwkGmCQN1lXCQKeEgUwOCU6JAiSYeOCUKlGiiQIkSDzJNGKirhoNMExCcJiBEJQiUagKCU+KBM4aDTBMPnBIPMmM8cEo4yNR44JQoUKKJB06JAqWagBCVcJAZw0GmCQhOiQdOEwVKlHiQacJAXTUcZJqA4IzxwGnigVPCQWaMB5kmIEQlHGSaMFCixAOnhINMjQfO87cOjk9sP3B8dPuBmeH4ox8AAMCKs+mB5vCfP/DuaOcWCA0HmSYgOGM8cJp44JRwkBnjQaYJCFEJB5kmDJQo8cAp4SBT44FTokCJJh44JQqUasJAXSUcZJowUFcNB5kmHjhNQHBKFCjRxAOnxIPMGA+cJh44JRxkxniQKfHAqfHAKVGgVBMQohIESjUBwSnxwBnDQaaJB06JB5kmDNRVwkGmCQN11XCQaeKBM8aDTBMQohIOMmM4yDQBwSnxwGmiQIkSDzIlHjgXh4ObDpyYuokbBwAAMEh0hoVNH3+3ofHAaeKBM8aDTBMQohIOMmM4yDQBwSnxwGmiQIkSDzIlHjg1HjglCpRqAkJUgkCpJgzUVcJBpgkDJWo8cJp44DTxwClRoEQTD5wSDjJjPMg0ASEq4SAzhoNMiQeZGhCiEgRKNQHBKVGgRBMPnBIPMmM8cJp44JRwkGnCQF0lHGSaMFCixgOniQfOGA4yTUBwSjxwxnCQaeKBU+JBpgkDdZVwkCnxYJETNx04MVbNOGBAIgAArA2qpxAPNPdsevDdscserOJCjAj9DQpdR4UYDjJNPHBKPMg0YaCuEg4yJR5kakCIShAo1QQEp0SBEk0YKFHigdNEgRI1HmSagBA18cApUaBUExCiEg4yYzjINAHBKfHAGcNBpoSDTA0ITokCJZp44JQoUKKJB04JB5kxHmSagBCVcJBpwkCJEg+cJgqUqPEg0wSEaAwHmSYeOCUeZMZ44DTxwCnhINOEgbpKOPA22tHgpgPH93DbAAAA1hVXVHHhE51xwd1cMAEhGsNBpokHTokHmTEeOE08cEo4yDRhoK4SDjIlHGRqQHBKFCjRxAOnRIESTRQoUeJBpgkDddVwkGkCgtMEhKgEgVJNQHBKPHDGcJBp4oFT4kFmjAdOCQeZGg+cEgVKNPHAKVGgVBMQohIOMmM4yDQBwSnxwGmiQIkSDzJNGKirhoNMExCcMR44TTxwSjjIjPEg0wSEqISDTBMGSrwQDSZu/vqJ8Zu+PtOaa8BNAwAA2JhU2yEeaA5XgxwXAsOD705JPMiM8cBp4oFTwkFmjAeZJiBEJRxkmjBQosQDp4SDTI0HTokCJZp44JQoUKoJA3WVcJBpwkBdNRxkmnjgNAHBKVGgRBMPnBIPMmM8cJp44JRwkBnjQabEA6fGA6dEgVJNQIhKECjVBASnxANnDAeZJh44JR5kmjBQVwkHmSYM1FXDQaaJB84YD5wmHjglHGTGcJBpAkJUwkGmiQJLeeNzJyZvem5moooFN359ZmTbswQDAACArqluMGx64OzwZQ+eG9n08XdHL2ttjDg3senBcxoaYjzINAEhKuEgM4aDTBMQnBIPnCYKlCjxIFPigVPjgVOiQKkmIEQlCJRqwkBdJRxkmjBQosYDp4kHThMPnBIFSjTxwCnhIDPGg0wTEKISDjJjOMiUeJCpASEqQaBUExCiEgRKNfHAKfHAGcNBpokHTgkHmSYM1FXCQaYJA3XVcJBp4oEzxoNMExCiEg4yYzjINAHBKfHAWUWCr5+YakWCC6Gg8ubnTuyuYsHQgekt8WchAAAAWAWq0LDgx98dbXvZx989eNknzk102mtQ6DoqxHCQaeKBU+JBpgkDdZVwkCnxIFMDQlSCQKkmIDglCpRowkCJEg+cJgqUqPEg0wSEqIkHTokCJZp44JRwkBnDQaYJCFEJB5kxHGRKOMjUgBCVIFCqCQhOiQIlmnjglHiQGeOB08QDp4SDTBMG6irhINOEgRI1HjhNPHDGcJBpAoJT4oEzhoPMReFgZmrbs7MTnd743MzBbc/OjN7U9rnje6o4UHnTM8wsAAAAAAAAAAAAAAAAAAAAAAAAAAAAAAAAAAAAAAAAAAAAAAAAAAAAAAAAAAAAAAAAAAAAAAAAAAAAAAAAAAAAAAAAAAAAAAAAAAAAAAAAAAAAAAAAAAAAAAAAAAAAAAAAAAAAAAAAAAAAAAAAAAAAAAAAAAAAAAAAAAAAAAAAAAAAAAAAAAAAAAAAAAAAAAAAAAAAAAAAAAAAAAAAAAAAAAAAAAAAAAAAAAAAAAAAAAAAAAAAAAAAAAAAAAAAAAAAAAAAAAAAAAAAAAAAAAAAAAAAAAAAAAAAAAAAAAAAAAAAAAAAAAAAAAAAAAAAAAAAAAAAAAAAAAAAAAAAAAAAAAAAAAAAAAAAAAAAAAAAAAAAAAAAAAAAAAAAAAAAAAAAAAAAAAAAAAAAAAAAAAAAAAAAAAAAAAAAAAAAAAAAAAAAAAAAAAAAAAAAAAAAAAAAAAAAAAAAAAAAAAAAAAAAAAAAAAAAAAAAAAAAAAAAAAAAAAAAAAAAAAAAAAAAAAAAAAAAAAAAAAAAAAAAAAAAAAAAAAAAAAAAAAAAAAAAAAAAAAAAAAAAAAAAAAAAAAAAAAAAAAAAAAAAAAAAAAAAAAAAAAAAAAAAAAAAAAAAAAAAAAAAAAAAAAAAAAAAAAAAAAAAAAAAAAAAAAAAAAAAAAAAAAAAAAAAAAAAAAAAAAAAAAAAAAAAAAAAAAAAAAAAAAAAAAAAAAAAAAAAAAAAAAAAAAAAAAAAAAAAAAAAAAAAAAAAAAAAAAAAAAAAAAAAAAAAAAAAAAAAAAAAAAAAAAAAAAAAAAAAAAAAAAAAAAAAAAAAAAAAAAAAAAAAAAAAAAAAAAAAAAAAAAAAAAAAgIHn/wctdA9A1C8SowAAAABJRU5ErkJggg==;" vertex="1" parent="1">
          <mxGeometry x="630" y="140" width="50" height="50" as="geometry" />
        </mxCell>
      </root>
    </mxGraphModel>
  </diagram>
</mxfile>
